M48
;GenerationSoftware,Autodesk,EAGLE,9.6.2*%
;CreationDate,2022-04-27T21:27:42Z*%
FMAT,2
ICI,OFF
METRIC,TZ,000.000
T2C0.350
T1C1.016
%
G90
M71
T1
X43815Y39211
X23971Y37624
X23971Y35084
X23971Y32544
T2
X32385Y26035
X38576Y47149
X46514Y33655
X48577Y31591
X42386Y23654
X43974Y22066
X30004Y34608
X38576Y33973
X33655Y47149
X42386Y40958
X25717Y24924
X40005Y24289
X44767Y25082
X33179Y23019
X25082Y41751
X29686Y26829
X30004Y25717
X38259Y35560
X33655Y37941
X34449Y38576
X31750Y32385
X36195Y37624
X40958Y32544
M30