G04 EAGLE Gerber RS-274X export*
G75*
%MOMM*%
%FSLAX34Y34*%
%LPD*%
%INTop Copper*%
%IPPOS*%
%AMOC8*
5,1,8,0,0,1.08239X$1,22.5*%
G01*
%ADD10R,0.800000X0.800000*%
%ADD11R,1.100000X1.000000*%
%ADD12R,1.000000X1.100000*%
%ADD13R,0.812800X1.498600*%
%ADD14R,1.397000X1.701800*%
%ADD15R,1.143000X1.498600*%
%ADD16R,1.498600X1.143000*%
%ADD17C,1.000000*%
%ADD18P,1.649562X8X22.500000*%
%ADD19C,1.524000*%
%ADD20C,0.406400*%
%ADD21C,0.756400*%
%ADD22C,0.508000*%
%ADD23C,0.609600*%
%ADD24C,0.254000*%
%ADD25C,0.304800*%

G36*
X279138Y194946D02*
X279138Y194946D01*
X279166Y194944D01*
X279234Y194966D01*
X279305Y194980D01*
X279328Y194996D01*
X279355Y195005D01*
X279410Y195052D01*
X279469Y195093D01*
X279484Y195117D01*
X279506Y195135D01*
X279537Y195200D01*
X279576Y195260D01*
X279581Y195288D01*
X279593Y195314D01*
X279602Y195415D01*
X279609Y195457D01*
X279607Y195467D01*
X279608Y195480D01*
X279551Y196195D01*
X315087Y196195D01*
X315230Y196209D01*
X315375Y196215D01*
X315431Y196229D01*
X315488Y196235D01*
X315625Y196277D01*
X315766Y196311D01*
X315818Y196336D01*
X315873Y196353D01*
X316000Y196421D01*
X316130Y196483D01*
X316176Y196517D01*
X316227Y196545D01*
X316338Y196637D01*
X316453Y196723D01*
X316492Y196765D01*
X316536Y196802D01*
X316626Y196915D01*
X316723Y197022D01*
X316752Y197071D01*
X316788Y197116D01*
X316855Y197244D01*
X316928Y197368D01*
X316947Y197422D01*
X316974Y197473D01*
X317014Y197612D01*
X317061Y197748D01*
X317072Y197813D01*
X317085Y197860D01*
X317092Y197943D01*
X317113Y198076D01*
X317114Y198093D01*
X317112Y198169D01*
X317120Y198244D01*
X317118Y198261D01*
X317118Y198262D01*
X317117Y198270D01*
X317107Y198369D01*
X317104Y198495D01*
X317087Y198569D01*
X317080Y198645D01*
X317043Y198765D01*
X317018Y198873D01*
X317214Y199732D01*
X317223Y199798D01*
X317237Y199890D01*
X317238Y199892D01*
X317238Y199895D01*
X317260Y200032D01*
X317326Y200917D01*
X317359Y200958D01*
X317418Y201069D01*
X317484Y201174D01*
X317512Y201246D01*
X317547Y201314D01*
X317597Y201469D01*
X317628Y201551D01*
X317634Y201586D01*
X317647Y201630D01*
X317840Y202473D01*
X317849Y202549D01*
X317868Y202623D01*
X317874Y202748D01*
X317890Y202872D01*
X317885Y202948D01*
X317888Y203025D01*
X317870Y203149D01*
X317862Y203260D01*
X318184Y204080D01*
X318202Y204145D01*
X318273Y204370D01*
X318470Y205236D01*
X318509Y205271D01*
X318584Y205371D01*
X318666Y205466D01*
X318703Y205533D01*
X318749Y205594D01*
X318820Y205741D01*
X318863Y205817D01*
X318874Y205851D01*
X318895Y205892D01*
X319211Y206697D01*
X319231Y206771D01*
X319261Y206841D01*
X319286Y206964D01*
X319320Y207085D01*
X319326Y207161D01*
X319341Y207236D01*
X319341Y207361D01*
X319349Y207472D01*
X319790Y208236D01*
X319818Y208297D01*
X319922Y208509D01*
X320246Y209335D01*
X320289Y209364D01*
X320378Y209453D01*
X320473Y209534D01*
X320520Y209594D01*
X320574Y209648D01*
X320667Y209783D01*
X320721Y209851D01*
X320737Y209883D01*
X320763Y209921D01*
X321195Y210670D01*
X321227Y210740D01*
X321267Y210805D01*
X321310Y210923D01*
X321361Y211037D01*
X321378Y211111D01*
X321405Y211183D01*
X321423Y211307D01*
X321448Y211416D01*
X321998Y212105D01*
X322034Y212161D01*
X322169Y212356D01*
X322612Y213124D01*
X322660Y213146D01*
X322761Y213221D01*
X322867Y213287D01*
X322922Y213340D01*
X322984Y213385D01*
X323096Y213504D01*
X323159Y213564D01*
X323180Y213593D01*
X323211Y213627D01*
X323750Y214303D01*
X323792Y214367D01*
X323841Y214426D01*
X323901Y214535D01*
X323969Y214641D01*
X323997Y214712D01*
X324034Y214779D01*
X324071Y214899D01*
X324112Y215003D01*
X324757Y215602D01*
X324802Y215653D01*
X324964Y215824D01*
X325517Y216518D01*
X325567Y216533D01*
X325678Y216591D01*
X325793Y216641D01*
X325856Y216685D01*
X325923Y216721D01*
X326052Y216822D01*
X326123Y216872D01*
X326148Y216897D01*
X326184Y216926D01*
X326818Y217514D01*
X326869Y217571D01*
X326926Y217622D01*
X327002Y217722D01*
X327085Y217816D01*
X327123Y217882D01*
X327169Y217943D01*
X327224Y218056D01*
X327280Y218152D01*
X328008Y218649D01*
X328059Y218692D01*
X328245Y218838D01*
X328896Y219441D01*
X328947Y219449D01*
X329065Y219490D01*
X329187Y219522D01*
X329255Y219556D01*
X329327Y219581D01*
X329469Y219662D01*
X329548Y219700D01*
X329576Y219722D01*
X329616Y219745D01*
X330330Y220232D01*
X330389Y220281D01*
X330453Y220323D01*
X330543Y220410D01*
X330639Y220491D01*
X330687Y220551D01*
X330741Y220604D01*
X330812Y220707D01*
X330890Y220805D01*
X330925Y220873D01*
X330969Y220936D01*
X331020Y221052D01*
X331093Y221153D01*
X331188Y221273D01*
X331210Y221315D01*
X331238Y221354D01*
X331302Y221494D01*
X331372Y221631D01*
X331385Y221677D01*
X331405Y221721D01*
X331440Y221870D01*
X331482Y222018D01*
X331486Y222066D01*
X331496Y222113D01*
X331501Y222267D01*
X331513Y222419D01*
X331507Y222467D01*
X331509Y222515D01*
X331483Y222667D01*
X331464Y222819D01*
X331449Y222865D01*
X331441Y222912D01*
X331386Y223055D01*
X331338Y223201D01*
X331314Y223243D01*
X331297Y223288D01*
X331214Y223418D01*
X331138Y223551D01*
X331107Y223587D01*
X331081Y223628D01*
X330975Y223739D01*
X330874Y223855D01*
X330836Y223884D01*
X330802Y223919D01*
X330676Y224006D01*
X330555Y224100D01*
X330506Y224125D01*
X330472Y224149D01*
X330393Y224183D01*
X330260Y224252D01*
X328350Y225043D01*
X326643Y226750D01*
X325719Y228980D01*
X325719Y231395D01*
X326643Y233625D01*
X328350Y235332D01*
X330580Y236256D01*
X332995Y236256D01*
X335225Y235332D01*
X336932Y233625D01*
X337856Y231395D01*
X337856Y231068D01*
X337859Y231041D01*
X337857Y231014D01*
X337879Y230841D01*
X337896Y230667D01*
X337904Y230642D01*
X337907Y230615D01*
X337963Y230449D01*
X338014Y230282D01*
X338027Y230259D01*
X338036Y230233D01*
X338123Y230082D01*
X338206Y229928D01*
X338223Y229908D01*
X338236Y229884D01*
X338451Y229631D01*
X342336Y225746D01*
X342357Y225729D01*
X342375Y225709D01*
X342513Y225602D01*
X342648Y225491D01*
X342672Y225479D01*
X342693Y225462D01*
X342850Y225384D01*
X343004Y225302D01*
X343029Y225295D01*
X343053Y225283D01*
X343223Y225237D01*
X343390Y225188D01*
X343416Y225185D01*
X343442Y225178D01*
X343773Y225151D01*
X344331Y225151D01*
X344398Y225158D01*
X344634Y225174D01*
X345511Y225306D01*
X345558Y225283D01*
X345679Y225250D01*
X345797Y225209D01*
X345873Y225198D01*
X345947Y225178D01*
X346110Y225165D01*
X346196Y225153D01*
X346232Y225155D01*
X346278Y225151D01*
X347142Y225151D01*
X347218Y225159D01*
X347295Y225157D01*
X347418Y225179D01*
X347543Y225191D01*
X347616Y225214D01*
X347691Y225227D01*
X347808Y225272D01*
X347915Y225305D01*
X348786Y225174D01*
X348853Y225171D01*
X349089Y225151D01*
X349976Y225151D01*
X350019Y225121D01*
X350134Y225071D01*
X350244Y225012D01*
X350318Y224991D01*
X350388Y224960D01*
X350547Y224922D01*
X350630Y224898D01*
X350666Y224894D01*
X350711Y224884D01*
X351566Y224755D01*
X351642Y224751D01*
X351718Y224738D01*
X351843Y224741D01*
X351968Y224735D01*
X352043Y224746D01*
X352120Y224748D01*
X352242Y224776D01*
X352352Y224792D01*
X353195Y224532D01*
X353261Y224519D01*
X353491Y224465D01*
X354368Y224333D01*
X354406Y224297D01*
X354512Y224230D01*
X354612Y224155D01*
X354682Y224123D01*
X354746Y224082D01*
X354898Y224021D01*
X354977Y223984D01*
X355012Y223976D01*
X355054Y223959D01*
X355881Y223704D01*
X355956Y223689D01*
X356028Y223664D01*
X356153Y223649D01*
X356275Y223624D01*
X356352Y223624D01*
X356428Y223614D01*
X356553Y223623D01*
X356664Y223623D01*
X357458Y223241D01*
X357521Y223218D01*
X357741Y223130D01*
X358589Y222869D01*
X358621Y222827D01*
X358715Y222746D01*
X358804Y222657D01*
X358868Y222614D01*
X358926Y222564D01*
X359066Y222482D01*
X359139Y222433D01*
X359172Y222420D01*
X359212Y222396D01*
X359991Y222021D01*
X360062Y221995D01*
X360131Y221960D01*
X360251Y221926D01*
X360369Y221883D01*
X360445Y221872D01*
X360518Y221851D01*
X360643Y221842D01*
X360753Y221825D01*
X361482Y221329D01*
X361541Y221296D01*
X361745Y221177D01*
X362544Y220792D01*
X362569Y220746D01*
X362651Y220651D01*
X362725Y220550D01*
X362782Y220499D01*
X362832Y220441D01*
X362958Y220338D01*
X363023Y220280D01*
X363054Y220261D01*
X363090Y220232D01*
X363804Y219745D01*
X363871Y219708D01*
X363933Y219664D01*
X364048Y219612D01*
X364158Y219552D01*
X364231Y219530D01*
X364300Y219498D01*
X364423Y219470D01*
X364529Y219437D01*
X365175Y218838D01*
X365229Y218797D01*
X365412Y218649D01*
X366146Y218149D01*
X366164Y218100D01*
X366231Y217994D01*
X366289Y217883D01*
X366337Y217824D01*
X366378Y217759D01*
X366488Y217639D01*
X366543Y217571D01*
X366571Y217548D01*
X366602Y217514D01*
X367236Y216926D01*
X367297Y216880D01*
X367351Y216826D01*
X367457Y216758D01*
X367557Y216683D01*
X367625Y216649D01*
X367690Y216608D01*
X367806Y216562D01*
X367907Y216513D01*
X368456Y215824D01*
X368503Y215776D01*
X368663Y215602D01*
X369313Y214998D01*
X369324Y214947D01*
X369374Y214833D01*
X369415Y214714D01*
X369454Y214648D01*
X369485Y214578D01*
X369575Y214443D01*
X369620Y214368D01*
X369644Y214341D01*
X369670Y214303D01*
X370209Y213627D01*
X370262Y213572D01*
X370308Y213511D01*
X370402Y213428D01*
X370490Y213338D01*
X370553Y213295D01*
X370610Y213244D01*
X370719Y213182D01*
X370811Y213119D01*
X371251Y212356D01*
X371291Y212301D01*
X371422Y212105D01*
X371976Y211411D01*
X371979Y211359D01*
X372011Y211238D01*
X372034Y211115D01*
X372063Y211044D01*
X372083Y210970D01*
X372152Y210822D01*
X372185Y210742D01*
X372205Y210712D01*
X372224Y210670D01*
X372657Y209921D01*
X372702Y209859D01*
X372738Y209792D01*
X372819Y209696D01*
X372892Y209594D01*
X372948Y209542D01*
X372997Y209483D01*
X373095Y209405D01*
X373176Y209329D01*
X373498Y208509D01*
X373529Y208449D01*
X373630Y208235D01*
X374074Y207467D01*
X374069Y207415D01*
X374083Y207291D01*
X374088Y207165D01*
X374105Y207091D01*
X374114Y207015D01*
X374161Y206859D01*
X374181Y206774D01*
X374196Y206741D01*
X374209Y206697D01*
X374525Y205892D01*
X374560Y205824D01*
X374586Y205752D01*
X374652Y205645D01*
X374709Y205534D01*
X374756Y205474D01*
X374796Y205409D01*
X374881Y205317D01*
X374951Y205230D01*
X375147Y204370D01*
X375168Y204307D01*
X375236Y204080D01*
X375561Y203254D01*
X375548Y203204D01*
X375544Y203078D01*
X375529Y202954D01*
X375536Y202878D01*
X375533Y202801D01*
X375556Y202640D01*
X375564Y202553D01*
X375574Y202518D01*
X375580Y202473D01*
X375773Y201630D01*
X375797Y201557D01*
X375812Y201482D01*
X375861Y201367D01*
X375901Y201248D01*
X375939Y201182D01*
X375968Y201111D01*
X376039Y201008D01*
X376095Y200911D01*
X376160Y200032D01*
X376172Y199966D01*
X376206Y199732D01*
X376403Y198867D01*
X376384Y198820D01*
X376360Y198696D01*
X376327Y198575D01*
X376323Y198499D01*
X376308Y198425D01*
X376307Y198260D01*
X376305Y198235D01*
X376302Y198190D01*
X376302Y198186D01*
X376301Y198173D01*
X376306Y198138D01*
X376306Y198093D01*
X376307Y198076D01*
X376332Y197934D01*
X376349Y197791D01*
X376367Y197736D01*
X376377Y197679D01*
X376429Y197545D01*
X376474Y197408D01*
X376502Y197358D01*
X376523Y197304D01*
X376601Y197183D01*
X376671Y197057D01*
X376709Y197013D01*
X376740Y196965D01*
X376841Y196861D01*
X376935Y196752D01*
X376980Y196717D01*
X377020Y196676D01*
X377139Y196594D01*
X377253Y196506D01*
X377304Y196480D01*
X377352Y196447D01*
X377484Y196390D01*
X377613Y196326D01*
X377669Y196311D01*
X377722Y196289D01*
X377863Y196259D01*
X378002Y196222D01*
X378068Y196216D01*
X378116Y196206D01*
X378199Y196206D01*
X378333Y196195D01*
X413869Y196195D01*
X413812Y195480D01*
X413816Y195451D01*
X413811Y195423D01*
X413828Y195354D01*
X413836Y195282D01*
X413851Y195258D01*
X413857Y195230D01*
X413900Y195172D01*
X413936Y195110D01*
X413958Y195093D01*
X413975Y195070D01*
X414037Y195033D01*
X414094Y194990D01*
X414122Y194983D01*
X414146Y194968D01*
X414246Y194952D01*
X414287Y194941D01*
X414297Y194943D01*
X414310Y194941D01*
X433310Y194941D01*
X433386Y194956D01*
X433464Y194965D01*
X433483Y194976D01*
X433505Y194980D01*
X433569Y195024D01*
X433637Y195063D01*
X433653Y195082D01*
X433669Y195093D01*
X433693Y195131D01*
X433743Y195191D01*
X443243Y211691D01*
X443252Y211718D01*
X443268Y211742D01*
X443283Y211812D01*
X443306Y211880D01*
X443303Y211908D01*
X443309Y211936D01*
X443296Y212007D01*
X443290Y212078D01*
X443277Y212103D01*
X443271Y212131D01*
X443231Y212191D01*
X443198Y212254D01*
X443176Y212272D01*
X443160Y212296D01*
X443077Y212354D01*
X443045Y212381D01*
X443034Y212384D01*
X443024Y212391D01*
X441975Y212887D01*
X441962Y212998D01*
X441945Y213051D01*
X441936Y213105D01*
X441883Y213241D01*
X441838Y213381D01*
X441810Y213429D01*
X441790Y213481D01*
X441712Y213604D01*
X441640Y213731D01*
X441604Y213773D01*
X441574Y213820D01*
X441472Y213926D01*
X441377Y214036D01*
X441333Y214070D01*
X441294Y214110D01*
X441174Y214193D01*
X441058Y214283D01*
X441009Y214308D01*
X440963Y214339D01*
X440829Y214397D01*
X440698Y214462D01*
X440644Y214477D01*
X440593Y214498D01*
X440451Y214529D01*
X440309Y214567D01*
X440246Y214572D01*
X440199Y214582D01*
X440116Y214583D01*
X439978Y214594D01*
X438530Y214594D01*
X436300Y215518D01*
X434593Y217225D01*
X434013Y218624D01*
X433999Y218651D01*
X433989Y218681D01*
X433904Y218828D01*
X433823Y218978D01*
X433803Y219002D01*
X433788Y219030D01*
X433573Y219283D01*
X422483Y230373D01*
X422458Y230393D01*
X422438Y230416D01*
X422303Y230520D01*
X422171Y230628D01*
X422143Y230643D01*
X422119Y230662D01*
X421824Y230813D01*
X420425Y231393D01*
X418718Y233100D01*
X417794Y235330D01*
X417794Y237745D01*
X418718Y239975D01*
X420425Y241682D01*
X422655Y242606D01*
X425070Y242606D01*
X427300Y241682D01*
X429007Y239975D01*
X429587Y238576D01*
X429601Y238549D01*
X429611Y238519D01*
X429696Y238372D01*
X429777Y238222D01*
X429797Y238198D01*
X429812Y238170D01*
X430027Y237917D01*
X441117Y226827D01*
X441142Y226807D01*
X441162Y226784D01*
X441297Y226680D01*
X441429Y226572D01*
X441457Y226557D01*
X441481Y226538D01*
X441776Y226387D01*
X443175Y225807D01*
X444882Y224100D01*
X445020Y223768D01*
X445057Y223699D01*
X445085Y223627D01*
X445151Y223523D01*
X445210Y223413D01*
X445260Y223353D01*
X445301Y223288D01*
X445388Y223198D01*
X445466Y223103D01*
X445527Y223054D01*
X445581Y222998D01*
X445683Y222927D01*
X445779Y222849D01*
X445848Y222813D01*
X445912Y222769D01*
X446026Y222720D01*
X446136Y222662D01*
X446210Y222640D01*
X446282Y222609D01*
X446403Y222584D01*
X446522Y222549D01*
X446600Y222542D01*
X446676Y222526D01*
X446800Y222525D01*
X446923Y222514D01*
X447000Y222523D01*
X447078Y222522D01*
X447200Y222545D01*
X447323Y222559D01*
X447397Y222583D01*
X447474Y222598D01*
X447588Y222645D01*
X447707Y222683D01*
X447775Y222721D01*
X447846Y222750D01*
X447950Y222818D01*
X448058Y222879D01*
X448117Y222929D01*
X448182Y222972D01*
X448270Y223060D01*
X448364Y223141D01*
X448412Y223202D01*
X448467Y223257D01*
X448558Y223389D01*
X448612Y223458D01*
X448629Y223491D01*
X448656Y223530D01*
X460138Y243418D01*
X460197Y243550D01*
X460264Y243679D01*
X460280Y243733D01*
X460304Y243785D01*
X460336Y243926D01*
X460376Y244065D01*
X460381Y244122D01*
X460394Y244177D01*
X460398Y244322D01*
X460410Y244467D01*
X460403Y244523D01*
X460405Y244580D01*
X460380Y244723D01*
X460363Y244867D01*
X460346Y244921D01*
X460336Y244976D01*
X460284Y245112D01*
X460239Y245249D01*
X460211Y245299D01*
X460191Y245352D01*
X460113Y245474D01*
X460041Y245600D01*
X460004Y245643D01*
X459974Y245691D01*
X459873Y245796D01*
X459779Y245905D01*
X459732Y245943D01*
X459712Y245964D01*
X459707Y245968D01*
X459694Y245981D01*
X459626Y246029D01*
X459520Y246114D01*
X459512Y246119D01*
X459446Y246155D01*
X459385Y246199D01*
X459370Y246206D01*
X459363Y246210D01*
X459287Y246243D01*
X459270Y246251D01*
X459158Y246311D01*
X459087Y246333D01*
X459018Y246364D01*
X458894Y246393D01*
X458790Y246425D01*
X458143Y247025D01*
X458090Y247065D01*
X457906Y247214D01*
X457172Y247713D01*
X457154Y247762D01*
X457087Y247868D01*
X457029Y247979D01*
X456980Y248039D01*
X456940Y248103D01*
X456830Y248223D01*
X456775Y248291D01*
X456747Y248314D01*
X456716Y248348D01*
X456329Y248707D01*
X456189Y248813D01*
X456050Y248923D01*
X456028Y248935D01*
X456008Y248950D01*
X455849Y249027D01*
X455692Y249107D01*
X455668Y249114D01*
X455646Y249125D01*
X455474Y249169D01*
X455305Y249217D01*
X455280Y249219D01*
X455256Y249225D01*
X455079Y249234D01*
X454904Y249248D01*
X454879Y249245D01*
X454854Y249246D01*
X454679Y249221D01*
X454504Y249199D01*
X454480Y249191D01*
X454455Y249188D01*
X454289Y249128D01*
X454122Y249073D01*
X454100Y249060D01*
X454076Y249052D01*
X453925Y248960D01*
X453772Y248873D01*
X453753Y248857D01*
X453732Y248844D01*
X453601Y248725D01*
X453468Y248609D01*
X453453Y248589D01*
X453435Y248572D01*
X453331Y248430D01*
X453223Y248290D01*
X453210Y248265D01*
X453197Y248247D01*
X453163Y248172D01*
X453071Y247995D01*
X452820Y247387D01*
X451113Y245680D01*
X448882Y244756D01*
X446468Y244756D01*
X444237Y245680D01*
X442530Y247387D01*
X441606Y249618D01*
X441606Y252032D01*
X442530Y254263D01*
X444237Y255970D01*
X446468Y256894D01*
X446615Y256894D01*
X446641Y256896D01*
X446668Y256894D01*
X446842Y256916D01*
X447015Y256934D01*
X447041Y256941D01*
X447067Y256945D01*
X447233Y257000D01*
X447400Y257052D01*
X447424Y257065D01*
X447449Y257073D01*
X447601Y257160D01*
X447754Y257244D01*
X447775Y257261D01*
X447798Y257274D01*
X448051Y257489D01*
X448337Y257775D01*
X448339Y257777D01*
X448341Y257779D01*
X448467Y257933D01*
X448592Y258086D01*
X448594Y258089D01*
X448595Y258091D01*
X448691Y258273D01*
X448781Y258442D01*
X448782Y258445D01*
X448783Y258447D01*
X448839Y258637D01*
X448896Y258828D01*
X448896Y258831D01*
X448897Y258833D01*
X448914Y259023D01*
X448932Y259229D01*
X448932Y259232D01*
X448932Y259234D01*
X448921Y259332D01*
X448922Y259338D01*
X448918Y259360D01*
X448911Y259428D01*
X448889Y259629D01*
X448888Y259632D01*
X448888Y259634D01*
X448864Y259713D01*
X448861Y259736D01*
X448841Y259789D01*
X448792Y259952D01*
X448784Y259972D01*
X448773Y259994D01*
X448767Y260013D01*
X448744Y260055D01*
X448723Y260114D01*
X448658Y260220D01*
X448601Y260331D01*
X448553Y260392D01*
X448512Y260458D01*
X448428Y260549D01*
X448358Y260637D01*
X448162Y261496D01*
X448140Y261560D01*
X448072Y261786D01*
X447748Y262612D01*
X447760Y262663D01*
X447765Y262788D01*
X447779Y262912D01*
X447772Y262989D01*
X447775Y263065D01*
X447752Y263226D01*
X447744Y263314D01*
X447734Y263348D01*
X447728Y263393D01*
X447535Y264239D01*
X447510Y264311D01*
X447495Y264386D01*
X447446Y264502D01*
X447406Y264620D01*
X447368Y264687D01*
X447339Y264757D01*
X447268Y264861D01*
X447212Y264957D01*
X447146Y265836D01*
X447135Y265902D01*
X447101Y266136D01*
X446903Y267001D01*
X446923Y267050D01*
X446946Y267173D01*
X446979Y267293D01*
X446984Y267370D01*
X446998Y267445D01*
X446999Y267608D01*
X447005Y267695D01*
X447000Y267731D01*
X447000Y267777D01*
X446935Y268641D01*
X446922Y268717D01*
X446918Y268793D01*
X446887Y268914D01*
X446865Y269038D01*
X446837Y269109D01*
X446818Y269183D01*
X446764Y269296D01*
X446724Y269400D01*
X446789Y270279D01*
X446787Y270346D01*
X446789Y270582D01*
X446722Y271467D01*
X446749Y271512D01*
X446791Y271630D01*
X446841Y271745D01*
X446857Y271820D01*
X446882Y271892D01*
X446908Y272053D01*
X446926Y272138D01*
X446927Y272174D01*
X446934Y272220D01*
X446998Y273084D01*
X446997Y273161D01*
X447004Y273237D01*
X446992Y273362D01*
X446988Y273487D01*
X446972Y273561D01*
X446964Y273637D01*
X446927Y273757D01*
X446902Y273866D01*
X447098Y274725D01*
X447106Y274792D01*
X447143Y275025D01*
X447209Y275910D01*
X447242Y275951D01*
X447301Y276061D01*
X447368Y276167D01*
X447395Y276239D01*
X447431Y276306D01*
X447480Y276462D01*
X447511Y276544D01*
X447517Y276579D01*
X447531Y276623D01*
X447723Y277468D01*
X447733Y277544D01*
X447752Y277618D01*
X447758Y277743D01*
X447773Y277867D01*
X447768Y277944D01*
X447772Y278020D01*
X447753Y278144D01*
X447745Y278255D01*
X448066Y279076D01*
X448085Y279141D01*
X448156Y279366D01*
X448353Y280231D01*
X448392Y280266D01*
X448466Y280367D01*
X448548Y280462D01*
X448586Y280528D01*
X448631Y280590D01*
X448703Y280736D01*
X448746Y280812D01*
X448757Y280847D01*
X448777Y280888D01*
X449093Y281695D01*
X449114Y281769D01*
X449144Y281839D01*
X449169Y281962D01*
X449203Y282082D01*
X449208Y282159D01*
X449223Y282234D01*
X449224Y282359D01*
X449232Y282470D01*
X449672Y283233D01*
X449700Y283295D01*
X449804Y283507D01*
X450128Y284333D01*
X450171Y284362D01*
X450260Y284451D01*
X450355Y284532D01*
X450402Y284592D01*
X450456Y284646D01*
X450549Y284781D01*
X450603Y284850D01*
X450619Y284882D01*
X450645Y284919D01*
X451078Y285670D01*
X451110Y285740D01*
X451150Y285805D01*
X451192Y285923D01*
X451244Y286037D01*
X451261Y286112D01*
X451287Y286184D01*
X451306Y286307D01*
X451331Y286416D01*
X451880Y287105D01*
X451916Y287162D01*
X452051Y287356D01*
X452494Y288125D01*
X452542Y288147D01*
X452643Y288221D01*
X452749Y288288D01*
X452804Y288340D01*
X452866Y288386D01*
X452978Y288505D01*
X453041Y288565D01*
X453062Y288594D01*
X453093Y288628D01*
X453633Y289305D01*
X453675Y289370D01*
X453724Y289428D01*
X453784Y289539D01*
X453852Y289644D01*
X453880Y289715D01*
X453916Y289782D01*
X453953Y289902D01*
X453994Y290006D01*
X454640Y290605D01*
X454685Y290656D01*
X454846Y290828D01*
X455399Y291522D01*
X455449Y291536D01*
X455560Y291595D01*
X455675Y291645D01*
X455738Y291689D01*
X455806Y291724D01*
X455934Y291825D01*
X456005Y291875D01*
X456030Y291901D01*
X456066Y291929D01*
X456702Y292519D01*
X456752Y292577D01*
X456810Y292627D01*
X456885Y292727D01*
X456968Y292821D01*
X457006Y292887D01*
X457053Y292948D01*
X457107Y293061D01*
X457163Y293158D01*
X457891Y293654D01*
X457943Y293698D01*
X458128Y293844D01*
X458778Y294447D01*
X458830Y294455D01*
X458949Y294496D01*
X459069Y294528D01*
X459138Y294562D01*
X459210Y294587D01*
X459352Y294668D01*
X459430Y294707D01*
X459459Y294729D01*
X459499Y294751D01*
X460215Y295240D01*
X460274Y295289D01*
X460338Y295331D01*
X460427Y295418D01*
X460523Y295499D01*
X460571Y295558D01*
X460626Y295612D01*
X460697Y295715D01*
X460766Y295802D01*
X461560Y296185D01*
X461617Y296220D01*
X461823Y296337D01*
X462556Y296837D01*
X462608Y296836D01*
X462731Y296860D01*
X462856Y296873D01*
X462928Y296897D01*
X463004Y296911D01*
X463156Y296969D01*
X463239Y296996D01*
X463270Y297014D01*
X463313Y297030D01*
X464094Y297406D01*
X464159Y297446D01*
X464229Y297478D01*
X464331Y297551D01*
X464438Y297616D01*
X464494Y297668D01*
X464556Y297713D01*
X464641Y297805D01*
X464723Y297881D01*
X465565Y298140D01*
X465627Y298167D01*
X465848Y298251D01*
X466647Y298637D01*
X466698Y298628D01*
X466824Y298633D01*
X466949Y298628D01*
X467024Y298640D01*
X467101Y298643D01*
X467260Y298678D01*
X467346Y298692D01*
X467380Y298705D01*
X467425Y298715D01*
X468253Y298971D01*
X468324Y299000D01*
X468397Y299021D01*
X468509Y299078D01*
X468624Y299127D01*
X468687Y299170D01*
X468756Y299205D01*
X468853Y299283D01*
X468946Y299346D01*
X469817Y299477D01*
X469882Y299494D01*
X470113Y299545D01*
X470961Y299807D01*
X471010Y299791D01*
X471135Y299777D01*
X471258Y299753D01*
X471335Y299754D01*
X471411Y299745D01*
X471573Y299757D01*
X471661Y299757D01*
X471696Y299765D01*
X471742Y299768D01*
X472599Y299897D01*
X472673Y299916D01*
X472749Y299926D01*
X472867Y299966D01*
X472989Y299997D01*
X473058Y300030D01*
X473130Y300054D01*
X473239Y300117D01*
X473339Y300165D01*
X474221Y300165D01*
X474287Y300172D01*
X474523Y300188D01*
X475401Y300321D01*
X475448Y300298D01*
X475568Y300265D01*
X475687Y300224D01*
X475762Y300213D01*
X475836Y300193D01*
X475999Y300180D01*
X476085Y300168D01*
X476121Y300170D01*
X476167Y300166D01*
X477034Y300166D01*
X477110Y300174D01*
X477186Y300172D01*
X477310Y300194D01*
X477435Y300206D01*
X477508Y300229D01*
X477583Y300242D01*
X477699Y300288D01*
X477806Y300321D01*
X478678Y300190D01*
X478745Y300186D01*
X478980Y300167D01*
X479868Y300167D01*
X479910Y300137D01*
X480025Y300087D01*
X480136Y300028D01*
X480209Y300007D01*
X480279Y299976D01*
X480438Y299939D01*
X480522Y299914D01*
X480558Y299911D01*
X480602Y299900D01*
X481460Y299771D01*
X481536Y299767D01*
X481611Y299754D01*
X481737Y299757D01*
X481862Y299751D01*
X481937Y299762D01*
X482014Y299764D01*
X482136Y299792D01*
X482246Y299809D01*
X483088Y299549D01*
X483154Y299536D01*
X483384Y299482D01*
X484262Y299350D01*
X484300Y299314D01*
X484406Y299247D01*
X484506Y299173D01*
X484576Y299140D01*
X484641Y299099D01*
X484792Y299039D01*
X484871Y299002D01*
X484906Y298993D01*
X484949Y298976D01*
X485777Y298721D01*
X485852Y298706D01*
X485925Y298681D01*
X486049Y298666D01*
X486172Y298641D01*
X486248Y298641D01*
X486324Y298631D01*
X486449Y298641D01*
X486561Y298640D01*
X487355Y298258D01*
X487418Y298235D01*
X487637Y298148D01*
X488485Y297886D01*
X488518Y297844D01*
X488612Y297763D01*
X488701Y297675D01*
X488765Y297632D01*
X488823Y297582D01*
X488963Y297500D01*
X489036Y297451D01*
X489069Y297437D01*
X489110Y297414D01*
X489136Y297401D01*
X489270Y297353D01*
X489401Y297296D01*
X489459Y297284D01*
X489514Y297264D01*
X489655Y297242D01*
X489795Y297213D01*
X489854Y297212D01*
X489912Y297203D01*
X490055Y297210D01*
X490197Y297209D01*
X490256Y297220D01*
X490315Y297223D01*
X490453Y297258D01*
X490593Y297285D01*
X490648Y297307D01*
X490705Y297321D01*
X490834Y297383D01*
X490966Y297437D01*
X491015Y297469D01*
X491068Y297495D01*
X491182Y297581D01*
X491301Y297659D01*
X491343Y297701D01*
X491390Y297737D01*
X491485Y297843D01*
X491586Y297944D01*
X491625Y297999D01*
X491658Y298037D01*
X491700Y298108D01*
X491775Y298217D01*
X509518Y328949D01*
X510126Y328529D01*
X510153Y328518D01*
X510175Y328499D01*
X510244Y328479D01*
X510309Y328451D01*
X510338Y328451D01*
X510366Y328443D01*
X510437Y328451D01*
X510508Y328451D01*
X510535Y328462D01*
X510564Y328465D01*
X510626Y328500D01*
X510691Y328528D01*
X510712Y328548D01*
X510737Y328563D01*
X510800Y328640D01*
X510830Y328670D01*
X510834Y328680D01*
X510843Y328691D01*
X520343Y345191D01*
X520353Y345223D01*
X520362Y345236D01*
X520366Y345260D01*
X520367Y345264D01*
X520398Y345334D01*
X520398Y345358D01*
X520406Y345380D01*
X520400Y345456D01*
X520401Y345533D01*
X520391Y345557D01*
X520390Y345578D01*
X520369Y345617D01*
X520343Y345689D01*
X510843Y362189D01*
X510824Y362211D01*
X510811Y362237D01*
X510758Y362285D01*
X510711Y362338D01*
X510685Y362351D01*
X510664Y362370D01*
X510596Y362393D01*
X510532Y362424D01*
X510503Y362426D01*
X510476Y362435D01*
X510404Y362430D01*
X510333Y362433D01*
X510306Y362423D01*
X510277Y362421D01*
X510187Y362379D01*
X510147Y362364D01*
X510139Y362357D01*
X510126Y362351D01*
X509518Y361931D01*
X491775Y392663D01*
X491692Y392779D01*
X491615Y392900D01*
X491574Y392942D01*
X491540Y392991D01*
X491436Y393088D01*
X491337Y393191D01*
X491289Y393224D01*
X491245Y393265D01*
X491124Y393339D01*
X491007Y393421D01*
X490953Y393444D01*
X490902Y393476D01*
X490768Y393525D01*
X490638Y393582D01*
X490580Y393594D01*
X490524Y393614D01*
X490384Y393636D01*
X490244Y393666D01*
X490185Y393667D01*
X490126Y393676D01*
X489984Y393670D01*
X489842Y393672D01*
X489783Y393661D01*
X489724Y393658D01*
X489586Y393624D01*
X489446Y393598D01*
X489383Y393573D01*
X489333Y393561D01*
X489259Y393526D01*
X489136Y393479D01*
X489110Y393466D01*
X489044Y393426D01*
X488973Y393394D01*
X488872Y393321D01*
X488766Y393257D01*
X488709Y393204D01*
X488646Y393159D01*
X488562Y393068D01*
X488479Y392992D01*
X487637Y392732D01*
X487576Y392706D01*
X487355Y392622D01*
X486555Y392237D01*
X486504Y392245D01*
X486378Y392241D01*
X486253Y392246D01*
X486178Y392234D01*
X486101Y392231D01*
X485942Y392196D01*
X485856Y392182D01*
X485822Y392169D01*
X485777Y392159D01*
X484949Y391904D01*
X484878Y391874D01*
X484804Y391854D01*
X484693Y391797D01*
X484578Y391748D01*
X484514Y391705D01*
X484446Y391670D01*
X484348Y391592D01*
X484256Y391529D01*
X483384Y391398D01*
X483320Y391382D01*
X483088Y391331D01*
X482240Y391070D01*
X482191Y391086D01*
X482066Y391100D01*
X481943Y391123D01*
X481867Y391123D01*
X481791Y391131D01*
X481628Y391120D01*
X481541Y391119D01*
X481506Y391112D01*
X481460Y391109D01*
X480602Y390980D01*
X480528Y390961D01*
X480452Y390952D01*
X480334Y390912D01*
X480212Y390881D01*
X480143Y390848D01*
X480071Y390823D01*
X479962Y390761D01*
X479862Y390713D01*
X478980Y390713D01*
X478913Y390706D01*
X478678Y390690D01*
X477800Y390558D01*
X477753Y390582D01*
X477633Y390614D01*
X477514Y390656D01*
X477438Y390667D01*
X477365Y390686D01*
X477202Y390700D01*
X477116Y390712D01*
X477080Y390710D01*
X477034Y390714D01*
X476167Y390714D01*
X476091Y390706D01*
X476014Y390708D01*
X475891Y390687D01*
X475766Y390674D01*
X475693Y390652D01*
X475618Y390639D01*
X475501Y390593D01*
X475395Y390560D01*
X474523Y390692D01*
X474456Y390695D01*
X474221Y390715D01*
X473333Y390715D01*
X473290Y390745D01*
X473176Y390795D01*
X473065Y390854D01*
X472992Y390876D01*
X472922Y390906D01*
X472763Y390944D01*
X472679Y390969D01*
X472643Y390972D01*
X472599Y390983D01*
X471742Y391112D01*
X471665Y391116D01*
X471590Y391129D01*
X471464Y391126D01*
X471339Y391132D01*
X471264Y391121D01*
X471187Y391119D01*
X471065Y391092D01*
X470955Y391075D01*
X470113Y391335D01*
X470047Y391348D01*
X469817Y391403D01*
X468940Y391535D01*
X468902Y391571D01*
X468796Y391638D01*
X468695Y391713D01*
X468626Y391745D01*
X468561Y391786D01*
X468410Y391847D01*
X468331Y391884D01*
X468296Y391892D01*
X468253Y391909D01*
X467425Y392165D01*
X467350Y392180D01*
X467277Y392205D01*
X467153Y392220D01*
X467030Y392245D01*
X466954Y392245D01*
X466878Y392255D01*
X466753Y392246D01*
X466641Y392246D01*
X465848Y392629D01*
X465784Y392652D01*
X465565Y392740D01*
X464043Y393209D01*
X463917Y393235D01*
X463792Y393270D01*
X463720Y393275D01*
X463649Y393290D01*
X463520Y393290D01*
X463391Y393299D01*
X463319Y393290D01*
X463246Y393290D01*
X463119Y393265D01*
X462991Y393249D01*
X462922Y393226D01*
X462851Y393212D01*
X462732Y393162D01*
X462609Y393121D01*
X462547Y393084D01*
X462480Y393056D01*
X462373Y392984D01*
X462261Y392920D01*
X462196Y392865D01*
X462146Y392831D01*
X462093Y392778D01*
X462008Y392705D01*
X460844Y391541D01*
X460827Y391520D01*
X460806Y391503D01*
X460699Y391365D01*
X460589Y391230D01*
X460576Y391206D01*
X460560Y391185D01*
X460482Y391028D01*
X460400Y390874D01*
X460392Y390848D01*
X460380Y390824D01*
X460335Y390655D01*
X460285Y390488D01*
X460283Y390461D01*
X460276Y390435D01*
X460249Y390105D01*
X460249Y386519D01*
X459591Y384932D01*
X441476Y366817D01*
X441459Y366796D01*
X441439Y366778D01*
X441332Y366640D01*
X441221Y366505D01*
X441209Y366481D01*
X441192Y366460D01*
X441114Y366303D01*
X441032Y366149D01*
X441025Y366124D01*
X441013Y366100D01*
X440967Y365930D01*
X440918Y365763D01*
X440915Y365737D01*
X440908Y365711D01*
X440881Y365380D01*
X440881Y311878D01*
X440224Y310291D01*
X411314Y281381D01*
X411297Y281360D01*
X411276Y281343D01*
X411169Y281205D01*
X411059Y281070D01*
X411046Y281046D01*
X411030Y281025D01*
X410952Y280868D01*
X410870Y280714D01*
X410862Y280688D01*
X410850Y280664D01*
X410805Y280495D01*
X410755Y280328D01*
X410753Y280301D01*
X410746Y280275D01*
X410719Y279945D01*
X410719Y248378D01*
X410061Y246791D01*
X406714Y243444D01*
X406697Y243423D01*
X406676Y243405D01*
X406569Y243267D01*
X406459Y243132D01*
X406446Y243108D01*
X406430Y243087D01*
X406352Y242930D01*
X406270Y242776D01*
X406262Y242751D01*
X406250Y242727D01*
X406205Y242557D01*
X406155Y242390D01*
X406153Y242364D01*
X406146Y242338D01*
X406119Y242007D01*
X406119Y241680D01*
X405195Y239450D01*
X403488Y237743D01*
X401257Y236819D01*
X398843Y236819D01*
X396612Y237743D01*
X394905Y239450D01*
X393981Y241680D01*
X393981Y244095D01*
X394905Y246325D01*
X396612Y248032D01*
X398843Y248956D01*
X399170Y248956D01*
X399196Y248959D01*
X399223Y248957D01*
X399397Y248979D01*
X399570Y248996D01*
X399596Y249004D01*
X399622Y249007D01*
X399788Y249063D01*
X399955Y249114D01*
X399979Y249127D01*
X400004Y249136D01*
X400156Y249223D01*
X400309Y249306D01*
X400330Y249323D01*
X400353Y249336D01*
X400606Y249551D01*
X401486Y250431D01*
X401503Y250452D01*
X401524Y250470D01*
X401631Y250608D01*
X401741Y250743D01*
X401754Y250767D01*
X401770Y250788D01*
X401848Y250945D01*
X401930Y251099D01*
X401938Y251124D01*
X401950Y251148D01*
X401995Y251318D01*
X402045Y251485D01*
X402047Y251511D01*
X402054Y251537D01*
X402081Y251868D01*
X402081Y283434D01*
X402739Y285021D01*
X431649Y313931D01*
X431666Y313952D01*
X431686Y313970D01*
X431793Y314108D01*
X431904Y314243D01*
X431916Y314267D01*
X431933Y314288D01*
X432011Y314445D01*
X432093Y314599D01*
X432100Y314624D01*
X432112Y314648D01*
X432158Y314818D01*
X432207Y314985D01*
X432210Y315011D01*
X432217Y315037D01*
X432244Y315368D01*
X432244Y368870D01*
X432901Y370457D01*
X434402Y371957D01*
X441183Y378738D01*
X441188Y378745D01*
X441195Y378751D01*
X441315Y378900D01*
X441438Y379050D01*
X441442Y379058D01*
X441447Y379065D01*
X441536Y379235D01*
X441626Y379405D01*
X441629Y379414D01*
X441633Y379422D01*
X441686Y379607D01*
X441741Y379791D01*
X441742Y379800D01*
X441744Y379809D01*
X441760Y380000D01*
X441777Y380192D01*
X441777Y380201D01*
X441777Y380210D01*
X441755Y380399D01*
X441734Y380593D01*
X441731Y380601D01*
X441730Y380610D01*
X441671Y380792D01*
X441613Y380976D01*
X441608Y380984D01*
X441605Y380993D01*
X441510Y381161D01*
X441418Y381329D01*
X441412Y381335D01*
X441408Y381343D01*
X441282Y381489D01*
X441157Y381636D01*
X441150Y381641D01*
X441144Y381648D01*
X440993Y381765D01*
X440841Y381885D01*
X440833Y381889D01*
X440826Y381895D01*
X440654Y381980D01*
X440482Y382068D01*
X440474Y382070D01*
X440466Y382074D01*
X440279Y382124D01*
X440095Y382176D01*
X440086Y382176D01*
X440077Y382179D01*
X439746Y382206D01*
X434047Y382206D01*
X428243Y388009D01*
X428243Y396216D01*
X434047Y402019D01*
X442253Y402019D01*
X448057Y396216D01*
X448057Y395224D01*
X448057Y395220D01*
X448057Y395216D01*
X448077Y395021D01*
X448097Y394824D01*
X448098Y394820D01*
X448098Y394815D01*
X448157Y394627D01*
X448215Y394439D01*
X448217Y394435D01*
X448218Y394431D01*
X448314Y394256D01*
X448407Y394085D01*
X448409Y394081D01*
X448412Y394077D01*
X448540Y393925D01*
X448664Y393776D01*
X448668Y393773D01*
X448671Y393769D01*
X448827Y393644D01*
X448978Y393523D01*
X448982Y393521D01*
X448985Y393518D01*
X449166Y393426D01*
X449335Y393338D01*
X449340Y393337D01*
X449344Y393334D01*
X449534Y393280D01*
X449722Y393226D01*
X449727Y393226D01*
X449731Y393225D01*
X449923Y393210D01*
X450124Y393193D01*
X450128Y393194D01*
X450132Y393194D01*
X450326Y393217D01*
X450523Y393240D01*
X450528Y393242D01*
X450532Y393242D01*
X450717Y393304D01*
X450906Y393365D01*
X450910Y393367D01*
X450914Y393369D01*
X451083Y393465D01*
X451257Y393563D01*
X451260Y393566D01*
X451264Y393568D01*
X451411Y393696D01*
X451561Y393826D01*
X451564Y393830D01*
X451568Y393833D01*
X451688Y393990D01*
X451808Y394144D01*
X451810Y394148D01*
X451813Y394152D01*
X451965Y394447D01*
X452269Y395181D01*
X454561Y397474D01*
X454596Y397517D01*
X454637Y397554D01*
X454724Y397672D01*
X454816Y397785D01*
X454842Y397834D01*
X454875Y397879D01*
X454936Y398012D01*
X455005Y398141D01*
X455021Y398194D01*
X455044Y398245D01*
X455078Y398387D01*
X455120Y398527D01*
X455125Y398582D01*
X455137Y398636D01*
X455143Y398782D01*
X455156Y398928D01*
X455150Y398983D01*
X455152Y399039D01*
X455128Y399183D01*
X455113Y399328D01*
X455096Y399381D01*
X455087Y399436D01*
X455035Y399573D01*
X454991Y399712D01*
X454964Y399760D01*
X454945Y399813D01*
X454867Y399937D01*
X454796Y400064D01*
X454760Y400107D01*
X454731Y400154D01*
X454586Y400312D01*
X454536Y400371D01*
X454522Y400382D01*
X454507Y400399D01*
X453990Y400879D01*
X453979Y400930D01*
X453929Y401045D01*
X453888Y401163D01*
X453849Y401229D01*
X453818Y401299D01*
X453727Y401435D01*
X453683Y401510D01*
X453659Y401536D01*
X453633Y401575D01*
X453093Y402252D01*
X453040Y402307D01*
X452993Y402368D01*
X452900Y402451D01*
X452812Y402541D01*
X452749Y402584D01*
X452692Y402635D01*
X452583Y402698D01*
X452491Y402760D01*
X452051Y403524D01*
X452012Y403578D01*
X451880Y403775D01*
X451327Y404469D01*
X451324Y404521D01*
X451291Y404642D01*
X451268Y404765D01*
X451240Y404836D01*
X451220Y404910D01*
X451150Y405057D01*
X451118Y405138D01*
X451098Y405168D01*
X451078Y405210D01*
X450645Y405961D01*
X450600Y406023D01*
X450564Y406090D01*
X450483Y406186D01*
X450410Y406288D01*
X450354Y406340D01*
X450305Y406398D01*
X450207Y406477D01*
X450126Y406553D01*
X449804Y407373D01*
X449773Y407433D01*
X449672Y407647D01*
X449229Y408415D01*
X449233Y408467D01*
X449220Y408592D01*
X449215Y408717D01*
X449197Y408791D01*
X449189Y408867D01*
X449142Y409024D01*
X449122Y409109D01*
X449107Y409141D01*
X449093Y409185D01*
X448777Y409992D01*
X448742Y410060D01*
X448716Y410132D01*
X448651Y410239D01*
X448594Y410351D01*
X448546Y410411D01*
X448506Y410476D01*
X448421Y410568D01*
X448352Y410655D01*
X448156Y411514D01*
X448134Y411578D01*
X448066Y411804D01*
X447742Y412630D01*
X447755Y412681D01*
X447760Y412806D01*
X447774Y412931D01*
X447767Y413007D01*
X447770Y413084D01*
X447747Y413245D01*
X447740Y413332D01*
X447730Y413366D01*
X447723Y413412D01*
X447531Y414257D01*
X447506Y414330D01*
X447491Y414405D01*
X447443Y414520D01*
X447403Y414639D01*
X447365Y414705D01*
X447335Y414776D01*
X447264Y414879D01*
X447209Y414976D01*
X447143Y415855D01*
X447132Y415921D01*
X447098Y416155D01*
X446901Y417020D01*
X446921Y417069D01*
X446944Y417192D01*
X446977Y417313D01*
X446982Y417389D01*
X446996Y417464D01*
X446997Y417627D01*
X447003Y417714D01*
X446998Y417750D01*
X446998Y417796D01*
X446934Y418660D01*
X446921Y418736D01*
X446917Y418812D01*
X446886Y418933D01*
X446864Y419057D01*
X446836Y419128D01*
X446818Y419202D01*
X446764Y419315D01*
X446723Y419419D01*
X446789Y420298D01*
X446787Y420366D01*
X446789Y420601D01*
X446723Y421486D01*
X446750Y421531D01*
X446791Y421649D01*
X446842Y421764D01*
X446858Y421839D01*
X446883Y421911D01*
X446909Y422073D01*
X446927Y422157D01*
X446928Y422193D01*
X446935Y422239D01*
X447000Y423103D01*
X446998Y423180D01*
X447006Y423256D01*
X446994Y423380D01*
X446990Y423506D01*
X446974Y423580D01*
X446966Y423656D01*
X446929Y423776D01*
X446905Y423885D01*
X447101Y424744D01*
X447109Y424811D01*
X447146Y425044D01*
X447213Y425929D01*
X447246Y425969D01*
X447305Y426080D01*
X447371Y426186D01*
X447399Y426257D01*
X447435Y426325D01*
X447484Y426481D01*
X447515Y426562D01*
X447521Y426597D01*
X447535Y426641D01*
X447728Y427487D01*
X447737Y427562D01*
X447756Y427637D01*
X447763Y427762D01*
X447778Y427886D01*
X447773Y427962D01*
X447776Y428039D01*
X447758Y428163D01*
X447750Y428274D01*
X448072Y429094D01*
X448090Y429159D01*
X448162Y429384D01*
X448359Y430249D01*
X448398Y430284D01*
X448473Y430385D01*
X448554Y430480D01*
X448592Y430546D01*
X448638Y430608D01*
X448709Y430754D01*
X448752Y430830D01*
X448763Y430864D01*
X448784Y430906D01*
X449101Y431712D01*
X449121Y431786D01*
X449151Y431857D01*
X449176Y431979D01*
X449210Y432100D01*
X449216Y432176D01*
X449231Y432251D01*
X449231Y432377D01*
X449240Y432488D01*
X449680Y433251D01*
X449708Y433312D01*
X449812Y433524D01*
X450137Y434350D01*
X450180Y434379D01*
X450269Y434467D01*
X450364Y434549D01*
X450411Y434609D01*
X450465Y434663D01*
X450558Y434797D01*
X450612Y434866D01*
X450628Y434898D01*
X450654Y434936D01*
X451088Y435687D01*
X451119Y435756D01*
X451159Y435822D01*
X451202Y435939D01*
X451254Y436053D01*
X451271Y436128D01*
X451297Y436200D01*
X451316Y436324D01*
X451341Y436433D01*
X451891Y437121D01*
X451927Y437178D01*
X452062Y437372D01*
X452506Y438140D01*
X452553Y438162D01*
X452654Y438237D01*
X452760Y438303D01*
X452816Y438356D01*
X452877Y438401D01*
X452977Y438507D01*
X452994Y438521D01*
X453005Y438535D01*
X453053Y438580D01*
X453073Y438609D01*
X453105Y438643D01*
X453645Y439320D01*
X453687Y439384D01*
X453736Y439443D01*
X453796Y439553D01*
X453864Y439658D01*
X453892Y439730D01*
X453929Y439797D01*
X453966Y439916D01*
X454007Y440020D01*
X454653Y440619D01*
X454697Y440669D01*
X454860Y440842D01*
X455413Y441535D01*
X455463Y441550D01*
X455574Y441608D01*
X455689Y441658D01*
X455751Y441702D01*
X455819Y441738D01*
X455948Y441838D01*
X456019Y441888D01*
X456044Y441914D01*
X456080Y441943D01*
X456716Y442532D01*
X456742Y442562D01*
X456768Y442584D01*
X456789Y442609D01*
X456824Y442640D01*
X456900Y442740D01*
X456983Y442834D01*
X457016Y442892D01*
X457021Y442897D01*
X457024Y442904D01*
X457067Y442961D01*
X457122Y443074D01*
X457178Y443170D01*
X457906Y443666D01*
X457957Y443709D01*
X458143Y443855D01*
X458794Y444459D01*
X458848Y444467D01*
X458965Y444508D01*
X459085Y444539D01*
X459155Y444574D01*
X459228Y444600D01*
X459360Y444675D01*
X459425Y444705D01*
X459432Y444711D01*
X459446Y444718D01*
X459475Y444740D01*
X459517Y444764D01*
X459525Y444769D01*
X459634Y444861D01*
X459748Y444946D01*
X459761Y444961D01*
X459765Y444963D01*
X459788Y444991D01*
X459833Y445028D01*
X459922Y445139D01*
X460017Y445245D01*
X460047Y445297D01*
X460084Y445343D01*
X460149Y445470D01*
X460222Y445592D01*
X460241Y445648D01*
X460268Y445701D01*
X460307Y445838D01*
X460354Y445972D01*
X460362Y446031D01*
X460378Y446088D01*
X460389Y446231D01*
X460409Y446371D01*
X460405Y446431D01*
X460409Y446490D01*
X460392Y446631D01*
X460384Y446773D01*
X460368Y446831D01*
X460361Y446890D01*
X460316Y447025D01*
X460280Y447162D01*
X460251Y447223D01*
X460235Y447272D01*
X460194Y447343D01*
X460138Y447462D01*
X433461Y493670D01*
X433408Y493743D01*
X433363Y493823D01*
X433290Y493907D01*
X433226Y493997D01*
X433159Y494059D01*
X433100Y494128D01*
X433012Y494195D01*
X432931Y494271D01*
X432853Y494319D01*
X432782Y494374D01*
X432682Y494424D01*
X432588Y494482D01*
X432503Y494513D01*
X432421Y494554D01*
X432314Y494582D01*
X432210Y494621D01*
X432120Y494635D01*
X432032Y494658D01*
X431895Y494669D01*
X431812Y494682D01*
X431765Y494680D01*
X431701Y494685D01*
X422275Y494685D01*
X422257Y494683D01*
X422239Y494685D01*
X422057Y494664D01*
X421874Y494645D01*
X421857Y494640D01*
X421840Y494638D01*
X421665Y494581D01*
X421489Y494527D01*
X421474Y494519D01*
X421457Y494513D01*
X421297Y494423D01*
X421135Y494335D01*
X421122Y494324D01*
X421106Y494315D01*
X420967Y494195D01*
X420826Y494078D01*
X420815Y494064D01*
X420802Y494052D01*
X420689Y493907D01*
X420574Y493764D01*
X420566Y493748D01*
X420555Y493734D01*
X420473Y493569D01*
X420388Y493407D01*
X420383Y493390D01*
X420375Y493374D01*
X420328Y493195D01*
X420277Y493020D01*
X420275Y493002D01*
X420271Y492985D01*
X420244Y492654D01*
X420244Y329056D01*
X417675Y329056D01*
X417657Y329054D01*
X417639Y329056D01*
X417457Y329035D01*
X417274Y329016D01*
X417257Y329011D01*
X417240Y329009D01*
X417065Y328952D01*
X416889Y328898D01*
X416874Y328890D01*
X416857Y328884D01*
X416697Y328794D01*
X416535Y328706D01*
X416522Y328695D01*
X416506Y328686D01*
X416367Y328566D01*
X416226Y328449D01*
X416215Y328435D01*
X416201Y328423D01*
X416089Y328278D01*
X415974Y328135D01*
X415966Y328119D01*
X415955Y328105D01*
X415873Y327940D01*
X415788Y327778D01*
X415783Y327761D01*
X415775Y327745D01*
X415728Y327566D01*
X415677Y327391D01*
X415675Y327373D01*
X415671Y327356D01*
X415644Y327025D01*
X415644Y324230D01*
X414720Y322000D01*
X413013Y320293D01*
X410782Y319369D01*
X408368Y319369D01*
X406137Y320293D01*
X405906Y320524D01*
X405886Y320541D01*
X405868Y320561D01*
X405730Y320668D01*
X405595Y320779D01*
X405571Y320791D01*
X405550Y320808D01*
X405393Y320886D01*
X405239Y320968D01*
X405213Y320975D01*
X405189Y320987D01*
X405021Y321032D01*
X404853Y321082D01*
X404826Y321085D01*
X404801Y321092D01*
X404470Y321119D01*
X389980Y321119D01*
X389954Y321116D01*
X389927Y321118D01*
X389753Y321096D01*
X389580Y321079D01*
X389554Y321071D01*
X389528Y321068D01*
X389362Y321012D01*
X389195Y320961D01*
X389171Y320948D01*
X389146Y320939D01*
X388994Y320852D01*
X388841Y320769D01*
X388820Y320752D01*
X388797Y320739D01*
X388544Y320524D01*
X375157Y307137D01*
X375140Y307116D01*
X375119Y307098D01*
X375012Y306960D01*
X374902Y306825D01*
X374889Y306801D01*
X374873Y306780D01*
X374795Y306623D01*
X374713Y306469D01*
X374705Y306444D01*
X374693Y306420D01*
X374648Y306250D01*
X374598Y306083D01*
X374596Y306057D01*
X374589Y306031D01*
X374562Y305700D01*
X374562Y302480D01*
X373222Y301141D01*
X361328Y301141D01*
X359988Y302480D01*
X359988Y315375D01*
X361328Y316714D01*
X371678Y316714D01*
X371704Y316717D01*
X371731Y316715D01*
X371905Y316737D01*
X372078Y316754D01*
X372104Y316762D01*
X372130Y316765D01*
X372296Y316821D01*
X372463Y316872D01*
X372487Y316885D01*
X372512Y316894D01*
X372664Y316981D01*
X372817Y317064D01*
X372838Y317081D01*
X372861Y317094D01*
X373114Y317309D01*
X381394Y325589D01*
X381399Y325596D01*
X381406Y325601D01*
X381526Y325751D01*
X381649Y325900D01*
X381653Y325908D01*
X381658Y325915D01*
X381747Y326086D01*
X381837Y326256D01*
X381840Y326264D01*
X381844Y326272D01*
X381897Y326458D01*
X381952Y326642D01*
X381953Y326651D01*
X381955Y326659D01*
X381971Y326851D01*
X381988Y327043D01*
X381987Y327052D01*
X381988Y327061D01*
X381966Y327250D01*
X381945Y327443D01*
X381942Y327452D01*
X381941Y327460D01*
X381882Y327642D01*
X381824Y327827D01*
X381819Y327835D01*
X381816Y327843D01*
X381721Y328012D01*
X381629Y328179D01*
X381623Y328186D01*
X381619Y328194D01*
X381493Y328340D01*
X381368Y328486D01*
X381361Y328492D01*
X381355Y328499D01*
X381204Y328616D01*
X381052Y328736D01*
X381044Y328740D01*
X381037Y328745D01*
X380865Y328831D01*
X380693Y328918D01*
X380685Y328921D01*
X380677Y328925D01*
X380490Y328975D01*
X380305Y329026D01*
X380297Y329027D01*
X380288Y329029D01*
X379957Y329056D01*
X337229Y329056D01*
X337203Y329054D01*
X337176Y329056D01*
X337002Y329034D01*
X336829Y329016D01*
X336803Y329009D01*
X336776Y329005D01*
X336611Y328949D01*
X336444Y328898D01*
X336420Y328885D01*
X336395Y328877D01*
X336243Y328790D01*
X336090Y328706D01*
X336069Y328689D01*
X336046Y328676D01*
X335793Y328461D01*
X329021Y321689D01*
X327520Y320189D01*
X326927Y319943D01*
X325933Y319531D01*
X322605Y319531D01*
X322579Y319529D01*
X322552Y319531D01*
X322378Y319509D01*
X322204Y319491D01*
X322179Y319484D01*
X322152Y319480D01*
X321987Y319425D01*
X321820Y319373D01*
X321796Y319360D01*
X321771Y319352D01*
X321619Y319265D01*
X321466Y319181D01*
X321445Y319164D01*
X321422Y319151D01*
X321169Y318936D01*
X320938Y318705D01*
X318707Y317781D01*
X316293Y317781D01*
X314062Y318705D01*
X312355Y320412D01*
X311431Y322643D01*
X311431Y325057D01*
X311924Y326248D01*
X311928Y326261D01*
X311934Y326272D01*
X311986Y326453D01*
X312041Y326633D01*
X312042Y326646D01*
X312046Y326659D01*
X312061Y326847D01*
X312079Y327034D01*
X312078Y327047D01*
X312079Y327061D01*
X312057Y327248D01*
X312037Y327434D01*
X312033Y327447D01*
X312032Y327460D01*
X311973Y327640D01*
X311918Y327819D01*
X311911Y327830D01*
X311907Y327843D01*
X311814Y328008D01*
X311724Y328172D01*
X311716Y328182D01*
X311709Y328194D01*
X311586Y328336D01*
X311465Y328480D01*
X311455Y328488D01*
X311446Y328499D01*
X311297Y328614D01*
X311150Y328731D01*
X311138Y328737D01*
X311128Y328745D01*
X310959Y328829D01*
X310792Y328915D01*
X310779Y328919D01*
X310767Y328925D01*
X310584Y328974D01*
X310405Y329025D01*
X310392Y329026D01*
X310378Y329029D01*
X310048Y329056D01*
X270319Y329056D01*
X270319Y492654D01*
X270317Y492672D01*
X270318Y492690D01*
X270297Y492872D01*
X270279Y493055D01*
X270274Y493072D01*
X270272Y493089D01*
X270215Y493264D01*
X270161Y493440D01*
X270152Y493455D01*
X270147Y493472D01*
X270056Y493632D01*
X269969Y493794D01*
X269958Y493807D01*
X269949Y493823D01*
X269829Y493962D01*
X269711Y494103D01*
X269697Y494114D01*
X269686Y494128D01*
X269541Y494240D01*
X269397Y494355D01*
X269382Y494363D01*
X269368Y494374D01*
X269203Y494456D01*
X269040Y494541D01*
X269023Y494546D01*
X269007Y494554D01*
X268829Y494601D01*
X268653Y494652D01*
X268635Y494654D01*
X268618Y494658D01*
X268288Y494685D01*
X261719Y494685D01*
X261628Y494676D01*
X261537Y494677D01*
X261428Y494656D01*
X261318Y494645D01*
X261231Y494619D01*
X261141Y494602D01*
X261039Y494560D01*
X260933Y494527D01*
X260853Y494484D01*
X260769Y494449D01*
X260676Y494388D01*
X260579Y494335D01*
X260509Y494277D01*
X260433Y494227D01*
X260355Y494148D01*
X260270Y494078D01*
X260213Y494007D01*
X260148Y493942D01*
X260070Y493829D01*
X260017Y493764D01*
X259995Y493722D01*
X259959Y493670D01*
X233282Y447462D01*
X233224Y447332D01*
X233158Y447206D01*
X233141Y447149D01*
X233116Y447095D01*
X233085Y446956D01*
X233045Y446820D01*
X233040Y446761D01*
X233026Y446703D01*
X233022Y446560D01*
X233010Y446419D01*
X233017Y446360D01*
X233015Y446300D01*
X233040Y446160D01*
X233056Y446019D01*
X233074Y445962D01*
X233084Y445904D01*
X233135Y445771D01*
X233179Y445635D01*
X233208Y445583D01*
X233229Y445528D01*
X233306Y445408D01*
X233375Y445284D01*
X233414Y445239D01*
X233446Y445189D01*
X233545Y445086D01*
X233637Y444978D01*
X233687Y444938D01*
X233708Y444916D01*
X233713Y444912D01*
X233726Y444899D01*
X233793Y444852D01*
X233895Y444769D01*
X233903Y444764D01*
X233972Y444726D01*
X234035Y444681D01*
X234050Y444674D01*
X234057Y444670D01*
X234132Y444638D01*
X234148Y444630D01*
X234257Y444571D01*
X234331Y444548D01*
X234402Y444516D01*
X234523Y444488D01*
X234631Y444454D01*
X235277Y443855D01*
X235330Y443815D01*
X235514Y443666D01*
X236248Y443167D01*
X236266Y443118D01*
X236333Y443011D01*
X236391Y442901D01*
X236433Y442849D01*
X236439Y442838D01*
X236447Y442830D01*
X236480Y442777D01*
X236591Y442656D01*
X236645Y442589D01*
X236673Y442566D01*
X236702Y442535D01*
X236702Y442534D01*
X236703Y442534D01*
X236704Y442532D01*
X237340Y441943D01*
X237401Y441896D01*
X237456Y441843D01*
X237561Y441775D01*
X237661Y441699D01*
X237730Y441666D01*
X237794Y441625D01*
X237910Y441579D01*
X238011Y441530D01*
X238560Y440842D01*
X238608Y440793D01*
X238767Y440619D01*
X239418Y440016D01*
X239429Y439965D01*
X239479Y439850D01*
X239520Y439732D01*
X239559Y439666D01*
X239589Y439596D01*
X239681Y439460D01*
X239725Y439385D01*
X239749Y439358D01*
X239775Y439320D01*
X240315Y438643D01*
X240369Y438588D01*
X240415Y438527D01*
X240473Y438476D01*
X240477Y438471D01*
X240487Y438463D01*
X240509Y438444D01*
X240596Y438354D01*
X240660Y438311D01*
X240717Y438261D01*
X240825Y438198D01*
X240917Y438135D01*
X241358Y437372D01*
X241397Y437318D01*
X241529Y437121D01*
X242083Y436428D01*
X242086Y436375D01*
X242118Y436254D01*
X242142Y436131D01*
X242170Y436060D01*
X242190Y435987D01*
X242260Y435839D01*
X242293Y435758D01*
X242312Y435728D01*
X242332Y435687D01*
X242766Y434936D01*
X242810Y434874D01*
X242847Y434807D01*
X242928Y434711D01*
X243001Y434609D01*
X243057Y434557D01*
X243106Y434498D01*
X243204Y434420D01*
X243285Y434344D01*
X243608Y433524D01*
X243638Y433464D01*
X243740Y433251D01*
X244183Y432482D01*
X244179Y432430D01*
X244193Y432306D01*
X244197Y432181D01*
X244215Y432106D01*
X244224Y432030D01*
X244271Y431874D01*
X244291Y431789D01*
X244306Y431757D01*
X244319Y431712D01*
X244636Y430906D01*
X244671Y430838D01*
X244697Y430766D01*
X244763Y430659D01*
X244820Y430547D01*
X244868Y430487D01*
X244908Y430422D01*
X244993Y430330D01*
X245062Y430243D01*
X245258Y429384D01*
X245280Y429320D01*
X245348Y429094D01*
X245672Y428268D01*
X245660Y428217D01*
X245655Y428092D01*
X245641Y427968D01*
X245648Y427891D01*
X245645Y427815D01*
X245668Y427654D01*
X245676Y427566D01*
X245686Y427532D01*
X245692Y427487D01*
X245885Y426641D01*
X245910Y426569D01*
X245925Y426494D01*
X245974Y426378D01*
X246014Y426260D01*
X246052Y426193D01*
X246081Y426123D01*
X246152Y426019D01*
X246208Y425923D01*
X246271Y425080D01*
X246295Y424943D01*
X246311Y424806D01*
X246330Y424746D01*
X246341Y424684D01*
X246391Y424555D01*
X246434Y424422D01*
X246465Y424367D01*
X246488Y424309D01*
X246563Y424192D01*
X246630Y424071D01*
X246671Y424023D01*
X246705Y423970D01*
X246802Y423870D01*
X246892Y423765D01*
X246942Y423726D01*
X246986Y423681D01*
X247100Y423602D01*
X247209Y423517D01*
X247266Y423489D01*
X247317Y423453D01*
X247445Y423398D01*
X247569Y423336D01*
X247630Y423319D01*
X247688Y423295D01*
X247824Y423266D01*
X247957Y423230D01*
X248020Y423226D01*
X248082Y423213D01*
X248221Y423212D01*
X248359Y423202D01*
X248421Y423210D01*
X248484Y423210D01*
X248621Y423236D01*
X248758Y423254D01*
X248827Y423277D01*
X248880Y423287D01*
X248954Y423317D01*
X249074Y423356D01*
X249618Y423581D01*
X252032Y423581D01*
X254263Y422657D01*
X255970Y420950D01*
X256894Y418720D01*
X256894Y416305D01*
X255970Y414075D01*
X254263Y412368D01*
X252032Y411444D01*
X249618Y411444D01*
X247848Y412177D01*
X247667Y412232D01*
X247487Y412288D01*
X247475Y412290D01*
X247463Y412293D01*
X247275Y412311D01*
X247087Y412331D01*
X247074Y412330D01*
X247062Y412331D01*
X246874Y412312D01*
X246686Y412295D01*
X246674Y412291D01*
X246661Y412290D01*
X246481Y412233D01*
X246300Y412180D01*
X246289Y412174D01*
X246277Y412170D01*
X246112Y412080D01*
X245945Y411991D01*
X245935Y411983D01*
X245924Y411977D01*
X245780Y411855D01*
X245633Y411735D01*
X245625Y411726D01*
X245616Y411718D01*
X245498Y411570D01*
X245379Y411424D01*
X245373Y411413D01*
X245365Y411403D01*
X245279Y411235D01*
X245190Y411068D01*
X245186Y411055D01*
X245181Y411045D01*
X245164Y410983D01*
X245090Y410752D01*
X245067Y410649D01*
X245028Y410614D01*
X244954Y410513D01*
X244872Y410418D01*
X244834Y410352D01*
X244789Y410290D01*
X244717Y410144D01*
X244674Y410068D01*
X244663Y410033D01*
X244643Y409992D01*
X244327Y409185D01*
X244306Y409111D01*
X244276Y409041D01*
X244251Y408918D01*
X244217Y408798D01*
X244212Y408721D01*
X244197Y408646D01*
X244196Y408521D01*
X244188Y408410D01*
X243748Y407647D01*
X243720Y407585D01*
X243616Y407373D01*
X243292Y406547D01*
X243249Y406518D01*
X243160Y406429D01*
X243065Y406348D01*
X243018Y406288D01*
X242964Y406234D01*
X242871Y406099D01*
X242817Y406030D01*
X242801Y405998D01*
X242775Y405961D01*
X242342Y405210D01*
X242310Y405140D01*
X242270Y405075D01*
X242228Y404957D01*
X242176Y404843D01*
X242159Y404768D01*
X242133Y404696D01*
X242114Y404573D01*
X242089Y404464D01*
X241540Y403775D01*
X241504Y403718D01*
X241369Y403524D01*
X240926Y402755D01*
X240878Y402733D01*
X240777Y402659D01*
X240671Y402592D01*
X240616Y402540D01*
X240554Y402494D01*
X240442Y402375D01*
X240379Y402315D01*
X240358Y402286D01*
X240327Y402252D01*
X239787Y401575D01*
X239745Y401510D01*
X239696Y401452D01*
X239636Y401341D01*
X239568Y401236D01*
X239540Y401165D01*
X239504Y401098D01*
X239467Y400978D01*
X239426Y400874D01*
X238780Y400275D01*
X238735Y400224D01*
X238574Y400052D01*
X238021Y399358D01*
X237971Y399344D01*
X237860Y399285D01*
X237745Y399235D01*
X237682Y399191D01*
X237614Y399156D01*
X237486Y399055D01*
X237415Y399005D01*
X237390Y398979D01*
X237354Y398951D01*
X236718Y398361D01*
X236668Y398303D01*
X236610Y398253D01*
X236535Y398153D01*
X236452Y398059D01*
X236414Y397993D01*
X236367Y397932D01*
X236313Y397819D01*
X236257Y397722D01*
X235529Y397226D01*
X235478Y397183D01*
X235292Y397036D01*
X234642Y396433D01*
X234590Y396425D01*
X234471Y396384D01*
X234351Y396352D01*
X234282Y396318D01*
X234210Y396293D01*
X234068Y396212D01*
X233990Y396173D01*
X233961Y396151D01*
X233921Y396129D01*
X233205Y395640D01*
X233146Y395591D01*
X233082Y395549D01*
X232993Y395462D01*
X232897Y395381D01*
X232849Y395322D01*
X232794Y395268D01*
X232723Y395165D01*
X232654Y395078D01*
X231860Y394695D01*
X231803Y394660D01*
X231597Y394543D01*
X230864Y394043D01*
X230812Y394044D01*
X230689Y394020D01*
X230564Y394007D01*
X230492Y393983D01*
X230416Y393969D01*
X230264Y393911D01*
X230181Y393884D01*
X230150Y393866D01*
X230107Y393850D01*
X229326Y393474D01*
X229261Y393434D01*
X229191Y393402D01*
X229089Y393329D01*
X228982Y393264D01*
X228926Y393212D01*
X228864Y393167D01*
X228779Y393075D01*
X228697Y392999D01*
X227855Y392740D01*
X227793Y392713D01*
X227572Y392629D01*
X226773Y392243D01*
X226722Y392252D01*
X226596Y392247D01*
X226471Y392252D01*
X226396Y392240D01*
X226319Y392237D01*
X226160Y392202D01*
X226074Y392188D01*
X226040Y392175D01*
X225995Y392165D01*
X225167Y391909D01*
X225096Y391880D01*
X225023Y391859D01*
X224911Y391802D01*
X224796Y391753D01*
X224733Y391710D01*
X224664Y391675D01*
X224567Y391597D01*
X224474Y391534D01*
X223603Y391403D01*
X223538Y391386D01*
X223307Y391335D01*
X222459Y391073D01*
X222410Y391089D01*
X222285Y391103D01*
X222162Y391127D01*
X222085Y391126D01*
X222009Y391135D01*
X221847Y391123D01*
X221759Y391123D01*
X221724Y391115D01*
X221678Y391112D01*
X220821Y390983D01*
X220747Y390964D01*
X220671Y390954D01*
X220553Y390914D01*
X220431Y390883D01*
X220362Y390850D01*
X220290Y390826D01*
X220181Y390763D01*
X220081Y390715D01*
X219199Y390715D01*
X219133Y390708D01*
X218897Y390692D01*
X218019Y390559D01*
X217972Y390582D01*
X217852Y390615D01*
X217733Y390656D01*
X217658Y390667D01*
X217584Y390687D01*
X217421Y390700D01*
X217335Y390712D01*
X217299Y390710D01*
X217253Y390714D01*
X216386Y390714D01*
X216310Y390706D01*
X216234Y390708D01*
X216110Y390686D01*
X215985Y390674D01*
X215912Y390651D01*
X215837Y390638D01*
X215721Y390592D01*
X215614Y390559D01*
X214742Y390690D01*
X214675Y390694D01*
X214440Y390713D01*
X213552Y390713D01*
X213510Y390743D01*
X213395Y390793D01*
X213284Y390852D01*
X213211Y390873D01*
X213141Y390904D01*
X212982Y390941D01*
X212898Y390966D01*
X212862Y390969D01*
X212818Y390980D01*
X211960Y391109D01*
X211884Y391113D01*
X211809Y391126D01*
X211683Y391123D01*
X211558Y391129D01*
X211483Y391118D01*
X211406Y391116D01*
X211284Y391088D01*
X211174Y391071D01*
X210332Y391331D01*
X210266Y391344D01*
X210036Y391398D01*
X209158Y391530D01*
X209120Y391566D01*
X209014Y391633D01*
X208914Y391707D01*
X208844Y391740D01*
X208779Y391781D01*
X208628Y391841D01*
X208549Y391878D01*
X208514Y391887D01*
X208471Y391904D01*
X207643Y392159D01*
X207568Y392174D01*
X207495Y392199D01*
X207371Y392214D01*
X207248Y392239D01*
X207172Y392239D01*
X207096Y392249D01*
X206971Y392239D01*
X206859Y392240D01*
X206065Y392622D01*
X206002Y392645D01*
X205783Y392732D01*
X204935Y392994D01*
X204902Y393036D01*
X204808Y393117D01*
X204719Y393205D01*
X204655Y393248D01*
X204597Y393298D01*
X204457Y393380D01*
X204384Y393429D01*
X204351Y393443D01*
X204310Y393466D01*
X204284Y393479D01*
X204150Y393527D01*
X204019Y393584D01*
X203961Y393596D01*
X203906Y393616D01*
X203765Y393638D01*
X203625Y393667D01*
X203566Y393668D01*
X203508Y393677D01*
X203365Y393670D01*
X203223Y393671D01*
X203164Y393660D01*
X203105Y393657D01*
X202967Y393622D01*
X202827Y393595D01*
X202772Y393573D01*
X202715Y393559D01*
X202586Y393497D01*
X202454Y393443D01*
X202405Y393411D01*
X202352Y393385D01*
X202238Y393299D01*
X202119Y393221D01*
X202077Y393179D01*
X202030Y393143D01*
X201935Y393037D01*
X201834Y392936D01*
X201796Y392881D01*
X201762Y392843D01*
X201720Y392772D01*
X201645Y392663D01*
X183902Y361931D01*
X183294Y362351D01*
X183267Y362362D01*
X183245Y362381D01*
X183176Y362401D01*
X183111Y362429D01*
X183082Y362429D01*
X183054Y362437D01*
X182983Y362429D01*
X182912Y362430D01*
X182885Y362418D01*
X182856Y362415D01*
X182794Y362380D01*
X182729Y362352D01*
X182708Y362332D01*
X182683Y362317D01*
X182620Y362240D01*
X182590Y362210D01*
X182586Y362200D01*
X182577Y362189D01*
X173077Y345689D01*
X173053Y345616D01*
X173022Y345546D01*
X173022Y345522D01*
X173014Y345500D01*
X173021Y345424D01*
X173020Y345347D01*
X173029Y345323D01*
X173030Y345302D01*
X173051Y345263D01*
X173070Y345211D01*
X173071Y345205D01*
X173073Y345203D01*
X173077Y345191D01*
X182577Y328691D01*
X182596Y328669D01*
X182609Y328643D01*
X182662Y328595D01*
X182709Y328542D01*
X182735Y328529D01*
X182757Y328510D01*
X182824Y328487D01*
X182888Y328456D01*
X182917Y328455D01*
X182944Y328445D01*
X183016Y328450D01*
X183087Y328447D01*
X183114Y328457D01*
X183143Y328459D01*
X183233Y328501D01*
X183273Y328516D01*
X183281Y328523D01*
X183294Y328529D01*
X183902Y328949D01*
X201645Y298217D01*
X201728Y298101D01*
X201805Y297980D01*
X201846Y297938D01*
X201880Y297889D01*
X201984Y297792D01*
X202083Y297689D01*
X202131Y297656D01*
X202175Y297615D01*
X202296Y297541D01*
X202413Y297459D01*
X202467Y297436D01*
X202518Y297404D01*
X202652Y297355D01*
X202782Y297298D01*
X202840Y297286D01*
X202896Y297266D01*
X203036Y297244D01*
X203176Y297214D01*
X203235Y297213D01*
X203294Y297204D01*
X203436Y297210D01*
X203578Y297208D01*
X203637Y297219D01*
X203696Y297222D01*
X203834Y297256D01*
X203974Y297282D01*
X204037Y297307D01*
X204087Y297319D01*
X204161Y297354D01*
X204284Y297401D01*
X204310Y297414D01*
X204376Y297454D01*
X204447Y297486D01*
X204548Y297559D01*
X204654Y297623D01*
X204711Y297676D01*
X204774Y297721D01*
X204858Y297812D01*
X204941Y297888D01*
X205783Y298148D01*
X205845Y298174D01*
X206065Y298258D01*
X206865Y298643D01*
X206917Y298635D01*
X207042Y298639D01*
X207167Y298634D01*
X207242Y298646D01*
X207319Y298649D01*
X207478Y298684D01*
X207564Y298698D01*
X207598Y298711D01*
X207643Y298721D01*
X208471Y298976D01*
X208542Y299006D01*
X208616Y299026D01*
X208727Y299084D01*
X208842Y299132D01*
X208906Y299175D01*
X208974Y299210D01*
X209072Y299288D01*
X209164Y299351D01*
X210036Y299482D01*
X210100Y299498D01*
X210332Y299549D01*
X211180Y299810D01*
X211229Y299794D01*
X211354Y299780D01*
X211477Y299757D01*
X211553Y299757D01*
X211629Y299749D01*
X211792Y299760D01*
X211879Y299761D01*
X211914Y299768D01*
X211960Y299771D01*
X212818Y299900D01*
X212892Y299919D01*
X212968Y299928D01*
X213086Y299968D01*
X213208Y299999D01*
X213277Y300032D01*
X213349Y300057D01*
X213458Y300119D01*
X213558Y300167D01*
X214440Y300167D01*
X214507Y300174D01*
X214742Y300190D01*
X215620Y300321D01*
X215667Y300298D01*
X215787Y300266D01*
X215906Y300224D01*
X215982Y300213D01*
X216055Y300193D01*
X216218Y300180D01*
X216304Y300168D01*
X216340Y300170D01*
X216386Y300166D01*
X217253Y300166D01*
X217329Y300174D01*
X217406Y300172D01*
X217529Y300193D01*
X217654Y300206D01*
X217727Y300228D01*
X217802Y300242D01*
X217919Y300287D01*
X218025Y300320D01*
X218897Y300188D01*
X218964Y300185D01*
X219199Y300165D01*
X220087Y300165D01*
X220129Y300135D01*
X220244Y300085D01*
X220355Y300026D01*
X220428Y300004D01*
X220498Y299974D01*
X220657Y299936D01*
X220741Y299911D01*
X220776Y299908D01*
X220821Y299897D01*
X221678Y299768D01*
X221755Y299764D01*
X221830Y299751D01*
X221955Y299754D01*
X222080Y299748D01*
X222156Y299759D01*
X222233Y299761D01*
X222355Y299788D01*
X222465Y299805D01*
X223307Y299545D01*
X223373Y299532D01*
X223603Y299477D01*
X224480Y299345D01*
X224518Y299309D01*
X224624Y299242D01*
X224725Y299167D01*
X224794Y299135D01*
X224859Y299094D01*
X225010Y299033D01*
X225089Y298996D01*
X225124Y298988D01*
X225167Y298971D01*
X225995Y298715D01*
X226070Y298700D01*
X226143Y298675D01*
X226267Y298660D01*
X226390Y298635D01*
X226466Y298635D01*
X226542Y298625D01*
X226667Y298634D01*
X226779Y298634D01*
X227572Y298251D01*
X227636Y298228D01*
X227855Y298140D01*
X228703Y297879D01*
X228735Y297837D01*
X228830Y297756D01*
X228918Y297667D01*
X228982Y297624D01*
X229040Y297574D01*
X229180Y297492D01*
X229253Y297443D01*
X229286Y297430D01*
X229326Y297406D01*
X230107Y297030D01*
X230178Y297004D01*
X230247Y296969D01*
X230367Y296935D01*
X230485Y296892D01*
X230561Y296881D01*
X230634Y296860D01*
X230759Y296850D01*
X230869Y296833D01*
X231597Y296337D01*
X231657Y296304D01*
X231860Y296185D01*
X232659Y295800D01*
X232685Y295754D01*
X232767Y295659D01*
X232841Y295558D01*
X232897Y295507D01*
X232947Y295449D01*
X233074Y295346D01*
X233139Y295287D01*
X233169Y295269D01*
X233205Y295240D01*
X233921Y294751D01*
X233989Y294715D01*
X234051Y294670D01*
X234164Y294619D01*
X234275Y294558D01*
X234348Y294536D01*
X234417Y294504D01*
X234540Y294476D01*
X234646Y294443D01*
X235292Y293844D01*
X235346Y293803D01*
X235529Y293654D01*
X236262Y293154D01*
X236281Y293105D01*
X236347Y292999D01*
X236405Y292888D01*
X236454Y292829D01*
X236494Y292764D01*
X236605Y292644D01*
X236660Y292576D01*
X236687Y292553D01*
X236718Y292519D01*
X237354Y291929D01*
X237415Y291883D01*
X237469Y291830D01*
X237574Y291762D01*
X237674Y291686D01*
X237743Y291653D01*
X237807Y291611D01*
X237924Y291565D01*
X238024Y291517D01*
X238574Y290828D01*
X238620Y290780D01*
X238780Y290605D01*
X239430Y290001D01*
X239441Y289950D01*
X239491Y289835D01*
X239532Y289717D01*
X239571Y289651D01*
X239602Y289581D01*
X239693Y289445D01*
X239737Y289370D01*
X239761Y289344D01*
X239787Y289305D01*
X240327Y288628D01*
X240380Y288573D01*
X240427Y288512D01*
X240520Y288429D01*
X240608Y288339D01*
X240671Y288296D01*
X240728Y288245D01*
X240837Y288182D01*
X240929Y288120D01*
X241369Y287356D01*
X241408Y287302D01*
X241540Y287105D01*
X242093Y286411D01*
X242096Y286359D01*
X242129Y286238D01*
X242152Y286115D01*
X242180Y286044D01*
X242200Y285970D01*
X242270Y285823D01*
X242302Y285742D01*
X242322Y285712D01*
X242342Y285670D01*
X242775Y284919D01*
X242820Y284857D01*
X242856Y284790D01*
X242937Y284694D01*
X243010Y284592D01*
X243066Y284540D01*
X243115Y284482D01*
X243213Y284403D01*
X243294Y284327D01*
X243616Y283507D01*
X243647Y283447D01*
X243748Y283233D01*
X244191Y282465D01*
X244187Y282413D01*
X244200Y282288D01*
X244205Y282163D01*
X244223Y282089D01*
X244231Y282013D01*
X244278Y281856D01*
X244298Y281771D01*
X244313Y281739D01*
X244327Y281695D01*
X244643Y280888D01*
X244678Y280820D01*
X244704Y280748D01*
X244769Y280641D01*
X244826Y280529D01*
X244874Y280469D01*
X244914Y280404D01*
X244999Y280312D01*
X245068Y280225D01*
X245264Y279366D01*
X245286Y279302D01*
X245354Y279076D01*
X245678Y278250D01*
X245665Y278199D01*
X245660Y278074D01*
X245646Y277949D01*
X245653Y277873D01*
X245650Y277796D01*
X245673Y277635D01*
X245680Y277548D01*
X245690Y277514D01*
X245697Y277468D01*
X245889Y276623D01*
X245914Y276550D01*
X245929Y276475D01*
X245978Y276360D01*
X246017Y276241D01*
X246055Y276175D01*
X246085Y276104D01*
X246156Y276000D01*
X246211Y275904D01*
X246277Y275025D01*
X246288Y274959D01*
X246322Y274725D01*
X246445Y274186D01*
X246506Y274004D01*
X246566Y273819D01*
X246570Y273812D01*
X246573Y273804D01*
X246670Y273635D01*
X246764Y273469D01*
X246769Y273462D01*
X246773Y273455D01*
X246901Y273310D01*
X247027Y273164D01*
X247033Y273159D01*
X247039Y273153D01*
X247194Y273034D01*
X247345Y272917D01*
X247352Y272914D01*
X247359Y272909D01*
X247533Y272824D01*
X247706Y272738D01*
X247714Y272736D01*
X247721Y272732D01*
X247907Y272684D01*
X248094Y272633D01*
X248103Y272633D01*
X248111Y272631D01*
X248160Y272628D01*
X248425Y272606D01*
X291757Y272606D01*
X291784Y272609D01*
X291811Y272607D01*
X291985Y272629D01*
X292158Y272646D01*
X292184Y272654D01*
X292210Y272657D01*
X292376Y272713D01*
X292543Y272764D01*
X292567Y272777D01*
X292592Y272786D01*
X292743Y272873D01*
X292897Y272956D01*
X292917Y272973D01*
X292941Y272986D01*
X293194Y273201D01*
X293425Y273432D01*
X295655Y274356D01*
X298070Y274356D01*
X300300Y273432D01*
X302007Y271725D01*
X302931Y269495D01*
X302931Y267080D01*
X302105Y265086D01*
X302100Y265069D01*
X302092Y265053D01*
X302042Y264876D01*
X301989Y264701D01*
X301987Y264683D01*
X301982Y264665D01*
X301968Y264482D01*
X301950Y264300D01*
X301952Y264282D01*
X301951Y264264D01*
X301973Y264082D01*
X301992Y263899D01*
X301997Y263882D01*
X302000Y263864D01*
X302057Y263690D01*
X302112Y263515D01*
X302121Y263499D01*
X302126Y263482D01*
X302217Y263323D01*
X302305Y263162D01*
X302317Y263148D01*
X302326Y263132D01*
X302446Y262994D01*
X302564Y262854D01*
X302578Y262842D01*
X302590Y262829D01*
X302736Y262717D01*
X302879Y262603D01*
X302895Y262594D01*
X302909Y262583D01*
X303204Y262432D01*
X303475Y262320D01*
X305182Y260613D01*
X306106Y258382D01*
X306106Y255667D01*
X306092Y255522D01*
X306094Y255509D01*
X306093Y255495D01*
X306115Y255308D01*
X306134Y255122D01*
X306138Y255109D01*
X306140Y255095D01*
X306198Y254916D01*
X306254Y254737D01*
X306260Y254725D01*
X306264Y254712D01*
X306357Y254548D01*
X306447Y254384D01*
X306456Y254374D01*
X306462Y254362D01*
X306585Y254219D01*
X306706Y254076D01*
X306717Y254067D01*
X306726Y254057D01*
X306874Y253942D01*
X307021Y253825D01*
X307033Y253819D01*
X307044Y253810D01*
X307212Y253726D01*
X307379Y253641D01*
X307392Y253637D01*
X307404Y253631D01*
X307586Y253582D01*
X307766Y253531D01*
X307780Y253530D01*
X307793Y253526D01*
X308124Y253499D01*
X310050Y253499D01*
X310077Y253502D01*
X310104Y253500D01*
X310277Y253522D01*
X310451Y253539D01*
X310476Y253547D01*
X310503Y253550D01*
X310669Y253606D01*
X310836Y253657D01*
X310859Y253670D01*
X310885Y253679D01*
X311036Y253766D01*
X311190Y253849D01*
X311210Y253866D01*
X311234Y253879D01*
X311487Y254094D01*
X317186Y259794D01*
X317203Y259815D01*
X317224Y259832D01*
X317331Y259970D01*
X317441Y260105D01*
X317454Y260129D01*
X317470Y260150D01*
X317548Y260307D01*
X317630Y260461D01*
X317638Y260487D01*
X317650Y260511D01*
X317695Y260680D01*
X317745Y260847D01*
X317747Y260874D01*
X317754Y260900D01*
X317781Y261230D01*
X317781Y261557D01*
X318705Y263788D01*
X320412Y265495D01*
X322643Y266419D01*
X325057Y266419D01*
X327288Y265495D01*
X328995Y263788D01*
X329919Y261557D01*
X329919Y259143D01*
X328995Y256912D01*
X327288Y255205D01*
X325057Y254281D01*
X324730Y254281D01*
X324704Y254279D01*
X324677Y254281D01*
X324503Y254259D01*
X324330Y254241D01*
X324304Y254234D01*
X324278Y254230D01*
X324112Y254175D01*
X323945Y254123D01*
X323921Y254110D01*
X323896Y254102D01*
X323744Y254015D01*
X323591Y253931D01*
X323570Y253914D01*
X323547Y253901D01*
X323294Y253686D01*
X315174Y245567D01*
X315157Y245546D01*
X315137Y245528D01*
X315030Y245390D01*
X314919Y245255D01*
X314907Y245231D01*
X314890Y245210D01*
X314812Y245053D01*
X314730Y244899D01*
X314723Y244874D01*
X314711Y244850D01*
X314665Y244680D01*
X314616Y244513D01*
X314613Y244487D01*
X314606Y244461D01*
X314579Y244130D01*
X314579Y242265D01*
X313463Y241149D01*
X313451Y241135D01*
X313438Y241123D01*
X313324Y240979D01*
X313208Y240837D01*
X313199Y240822D01*
X313188Y240808D01*
X313105Y240643D01*
X313019Y240482D01*
X313014Y240465D01*
X313006Y240449D01*
X312956Y240271D01*
X312904Y240096D01*
X312903Y240078D01*
X312898Y240061D01*
X312884Y239878D01*
X312868Y239695D01*
X312870Y239677D01*
X312868Y239659D01*
X312891Y239477D01*
X312911Y239294D01*
X312917Y239277D01*
X312919Y239260D01*
X312977Y239086D01*
X313033Y238911D01*
X313041Y238895D01*
X313047Y238878D01*
X313139Y238719D01*
X313228Y238558D01*
X313239Y238545D01*
X313248Y238529D01*
X313463Y238276D01*
X314579Y237160D01*
X314579Y227265D01*
X313240Y225926D01*
X308955Y225926D01*
X308928Y225923D01*
X308901Y225925D01*
X308728Y225903D01*
X308554Y225886D01*
X308529Y225878D01*
X308502Y225875D01*
X308336Y225819D01*
X308169Y225768D01*
X308146Y225755D01*
X308120Y225746D01*
X307969Y225659D01*
X307815Y225576D01*
X307795Y225559D01*
X307771Y225546D01*
X307580Y225383D01*
X305977Y224719D01*
X294983Y224719D01*
X294705Y224834D01*
X294675Y224843D01*
X294647Y224857D01*
X294482Y224901D01*
X294319Y224951D01*
X294288Y224954D01*
X294258Y224962D01*
X293927Y224989D01*
X289336Y224989D01*
X287749Y225646D01*
X282444Y230951D01*
X282423Y230968D01*
X282406Y230988D01*
X282268Y231095D01*
X282133Y231206D01*
X282109Y231218D01*
X282088Y231235D01*
X281931Y231313D01*
X281777Y231395D01*
X281751Y231402D01*
X281727Y231414D01*
X281558Y231460D01*
X281391Y231509D01*
X281364Y231512D01*
X281338Y231519D01*
X281008Y231546D01*
X274223Y231546D01*
X272883Y232885D01*
X272883Y244780D01*
X274000Y245896D01*
X274011Y245910D01*
X274025Y245922D01*
X274139Y246066D01*
X274255Y246208D01*
X274263Y246223D01*
X274274Y246237D01*
X274358Y246402D01*
X274443Y246563D01*
X274449Y246580D01*
X274457Y246596D01*
X274506Y246773D01*
X274558Y246949D01*
X274560Y246967D01*
X274565Y246984D01*
X274578Y247167D01*
X274595Y247350D01*
X274593Y247368D01*
X274594Y247386D01*
X274571Y247566D01*
X274551Y247751D01*
X274546Y247768D01*
X274544Y247785D01*
X274486Y247958D01*
X274430Y248134D01*
X274421Y248150D01*
X274415Y248167D01*
X274324Y248326D01*
X274235Y248487D01*
X274223Y248500D01*
X274214Y248516D01*
X274000Y248769D01*
X272883Y249885D01*
X272883Y261938D01*
X272881Y261955D01*
X272883Y261973D01*
X272862Y262155D01*
X272843Y262338D01*
X272838Y262355D01*
X272836Y262373D01*
X272779Y262547D01*
X272725Y262723D01*
X272717Y262739D01*
X272711Y262756D01*
X272621Y262916D01*
X272533Y263077D01*
X272522Y263091D01*
X272513Y263106D01*
X272393Y263246D01*
X272276Y263386D01*
X272262Y263398D01*
X272250Y263411D01*
X272105Y263524D01*
X271962Y263639D01*
X271946Y263647D01*
X271932Y263658D01*
X271767Y263740D01*
X271605Y263824D01*
X271588Y263829D01*
X271572Y263837D01*
X271393Y263885D01*
X271218Y263936D01*
X271200Y263937D01*
X271183Y263942D01*
X270852Y263969D01*
X247590Y263969D01*
X247549Y263965D01*
X247508Y263967D01*
X247349Y263945D01*
X247189Y263929D01*
X247150Y263917D01*
X247109Y263911D01*
X246958Y263858D01*
X246804Y263811D01*
X246768Y263791D01*
X246730Y263778D01*
X246592Y263696D01*
X246450Y263619D01*
X246419Y263593D01*
X246384Y263572D01*
X246264Y263464D01*
X246141Y263361D01*
X246115Y263329D01*
X246085Y263302D01*
X245989Y263172D01*
X245889Y263047D01*
X245870Y263011D01*
X245845Y262978D01*
X245720Y262723D01*
X245703Y262690D01*
X245702Y262686D01*
X245699Y262680D01*
X245348Y261786D01*
X245330Y261721D01*
X245258Y261496D01*
X245061Y260631D01*
X245022Y260596D01*
X244947Y260495D01*
X244866Y260400D01*
X244828Y260334D01*
X244782Y260272D01*
X244711Y260126D01*
X244668Y260050D01*
X244657Y260016D01*
X244636Y259974D01*
X244319Y259168D01*
X244299Y259094D01*
X244269Y259023D01*
X244244Y258901D01*
X244210Y258780D01*
X244204Y258704D01*
X244189Y258629D01*
X244189Y258503D01*
X244180Y258392D01*
X243740Y257629D01*
X243712Y257568D01*
X243608Y257356D01*
X243283Y256530D01*
X243240Y256501D01*
X243151Y256413D01*
X243056Y256331D01*
X243009Y256271D01*
X242955Y256217D01*
X242862Y256083D01*
X242808Y256014D01*
X242792Y255982D01*
X242766Y255944D01*
X242332Y255193D01*
X242301Y255124D01*
X242261Y255058D01*
X242218Y254941D01*
X242166Y254827D01*
X242149Y254752D01*
X242123Y254680D01*
X242104Y254556D01*
X242079Y254447D01*
X241529Y253759D01*
X241493Y253702D01*
X241358Y253508D01*
X240914Y252740D01*
X240867Y252718D01*
X240766Y252643D01*
X240660Y252577D01*
X240604Y252524D01*
X240543Y252479D01*
X240431Y252360D01*
X240367Y252300D01*
X240347Y252271D01*
X240315Y252237D01*
X239775Y251560D01*
X239733Y251496D01*
X239684Y251437D01*
X239624Y251327D01*
X239556Y251222D01*
X239528Y251151D01*
X239491Y251083D01*
X239454Y250964D01*
X239413Y250860D01*
X238767Y250261D01*
X238723Y250211D01*
X238560Y250038D01*
X238007Y249345D01*
X237957Y249330D01*
X237846Y249272D01*
X237731Y249222D01*
X237669Y249178D01*
X237601Y249142D01*
X237472Y249042D01*
X237401Y248992D01*
X237376Y248966D01*
X237340Y248937D01*
X236704Y248348D01*
X236653Y248291D01*
X236596Y248240D01*
X236521Y248140D01*
X236437Y248046D01*
X236399Y247980D01*
X236353Y247919D01*
X236299Y247807D01*
X236242Y247710D01*
X235514Y247214D01*
X235463Y247171D01*
X235277Y247025D01*
X234626Y246421D01*
X234577Y246415D01*
X234457Y246373D01*
X234335Y246341D01*
X234268Y246307D01*
X234196Y246283D01*
X234061Y246206D01*
X233995Y246175D01*
X233987Y246169D01*
X233974Y246162D01*
X233947Y246141D01*
X233908Y246119D01*
X233900Y246114D01*
X233789Y246021D01*
X233672Y245934D01*
X233659Y245919D01*
X233655Y245916D01*
X233633Y245891D01*
X233591Y245855D01*
X233500Y245743D01*
X233403Y245635D01*
X233374Y245586D01*
X233339Y245541D01*
X233272Y245413D01*
X233198Y245288D01*
X233180Y245234D01*
X233154Y245184D01*
X233114Y245045D01*
X233066Y244908D01*
X233058Y244851D01*
X233043Y244797D01*
X233031Y244652D01*
X233011Y244509D01*
X233015Y244452D01*
X233010Y244395D01*
X233027Y244251D01*
X233036Y244107D01*
X233051Y244052D01*
X233058Y243996D01*
X233103Y243858D01*
X233140Y243718D01*
X233168Y243659D01*
X233183Y243613D01*
X233224Y243541D01*
X233282Y243418D01*
X251024Y212688D01*
X250397Y212391D01*
X250374Y212374D01*
X250347Y212364D01*
X250295Y212315D01*
X250237Y212272D01*
X250223Y212247D01*
X250202Y212228D01*
X250173Y212162D01*
X250137Y212100D01*
X250134Y212072D01*
X250122Y212046D01*
X250121Y211974D01*
X250112Y211903D01*
X250120Y211876D01*
X250120Y211847D01*
X250155Y211752D01*
X250166Y211712D01*
X250173Y211703D01*
X250177Y211691D01*
X259677Y195191D01*
X259729Y195133D01*
X259775Y195070D01*
X259794Y195059D01*
X259809Y195042D01*
X259879Y195008D01*
X259946Y194968D01*
X259971Y194964D01*
X259988Y194956D01*
X260033Y194954D01*
X260110Y194941D01*
X279110Y194941D01*
X279138Y194946D01*
G37*
G36*
X327233Y332934D02*
X327233Y332934D01*
X327260Y332932D01*
X327433Y332954D01*
X327607Y332971D01*
X327632Y332979D01*
X327659Y332982D01*
X327824Y333038D01*
X327992Y333089D01*
X328015Y333102D01*
X328041Y333111D01*
X328192Y333198D01*
X328346Y333281D01*
X328366Y333298D01*
X328390Y333311D01*
X328643Y333526D01*
X329065Y333949D01*
X329082Y333970D01*
X329103Y333987D01*
X329209Y334125D01*
X329320Y334260D01*
X329333Y334284D01*
X329349Y334305D01*
X329427Y334461D01*
X329509Y334616D01*
X329517Y334642D01*
X329529Y334666D01*
X329574Y334835D01*
X329624Y335002D01*
X329626Y335029D01*
X329633Y335055D01*
X329660Y335385D01*
X329660Y344878D01*
X331000Y346218D01*
X347880Y346218D01*
X349220Y344878D01*
X349220Y334963D01*
X349222Y334945D01*
X349220Y334927D01*
X349241Y334745D01*
X349260Y334562D01*
X349265Y334545D01*
X349267Y334527D01*
X349324Y334353D01*
X349378Y334177D01*
X349386Y334161D01*
X349392Y334144D01*
X349482Y333984D01*
X349570Y333823D01*
X349581Y333809D01*
X349590Y333794D01*
X349710Y333654D01*
X349827Y333514D01*
X349841Y333503D01*
X349853Y333489D01*
X349998Y333376D01*
X350141Y333261D01*
X350157Y333253D01*
X350171Y333242D01*
X350336Y333160D01*
X350498Y333076D01*
X350515Y333071D01*
X350531Y333063D01*
X350710Y333015D01*
X350885Y332964D01*
X350903Y332963D01*
X350920Y332958D01*
X351251Y332931D01*
X415925Y332931D01*
X415943Y332933D01*
X415961Y332932D01*
X416143Y332953D01*
X416326Y332971D01*
X416343Y332976D01*
X416360Y332978D01*
X416535Y333035D01*
X416711Y333089D01*
X416726Y333098D01*
X416743Y333103D01*
X416903Y333194D01*
X417065Y333281D01*
X417078Y333292D01*
X417094Y333301D01*
X417233Y333421D01*
X417374Y333539D01*
X417385Y333553D01*
X417399Y333564D01*
X417511Y333709D01*
X417626Y333853D01*
X417634Y333868D01*
X417645Y333882D01*
X417727Y334047D01*
X417812Y334210D01*
X417817Y334227D01*
X417825Y334243D01*
X417872Y334421D01*
X417923Y334597D01*
X417925Y334615D01*
X417929Y334632D01*
X417956Y334963D01*
X417956Y407572D01*
X417953Y407603D01*
X417955Y407634D01*
X417933Y407803D01*
X417916Y407972D01*
X417907Y408002D01*
X417903Y408033D01*
X417802Y408349D01*
X417794Y408368D01*
X417794Y410782D01*
X417802Y410801D01*
X417811Y410831D01*
X417825Y410859D01*
X417869Y411024D01*
X417918Y411186D01*
X417921Y411217D01*
X417929Y411248D01*
X417956Y411578D01*
X417956Y488950D01*
X417954Y488968D01*
X417956Y488986D01*
X417935Y489168D01*
X417916Y489351D01*
X417911Y489368D01*
X417909Y489385D01*
X417852Y489560D01*
X417798Y489736D01*
X417790Y489751D01*
X417784Y489768D01*
X417694Y489928D01*
X417606Y490090D01*
X417595Y490103D01*
X417586Y490119D01*
X417466Y490258D01*
X417349Y490399D01*
X417335Y490410D01*
X417323Y490424D01*
X417178Y490536D01*
X417035Y490651D01*
X417019Y490659D01*
X417005Y490670D01*
X416840Y490752D01*
X416678Y490837D01*
X416661Y490842D01*
X416645Y490850D01*
X416466Y490897D01*
X416291Y490948D01*
X416273Y490950D01*
X416256Y490954D01*
X415925Y490981D01*
X274638Y490981D01*
X274620Y490979D01*
X274602Y490981D01*
X274420Y490960D01*
X274237Y490941D01*
X274220Y490936D01*
X274202Y490934D01*
X274028Y490877D01*
X273852Y490823D01*
X273836Y490815D01*
X273819Y490809D01*
X273659Y490719D01*
X273498Y490631D01*
X273484Y490620D01*
X273469Y490611D01*
X273329Y490491D01*
X273189Y490374D01*
X273178Y490360D01*
X273164Y490348D01*
X273051Y490203D01*
X272936Y490060D01*
X272928Y490044D01*
X272917Y490030D01*
X272835Y489865D01*
X272751Y489703D01*
X272746Y489686D01*
X272738Y489670D01*
X272690Y489491D01*
X272639Y489316D01*
X272638Y489298D01*
X272633Y489281D01*
X272606Y488950D01*
X272606Y334963D01*
X272608Y334945D01*
X272607Y334927D01*
X272628Y334745D01*
X272646Y334562D01*
X272651Y334545D01*
X272653Y334527D01*
X272710Y334353D01*
X272764Y334177D01*
X272773Y334161D01*
X272778Y334144D01*
X272869Y333984D01*
X272956Y333823D01*
X272967Y333809D01*
X272976Y333794D01*
X273096Y333654D01*
X273214Y333514D01*
X273228Y333503D01*
X273239Y333489D01*
X273384Y333376D01*
X273528Y333261D01*
X273543Y333253D01*
X273557Y333242D01*
X273722Y333160D01*
X273885Y333076D01*
X273902Y333071D01*
X273918Y333063D01*
X274096Y333015D01*
X274272Y332964D01*
X274290Y332963D01*
X274307Y332958D01*
X274638Y332931D01*
X327206Y332931D01*
X327233Y332934D01*
G37*
%LPC*%
G36*
X381380Y349531D02*
X381380Y349531D01*
X379150Y350455D01*
X377443Y352162D01*
X377012Y353202D01*
X377001Y353222D01*
X376994Y353243D01*
X376906Y353400D01*
X376822Y353557D01*
X376808Y353574D01*
X376797Y353594D01*
X376679Y353730D01*
X376565Y353868D01*
X376548Y353882D01*
X376533Y353899D01*
X376392Y354008D01*
X376253Y354121D01*
X376233Y354132D01*
X376215Y354145D01*
X376055Y354225D01*
X375896Y354308D01*
X375875Y354315D01*
X375855Y354325D01*
X375682Y354371D01*
X375510Y354421D01*
X375488Y354423D01*
X375466Y354429D01*
X375135Y354456D01*
X337278Y354456D01*
X335691Y355114D01*
X324191Y366614D01*
X323534Y368201D01*
X323534Y442155D01*
X323532Y442173D01*
X323533Y442191D01*
X323512Y442373D01*
X323494Y442556D01*
X323489Y442573D01*
X323487Y442590D01*
X323430Y442765D01*
X323376Y442941D01*
X323367Y442956D01*
X323362Y442973D01*
X323271Y443133D01*
X323184Y443295D01*
X323173Y443308D01*
X323164Y443324D01*
X323044Y443463D01*
X322926Y443604D01*
X322912Y443615D01*
X322901Y443629D01*
X322756Y443741D01*
X322612Y443856D01*
X322597Y443864D01*
X322583Y443875D01*
X322418Y443957D01*
X322255Y444042D01*
X322238Y444047D01*
X322222Y444055D01*
X322044Y444102D01*
X321868Y444153D01*
X321850Y444155D01*
X321833Y444159D01*
X321503Y444186D01*
X313429Y444186D01*
X312089Y445526D01*
X312089Y462406D01*
X313429Y463746D01*
X330805Y463746D01*
X330814Y463747D01*
X330823Y463746D01*
X331015Y463767D01*
X331206Y463786D01*
X331215Y463788D01*
X331224Y463789D01*
X331406Y463847D01*
X331591Y463904D01*
X331599Y463908D01*
X331607Y463911D01*
X331776Y464004D01*
X331945Y464096D01*
X331952Y464101D01*
X331960Y464106D01*
X332108Y464231D01*
X332254Y464353D01*
X332260Y464360D01*
X332267Y464366D01*
X332386Y464517D01*
X332507Y464667D01*
X332511Y464675D01*
X332516Y464682D01*
X332603Y464853D01*
X332692Y465024D01*
X332695Y465033D01*
X332699Y465041D01*
X332750Y465226D01*
X332804Y465411D01*
X332804Y465420D01*
X332807Y465429D01*
X332821Y465621D01*
X332836Y465813D01*
X332835Y465821D01*
X332836Y465830D01*
X332812Y466021D01*
X332789Y466212D01*
X332787Y466221D01*
X332786Y466230D01*
X332725Y466411D01*
X332665Y466595D01*
X332660Y466603D01*
X332657Y466611D01*
X332562Y466777D01*
X332467Y466946D01*
X332461Y466953D01*
X332456Y466960D01*
X332242Y467213D01*
X331405Y468050D01*
X330481Y470280D01*
X330481Y472695D01*
X331405Y474925D01*
X333112Y476632D01*
X335343Y477556D01*
X335939Y477556D01*
X335970Y477559D01*
X336001Y477557D01*
X336171Y477579D01*
X336340Y477596D01*
X336370Y477605D01*
X336401Y477609D01*
X336717Y477711D01*
X337177Y477902D01*
X348623Y477902D01*
X350397Y477167D01*
X355532Y472032D01*
X356267Y470258D01*
X356267Y465777D01*
X356269Y465759D01*
X356267Y465741D01*
X356288Y465559D01*
X356307Y465376D01*
X356312Y465359D01*
X356314Y465342D01*
X356371Y465167D01*
X356425Y464991D01*
X356433Y464976D01*
X356439Y464959D01*
X356529Y464799D01*
X356617Y464637D01*
X356628Y464624D01*
X356637Y464608D01*
X356757Y464469D01*
X356874Y464328D01*
X356888Y464317D01*
X356900Y464303D01*
X357045Y464191D01*
X357188Y464076D01*
X357204Y464068D01*
X357218Y464057D01*
X357383Y463975D01*
X357545Y463890D01*
X357562Y463885D01*
X357578Y463877D01*
X357757Y463830D01*
X357932Y463779D01*
X357950Y463777D01*
X357967Y463773D01*
X358298Y463746D01*
X367451Y463746D01*
X368791Y462406D01*
X368791Y445526D01*
X367354Y444089D01*
X367337Y444068D01*
X367316Y444051D01*
X367209Y443913D01*
X367099Y443777D01*
X367086Y443754D01*
X367070Y443732D01*
X366992Y443576D01*
X366910Y443422D01*
X366902Y443396D01*
X366890Y443372D01*
X366845Y443203D01*
X366795Y443036D01*
X366793Y443009D01*
X366786Y442983D01*
X366759Y442652D01*
X366759Y380853D01*
X366761Y380826D01*
X366759Y380799D01*
X366781Y380625D01*
X366799Y380452D01*
X366806Y380426D01*
X366810Y380400D01*
X366865Y380234D01*
X366917Y380067D01*
X366930Y380043D01*
X366938Y380018D01*
X366990Y379927D01*
X368019Y377445D01*
X368019Y377443D01*
X368020Y377434D01*
X368019Y377425D01*
X368040Y377231D01*
X368059Y377042D01*
X368061Y377034D01*
X368062Y377025D01*
X368120Y376841D01*
X368177Y376657D01*
X368181Y376649D01*
X368184Y376641D01*
X368276Y376473D01*
X368369Y376303D01*
X368374Y376296D01*
X368379Y376288D01*
X368503Y376141D01*
X368626Y375994D01*
X368633Y375988D01*
X368639Y375981D01*
X368791Y375862D01*
X368940Y375742D01*
X368948Y375737D01*
X368955Y375732D01*
X369128Y375644D01*
X369297Y375556D01*
X369306Y375554D01*
X369314Y375550D01*
X369500Y375498D01*
X369684Y375445D01*
X369693Y375444D01*
X369702Y375442D01*
X369895Y375427D01*
X370086Y375412D01*
X370094Y375413D01*
X370103Y375412D01*
X370296Y375436D01*
X370485Y375459D01*
X370494Y375461D01*
X370503Y375463D01*
X370686Y375524D01*
X370868Y375584D01*
X370876Y375588D01*
X370884Y375591D01*
X371051Y375687D01*
X371219Y375781D01*
X371226Y375787D01*
X371233Y375792D01*
X371486Y376006D01*
X379526Y384046D01*
X379543Y384067D01*
X379564Y384085D01*
X379671Y384223D01*
X379781Y384358D01*
X379794Y384382D01*
X379810Y384403D01*
X379888Y384560D01*
X379970Y384714D01*
X379978Y384739D01*
X379990Y384763D01*
X380035Y384933D01*
X380085Y385100D01*
X380087Y385126D01*
X380094Y385152D01*
X380121Y385483D01*
X380121Y442652D01*
X380119Y442679D01*
X380121Y442706D01*
X380099Y442880D01*
X380081Y443053D01*
X380074Y443079D01*
X380070Y443105D01*
X380014Y443271D01*
X379963Y443438D01*
X379950Y443462D01*
X379942Y443487D01*
X379855Y443638D01*
X379771Y443792D01*
X379754Y443813D01*
X379741Y443836D01*
X379526Y444089D01*
X378089Y445526D01*
X378089Y462406D01*
X379429Y463746D01*
X400451Y463746D01*
X401791Y462406D01*
X401791Y445526D01*
X400451Y444186D01*
X390790Y444186D01*
X390772Y444184D01*
X390754Y444186D01*
X390572Y444165D01*
X390389Y444146D01*
X390372Y444141D01*
X390355Y444139D01*
X390180Y444082D01*
X390004Y444028D01*
X389989Y444020D01*
X389972Y444014D01*
X389812Y443924D01*
X389650Y443836D01*
X389637Y443825D01*
X389621Y443816D01*
X389482Y443696D01*
X389341Y443579D01*
X389330Y443565D01*
X389316Y443553D01*
X389204Y443408D01*
X389089Y443265D01*
X389081Y443249D01*
X389070Y443235D01*
X388988Y443070D01*
X388903Y442908D01*
X388898Y442891D01*
X388890Y442875D01*
X388843Y442696D01*
X388792Y442521D01*
X388790Y442503D01*
X388786Y442486D01*
X388759Y442155D01*
X388759Y381993D01*
X388101Y380406D01*
X374256Y366561D01*
X374251Y366554D01*
X374244Y366549D01*
X374123Y366399D01*
X374001Y366250D01*
X373997Y366242D01*
X373992Y366235D01*
X373903Y366065D01*
X373813Y365894D01*
X373810Y365885D01*
X373806Y365878D01*
X373753Y365693D01*
X373698Y365508D01*
X373697Y365499D01*
X373695Y365491D01*
X373679Y365299D01*
X373662Y365107D01*
X373662Y365098D01*
X373662Y365089D01*
X373684Y364900D01*
X373705Y364707D01*
X373708Y364698D01*
X373709Y364690D01*
X373768Y364506D01*
X373826Y364323D01*
X373831Y364315D01*
X373834Y364307D01*
X373929Y364138D01*
X374021Y363971D01*
X374027Y363964D01*
X374031Y363956D01*
X374157Y363810D01*
X374282Y363664D01*
X374289Y363658D01*
X374295Y363651D01*
X374446Y363534D01*
X374598Y363414D01*
X374606Y363410D01*
X374613Y363405D01*
X374785Y363319D01*
X374957Y363232D01*
X374965Y363229D01*
X374973Y363225D01*
X375160Y363175D01*
X375344Y363124D01*
X375353Y363123D01*
X375362Y363121D01*
X375693Y363094D01*
X380272Y363094D01*
X381859Y362436D01*
X382031Y362264D01*
X382052Y362247D01*
X382070Y362226D01*
X382208Y362119D01*
X382343Y362009D01*
X382367Y361996D01*
X382388Y361980D01*
X382545Y361902D01*
X382699Y361820D01*
X382724Y361812D01*
X382748Y361800D01*
X382918Y361755D01*
X383085Y361705D01*
X383111Y361703D01*
X383137Y361696D01*
X383468Y361669D01*
X383795Y361669D01*
X386025Y360745D01*
X387732Y359038D01*
X388656Y356807D01*
X388656Y354393D01*
X387732Y352162D01*
X386025Y350455D01*
X383795Y349531D01*
X381380Y349531D01*
G37*
%LPD*%
G36*
X478651Y393007D02*
X478651Y393007D01*
X478694Y393006D01*
X482687Y393607D01*
X482717Y393618D01*
X482760Y393623D01*
X486619Y394812D01*
X486647Y394827D01*
X486688Y394839D01*
X490326Y396590D01*
X490348Y396607D01*
X490374Y396616D01*
X490427Y396666D01*
X490485Y396710D01*
X490498Y396734D01*
X490518Y396753D01*
X490548Y396819D01*
X490584Y396883D01*
X490587Y396910D01*
X490598Y396935D01*
X490599Y397008D01*
X490608Y397080D01*
X490600Y397106D01*
X490600Y397134D01*
X490564Y397232D01*
X490552Y397271D01*
X490546Y397279D01*
X490542Y397290D01*
X463542Y444090D01*
X463524Y444110D01*
X463513Y444135D01*
X463459Y444184D01*
X463411Y444239D01*
X463386Y444250D01*
X463366Y444269D01*
X463297Y444293D01*
X463231Y444324D01*
X463204Y444326D01*
X463179Y444335D01*
X463106Y444330D01*
X463033Y444333D01*
X463007Y444324D01*
X462980Y444322D01*
X462884Y444278D01*
X462846Y444264D01*
X462839Y444257D01*
X462829Y444253D01*
X459492Y441979D01*
X459470Y441956D01*
X459434Y441933D01*
X456473Y439187D01*
X456454Y439161D01*
X456422Y439133D01*
X453904Y435977D01*
X453889Y435948D01*
X453862Y435915D01*
X451842Y432419D01*
X451832Y432389D01*
X451809Y432352D01*
X450333Y428594D01*
X450328Y428562D01*
X450311Y428522D01*
X449411Y424586D01*
X449411Y424554D01*
X449400Y424512D01*
X449097Y420486D01*
X449100Y420463D01*
X449097Y420443D01*
X449099Y420433D01*
X449097Y420412D01*
X449398Y416385D01*
X449406Y416354D01*
X449409Y416311D01*
X450306Y412375D01*
X450319Y412346D01*
X450328Y412303D01*
X451802Y408544D01*
X451819Y408517D01*
X451834Y408477D01*
X453852Y404980D01*
X453873Y404956D01*
X453894Y404918D01*
X456410Y401760D01*
X456435Y401740D01*
X456461Y401706D01*
X459420Y398958D01*
X459447Y398942D01*
X459478Y398912D01*
X462814Y396636D01*
X462843Y396624D01*
X462878Y396599D01*
X466516Y394846D01*
X466546Y394838D01*
X466585Y394819D01*
X470443Y393627D01*
X470475Y393624D01*
X470516Y393611D01*
X474508Y393008D01*
X474540Y393009D01*
X474582Y393002D01*
X478620Y393001D01*
X478651Y393007D01*
G37*
G36*
X218838Y393002D02*
X218838Y393002D01*
X218869Y393008D01*
X218912Y393008D01*
X222904Y393611D01*
X222934Y393622D01*
X222977Y393627D01*
X226835Y394819D01*
X226863Y394834D01*
X226905Y394846D01*
X230542Y396599D01*
X230567Y396618D01*
X230606Y396636D01*
X233942Y398912D01*
X233964Y398935D01*
X234000Y398958D01*
X236959Y401706D01*
X236978Y401731D01*
X237010Y401760D01*
X239526Y404918D01*
X239541Y404946D01*
X239568Y404980D01*
X241586Y408477D01*
X241596Y408507D01*
X241618Y408544D01*
X243092Y412303D01*
X243098Y412335D01*
X243114Y412375D01*
X244011Y416311D01*
X244012Y416343D01*
X244022Y416385D01*
X244323Y420412D01*
X244319Y420443D01*
X244320Y420459D01*
X244323Y420476D01*
X244322Y420480D01*
X244323Y420486D01*
X244020Y424512D01*
X244011Y424543D01*
X244009Y424586D01*
X243109Y428522D01*
X243096Y428551D01*
X243087Y428594D01*
X241611Y432352D01*
X241593Y432379D01*
X241578Y432419D01*
X239558Y435915D01*
X239537Y435939D01*
X239516Y435977D01*
X236998Y439133D01*
X236973Y439153D01*
X236947Y439187D01*
X233986Y441933D01*
X233959Y441949D01*
X233928Y441979D01*
X230591Y444253D01*
X230566Y444263D01*
X230545Y444280D01*
X230475Y444301D01*
X230408Y444330D01*
X230380Y444330D01*
X230354Y444337D01*
X230282Y444329D01*
X230209Y444329D01*
X230184Y444318D01*
X230157Y444315D01*
X230093Y444279D01*
X230026Y444251D01*
X230007Y444231D01*
X229984Y444218D01*
X229917Y444137D01*
X229888Y444107D01*
X229885Y444098D01*
X229878Y444090D01*
X202878Y397290D01*
X202869Y397264D01*
X202853Y397241D01*
X202838Y397170D01*
X202814Y397101D01*
X202817Y397074D01*
X202811Y397047D01*
X202824Y396976D01*
X202830Y396903D01*
X202843Y396878D01*
X202848Y396852D01*
X202888Y396791D01*
X202922Y396726D01*
X202943Y396709D01*
X202958Y396686D01*
X203044Y396625D01*
X203075Y396600D01*
X203084Y396597D01*
X203094Y396590D01*
X206732Y394839D01*
X206763Y394832D01*
X206801Y394812D01*
X210660Y393623D01*
X210692Y393620D01*
X210733Y393607D01*
X214726Y393006D01*
X214757Y393008D01*
X214800Y393001D01*
X218838Y393002D01*
G37*
G36*
X463138Y246551D02*
X463138Y246551D01*
X463211Y246551D01*
X463236Y246562D01*
X463263Y246565D01*
X463327Y246601D01*
X463394Y246629D01*
X463413Y246649D01*
X463436Y246662D01*
X463504Y246743D01*
X463532Y246773D01*
X463535Y246782D01*
X463542Y246791D01*
X490542Y293591D01*
X490551Y293616D01*
X490567Y293639D01*
X490582Y293710D01*
X490606Y293779D01*
X490603Y293806D01*
X490609Y293833D01*
X490596Y293904D01*
X490590Y293977D01*
X490577Y294002D01*
X490572Y294028D01*
X490532Y294089D01*
X490498Y294154D01*
X490477Y294171D01*
X490462Y294194D01*
X490376Y294255D01*
X490345Y294280D01*
X490336Y294283D01*
X490326Y294290D01*
X486688Y296041D01*
X486657Y296048D01*
X486619Y296068D01*
X482760Y297257D01*
X482728Y297260D01*
X482687Y297273D01*
X478694Y297874D01*
X478663Y297872D01*
X478620Y297879D01*
X474582Y297878D01*
X474551Y297872D01*
X474508Y297872D01*
X470516Y297269D01*
X470486Y297258D01*
X470443Y297253D01*
X466585Y296061D01*
X466557Y296046D01*
X466516Y296034D01*
X462878Y294281D01*
X462853Y294262D01*
X462814Y294244D01*
X459478Y291968D01*
X459456Y291945D01*
X459420Y291922D01*
X456461Y289174D01*
X456442Y289149D01*
X456410Y289120D01*
X453894Y285962D01*
X453879Y285934D01*
X453852Y285900D01*
X451834Y282403D01*
X451824Y282373D01*
X451802Y282336D01*
X450328Y278577D01*
X450322Y278545D01*
X450306Y278505D01*
X449409Y274569D01*
X449408Y274537D01*
X449398Y274495D01*
X449097Y270469D01*
X449101Y270437D01*
X449097Y270394D01*
X449400Y266368D01*
X449409Y266337D01*
X449411Y266294D01*
X450311Y262358D01*
X450324Y262329D01*
X450333Y262286D01*
X451809Y258528D01*
X451827Y258501D01*
X451842Y258461D01*
X453862Y254965D01*
X453883Y254941D01*
X453904Y254903D01*
X456422Y251747D01*
X456447Y251727D01*
X456473Y251693D01*
X459434Y248947D01*
X459461Y248931D01*
X459492Y248901D01*
X462829Y246627D01*
X462854Y246617D01*
X462875Y246600D01*
X462945Y246579D01*
X463012Y246550D01*
X463040Y246551D01*
X463066Y246543D01*
X463138Y246551D01*
G37*
G36*
X230314Y246550D02*
X230314Y246550D01*
X230387Y246547D01*
X230413Y246556D01*
X230440Y246558D01*
X230536Y246602D01*
X230574Y246616D01*
X230581Y246623D01*
X230591Y246627D01*
X233928Y248901D01*
X233950Y248924D01*
X233986Y248947D01*
X236947Y251693D01*
X236966Y251719D01*
X236998Y251747D01*
X239516Y254903D01*
X239531Y254932D01*
X239558Y254965D01*
X241578Y258461D01*
X241588Y258491D01*
X241611Y258528D01*
X243087Y262286D01*
X243092Y262318D01*
X243109Y262358D01*
X244009Y266294D01*
X244009Y266326D01*
X244020Y266368D01*
X244323Y270394D01*
X244319Y270425D01*
X244323Y270469D01*
X244022Y274495D01*
X244014Y274526D01*
X244011Y274569D01*
X243114Y278505D01*
X243101Y278534D01*
X243092Y278577D01*
X241618Y282336D01*
X241601Y282363D01*
X241586Y282403D01*
X239568Y285900D01*
X239547Y285924D01*
X239526Y285962D01*
X237010Y289120D01*
X236985Y289140D01*
X236959Y289174D01*
X234000Y291922D01*
X233973Y291938D01*
X233942Y291968D01*
X230606Y294244D01*
X230577Y294256D01*
X230542Y294281D01*
X226905Y296034D01*
X226874Y296042D01*
X226835Y296061D01*
X222977Y297253D01*
X222945Y297256D01*
X222904Y297269D01*
X218912Y297872D01*
X218880Y297871D01*
X218838Y297878D01*
X214800Y297879D01*
X214769Y297873D01*
X214726Y297874D01*
X210733Y297273D01*
X210703Y297262D01*
X210660Y297257D01*
X206801Y296068D01*
X206773Y296053D01*
X206732Y296041D01*
X203094Y294290D01*
X203072Y294273D01*
X203046Y294264D01*
X202993Y294214D01*
X202935Y294170D01*
X202922Y294146D01*
X202902Y294127D01*
X202872Y294061D01*
X202836Y293997D01*
X202833Y293970D01*
X202822Y293945D01*
X202821Y293872D01*
X202812Y293800D01*
X202820Y293774D01*
X202820Y293746D01*
X202856Y293648D01*
X202868Y293609D01*
X202874Y293601D01*
X202878Y293591D01*
X229878Y246791D01*
X229896Y246770D01*
X229907Y246745D01*
X229961Y246696D01*
X230009Y246642D01*
X230034Y246630D01*
X230054Y246611D01*
X230123Y246587D01*
X230189Y246556D01*
X230216Y246555D01*
X230241Y246545D01*
X230314Y246550D01*
G37*
G36*
X373737Y194946D02*
X373737Y194946D01*
X373764Y194944D01*
X373833Y194966D01*
X373905Y194980D01*
X373927Y194996D01*
X373953Y195004D01*
X374009Y195052D01*
X374069Y195093D01*
X374083Y195116D01*
X374104Y195134D01*
X374137Y195199D01*
X374176Y195260D01*
X374180Y195287D01*
X374192Y195312D01*
X374202Y195416D01*
X374209Y195457D01*
X374207Y195466D01*
X374208Y195477D01*
X373906Y199501D01*
X373898Y199532D01*
X373895Y199575D01*
X372997Y203509D01*
X372984Y203538D01*
X372975Y203581D01*
X371501Y207337D01*
X371484Y207364D01*
X371469Y207405D01*
X369451Y210899D01*
X369430Y210923D01*
X369409Y210961D01*
X366893Y214116D01*
X366868Y214136D01*
X366842Y214171D01*
X363884Y216915D01*
X363857Y216932D01*
X363825Y216962D01*
X360491Y219235D01*
X360462Y219248D01*
X360427Y219273D01*
X356791Y221023D01*
X356760Y221031D01*
X356721Y221051D01*
X352865Y222240D01*
X352834Y222243D01*
X352792Y222257D01*
X348802Y222858D01*
X348770Y222857D01*
X348728Y222864D01*
X344692Y222864D01*
X344661Y222857D01*
X344618Y222858D01*
X340628Y222257D01*
X340598Y222246D01*
X340555Y222240D01*
X336699Y221051D01*
X336671Y221035D01*
X336629Y221023D01*
X332993Y219273D01*
X332968Y219253D01*
X332929Y219235D01*
X329595Y216962D01*
X329572Y216939D01*
X329536Y216915D01*
X326578Y214171D01*
X326560Y214145D01*
X326527Y214116D01*
X324011Y210961D01*
X323997Y210933D01*
X323969Y210899D01*
X321951Y207405D01*
X321941Y207374D01*
X321919Y207337D01*
X320445Y203581D01*
X320439Y203549D01*
X320423Y203509D01*
X319525Y199575D01*
X319524Y199543D01*
X319514Y199501D01*
X319212Y195477D01*
X319216Y195450D01*
X319211Y195423D01*
X319228Y195353D01*
X319237Y195280D01*
X319251Y195256D01*
X319257Y195230D01*
X319300Y195171D01*
X319337Y195108D01*
X319359Y195092D01*
X319375Y195070D01*
X319438Y195033D01*
X319496Y194989D01*
X319523Y194982D01*
X319546Y194968D01*
X319650Y194951D01*
X319689Y194941D01*
X319699Y194943D01*
X319710Y194941D01*
X373710Y194941D01*
X373737Y194946D01*
G37*
%LPC*%
G36*
X484568Y309844D02*
X484568Y309844D01*
X482337Y310768D01*
X480630Y312475D01*
X480051Y313874D01*
X480036Y313901D01*
X480026Y313931D01*
X479941Y314078D01*
X479861Y314228D01*
X479841Y314252D01*
X479825Y314280D01*
X479611Y314533D01*
X463758Y330386D01*
X463733Y330405D01*
X463713Y330429D01*
X463578Y330533D01*
X463446Y330641D01*
X463418Y330655D01*
X463394Y330674D01*
X463099Y330826D01*
X461700Y331405D01*
X459993Y333112D01*
X459069Y335343D01*
X459069Y337757D01*
X459993Y339988D01*
X461700Y341695D01*
X463930Y342619D01*
X466345Y342619D01*
X468575Y341695D01*
X470282Y339988D01*
X470862Y338589D01*
X470876Y338561D01*
X470886Y338532D01*
X470971Y338384D01*
X471052Y338234D01*
X471072Y338210D01*
X471087Y338183D01*
X471302Y337930D01*
X487155Y322077D01*
X487179Y322057D01*
X487200Y322034D01*
X487335Y321930D01*
X487466Y321822D01*
X487494Y321807D01*
X487519Y321788D01*
X487814Y321637D01*
X489213Y321057D01*
X490920Y319350D01*
X491844Y317120D01*
X491844Y314705D01*
X490920Y312475D01*
X489213Y310768D01*
X486982Y309844D01*
X484568Y309844D01*
G37*
%LPD*%
%LPC*%
G36*
X237742Y366331D02*
X237742Y366331D01*
X234101Y367839D01*
X231314Y370626D01*
X229806Y374267D01*
X229806Y378208D01*
X231314Y381849D01*
X234101Y384636D01*
X237742Y386144D01*
X241683Y386144D01*
X245324Y384636D01*
X248111Y381849D01*
X249619Y378208D01*
X249619Y374267D01*
X248111Y370626D01*
X245324Y367839D01*
X241683Y366331D01*
X237742Y366331D01*
G37*
%LPD*%
%LPC*%
G36*
X237742Y340931D02*
X237742Y340931D01*
X234101Y342439D01*
X231314Y345226D01*
X229806Y348867D01*
X229806Y352808D01*
X231314Y356449D01*
X234101Y359236D01*
X237742Y360744D01*
X241683Y360744D01*
X245324Y359236D01*
X248111Y356449D01*
X249619Y352808D01*
X249619Y348867D01*
X248111Y345226D01*
X245324Y342439D01*
X241683Y340931D01*
X237742Y340931D01*
G37*
%LPD*%
%LPC*%
G36*
X237742Y315531D02*
X237742Y315531D01*
X234101Y317039D01*
X231314Y319826D01*
X229806Y323467D01*
X229806Y327408D01*
X231314Y331049D01*
X234101Y333836D01*
X235650Y334478D01*
X237742Y335344D01*
X241683Y335344D01*
X245324Y333836D01*
X248111Y331049D01*
X249619Y327408D01*
X249619Y323467D01*
X248111Y319826D01*
X245324Y317039D01*
X242527Y315880D01*
X241683Y315531D01*
X237742Y315531D01*
G37*
%LPD*%
D10*
X308293Y232213D03*
X308293Y247213D03*
D11*
X280670Y238833D03*
X280670Y255833D03*
D12*
X350275Y308928D03*
X367275Y308928D03*
D13*
X318440Y453966D03*
X329440Y453966D03*
X340440Y453966D03*
X351440Y453966D03*
X362440Y453966D03*
X373440Y453966D03*
X384440Y453966D03*
X395440Y453966D03*
D14*
X280940Y482966D03*
X409940Y482966D03*
D15*
X411190Y385466D03*
D16*
X316440Y338216D03*
X339440Y338216D03*
X405440Y338216D03*
D17*
X511910Y345440D03*
X429310Y202340D03*
X264110Y202340D03*
X181510Y345440D03*
X470610Y416940D03*
X470610Y273940D03*
X346710Y202340D03*
X222810Y273940D03*
X222810Y416940D03*
D18*
X438150Y392113D03*
D19*
X239713Y376238D03*
X239713Y350838D03*
X239713Y325438D03*
D20*
X308798Y245298D02*
X323850Y260350D01*
X308293Y247213D02*
X308798Y245298D01*
D21*
X323850Y260350D03*
X385763Y471488D03*
D22*
X373440Y468690D02*
X373440Y453966D01*
X373440Y468690D02*
X376238Y471488D01*
X385763Y471488D01*
X398462Y471488D02*
X409940Y482966D01*
X398462Y471488D02*
X385763Y471488D01*
D21*
X465138Y336550D03*
X485775Y315913D03*
D23*
X465138Y336550D01*
D21*
X423863Y236538D03*
X439738Y220663D03*
D23*
X423863Y236538D01*
D21*
X300038Y346075D03*
D23*
X307897Y338216D02*
X316440Y338216D01*
X307897Y338216D02*
X300038Y346075D01*
D21*
X385763Y339725D03*
D23*
X387272Y338216D02*
X405440Y338216D01*
X387272Y338216D02*
X385763Y339725D01*
D21*
X336550Y471488D03*
D22*
X351440Y469298D02*
X351440Y453966D01*
X351440Y469298D02*
X347663Y473075D01*
X338138Y473075D01*
X336550Y471488D01*
D21*
X423863Y409575D03*
X257175Y249238D03*
D24*
X469748Y416078D02*
X470610Y416940D01*
D21*
X400050Y242888D03*
D20*
X406400Y249238D02*
X406400Y282575D01*
X406400Y249238D02*
X400050Y242888D01*
X406400Y282575D02*
X436563Y312738D01*
X436563Y368011D02*
X455930Y387378D01*
X455930Y392735D01*
X436563Y368011D02*
X436563Y312738D01*
X455930Y392735D02*
X469748Y406553D01*
D25*
X469748Y416078D01*
D21*
X447675Y250825D03*
D25*
X447675Y251005D01*
D20*
X470610Y273940D01*
D21*
X331788Y230188D03*
D20*
X346710Y215265D01*
D25*
X346710Y202340D01*
D21*
X250825Y417513D03*
D20*
X250253Y416940D01*
X222810Y416940D01*
D25*
X222810Y273940D02*
X223838Y273940D01*
D21*
X296863Y268288D03*
D20*
X229490Y268288D01*
D25*
X223838Y273940D01*
D21*
X300038Y257175D03*
D20*
X293688Y257175D01*
X292345Y255833D01*
D25*
X280670Y255833D01*
D20*
X290195Y229308D02*
X295317Y229308D01*
X290195Y229308D02*
X280670Y238833D01*
D25*
X305118Y229038D02*
X308293Y232213D01*
D20*
X305118Y229038D02*
X295842Y229038D01*
D25*
X295317Y229308D01*
D21*
X382588Y355600D03*
D25*
X327853Y452379D02*
X329440Y453966D01*
D20*
X327853Y452379D02*
X327853Y369060D01*
X338138Y358775D01*
X379413Y358775D02*
X382588Y355600D01*
X379413Y358775D02*
X338138Y358775D01*
D21*
X336550Y379413D03*
D20*
X384440Y382853D02*
X384440Y453966D01*
X384440Y382853D02*
X367506Y365919D01*
X350044Y365919D02*
X336550Y379413D01*
X350044Y365919D02*
X367506Y365919D01*
D21*
X344488Y385763D03*
D20*
X344488Y388938D02*
X340440Y392985D01*
X344488Y388938D02*
X344488Y385763D01*
X340440Y392985D02*
X340440Y453966D01*
D21*
X317500Y323850D03*
D20*
X325074Y323850D02*
X339440Y338216D01*
X325074Y323850D02*
X317500Y323850D01*
D21*
X361950Y376238D03*
D20*
X362440Y376728D02*
X362440Y453966D01*
D25*
X362440Y376728D02*
X361950Y376238D01*
D21*
X409575Y325438D03*
D20*
X370840Y308928D02*
X367275Y308928D01*
X387350Y325438D02*
X409575Y325438D01*
X387350Y325438D02*
X370840Y308928D01*
M02*
