G04 EAGLE Gerber RS-274X export*
G75*
%MOMM*%
%FSLAX34Y34*%
%LPD*%
%INBottom Copper*%
%IPPOS*%
%AMOC8*
5,1,8,0,0,1.08239X$1,22.5*%
G01*
%ADD10R,1.000000X1.100000*%
%ADD11R,1.500000X1.300000*%
%ADD12R,1.399997X0.400000*%
%ADD13R,1.100000X1.000000*%
%ADD14R,1.300000X1.500000*%
%ADD15C,1.000000*%
%ADD16R,0.812800X0.254000*%
%ADD17R,0.254000X0.812800*%
%ADD18R,5.384800X5.384800*%
%ADD19P,1.649562X8X22.500000*%
%ADD20C,1.524000*%
%ADD21C,0.756400*%
%ADD22C,0.406400*%
%ADD23C,0.304800*%
%ADD24C,0.355600*%
%ADD25C,0.254000*%
%ADD26C,0.609600*%

G36*
X279138Y194946D02*
X279138Y194946D01*
X279166Y194944D01*
X279234Y194966D01*
X279305Y194980D01*
X279328Y194996D01*
X279355Y195005D01*
X279410Y195052D01*
X279469Y195093D01*
X279484Y195117D01*
X279506Y195135D01*
X279537Y195200D01*
X279576Y195260D01*
X279581Y195288D01*
X279593Y195314D01*
X279602Y195415D01*
X279609Y195457D01*
X279607Y195467D01*
X279608Y195480D01*
X279551Y196195D01*
X315794Y196195D01*
X315866Y196204D01*
X315937Y196203D01*
X316023Y196224D01*
X316110Y196235D01*
X316177Y196261D01*
X316246Y196278D01*
X316324Y196319D01*
X316406Y196352D01*
X316464Y196394D01*
X316527Y196428D01*
X316592Y196487D01*
X316663Y196538D01*
X316709Y196594D01*
X316762Y196642D01*
X316810Y196716D01*
X316866Y196783D01*
X316896Y196848D01*
X316936Y196909D01*
X316964Y196992D01*
X317001Y197071D01*
X317015Y197142D01*
X317038Y197210D01*
X317060Y197369D01*
X317133Y198341D01*
X317133Y198346D01*
X317133Y198350D01*
X317125Y198504D01*
X317117Y198659D01*
X317115Y198663D01*
X317115Y198667D01*
X317069Y198814D01*
X317032Y198932D01*
X317227Y199788D01*
X317228Y199802D01*
X317233Y199816D01*
X317255Y199975D01*
X317322Y200860D01*
X317395Y200942D01*
X317397Y200945D01*
X317400Y200949D01*
X317471Y201086D01*
X317543Y201223D01*
X317544Y201227D01*
X317546Y201231D01*
X317592Y201385D01*
X317896Y202717D01*
X317896Y202722D01*
X317897Y202725D01*
X317911Y202876D01*
X317927Y203034D01*
X317926Y203038D01*
X317927Y203042D01*
X317902Y203194D01*
X317884Y203316D01*
X318204Y204133D01*
X318208Y204147D01*
X318215Y204160D01*
X318260Y204315D01*
X318458Y205180D01*
X318543Y205249D01*
X318545Y205253D01*
X318548Y205255D01*
X318638Y205380D01*
X318731Y205506D01*
X318732Y205510D01*
X318735Y205513D01*
X318803Y205659D01*
X319302Y206931D01*
X319303Y206935D01*
X319305Y206938D01*
X319343Y207090D01*
X319380Y207239D01*
X319380Y207243D01*
X319381Y207247D01*
X319380Y207405D01*
X319380Y207525D01*
X319818Y208285D01*
X319824Y208298D01*
X319833Y208310D01*
X319901Y208456D01*
X320225Y209282D01*
X320319Y209338D01*
X320322Y209341D01*
X320326Y209343D01*
X320436Y209455D01*
X320544Y209563D01*
X320546Y209567D01*
X320549Y209570D01*
X320638Y209704D01*
X321321Y210887D01*
X321323Y210891D01*
X321325Y210894D01*
X321384Y211037D01*
X321444Y211180D01*
X321445Y211184D01*
X321446Y211188D01*
X321468Y211343D01*
X321486Y211463D01*
X322033Y212149D01*
X322041Y212162D01*
X322051Y212172D01*
X322140Y212306D01*
X322521Y212966D01*
X322565Y213070D01*
X322616Y213170D01*
X322626Y213216D01*
X322644Y213259D01*
X322661Y213370D01*
X322685Y213480D01*
X322684Y213527D01*
X322691Y213574D01*
X322679Y213686D01*
X322676Y213798D01*
X322663Y213843D01*
X322658Y213890D01*
X322618Y213996D01*
X322587Y214103D01*
X322563Y214144D01*
X322547Y214188D01*
X322483Y214281D01*
X322426Y214377D01*
X322378Y214432D01*
X322365Y214449D01*
X322352Y214461D01*
X322319Y214498D01*
X319250Y217567D01*
X319250Y221145D01*
X319641Y221535D01*
X319701Y221613D01*
X319769Y221686D01*
X319798Y221739D01*
X319835Y221786D01*
X319875Y221877D01*
X319923Y221964D01*
X319938Y222023D01*
X319962Y222078D01*
X319977Y222176D01*
X320002Y222272D01*
X320008Y222372D01*
X320012Y222392D01*
X320010Y222405D01*
X320012Y222433D01*
X320012Y249867D01*
X321352Y251207D01*
X372999Y251207D01*
X373117Y251222D01*
X373236Y251229D01*
X373274Y251242D01*
X373315Y251247D01*
X373425Y251290D01*
X373538Y251327D01*
X373573Y251349D01*
X373610Y251364D01*
X373706Y251433D01*
X373807Y251497D01*
X373835Y251527D01*
X373868Y251550D01*
X373944Y251642D01*
X374025Y251729D01*
X374045Y251764D01*
X374070Y251795D01*
X374121Y251903D01*
X374179Y252007D01*
X374189Y252047D01*
X374206Y252083D01*
X374228Y252200D01*
X374258Y252315D01*
X374262Y252375D01*
X374266Y252395D01*
X374264Y252416D01*
X374268Y252476D01*
X374268Y299121D01*
X375608Y300461D01*
X385630Y300461D01*
X386970Y299121D01*
X386970Y296729D01*
X386985Y296611D01*
X386992Y296492D01*
X387005Y296454D01*
X387010Y296413D01*
X387053Y296303D01*
X387090Y296190D01*
X387112Y296155D01*
X387127Y296118D01*
X387196Y296022D01*
X387260Y295921D01*
X387290Y295893D01*
X387313Y295860D01*
X387405Y295784D01*
X387492Y295703D01*
X387527Y295683D01*
X387558Y295658D01*
X387666Y295607D01*
X387770Y295549D01*
X387810Y295539D01*
X387846Y295522D01*
X387963Y295500D01*
X388078Y295470D01*
X388138Y295466D01*
X388158Y295462D01*
X388179Y295464D01*
X388239Y295460D01*
X388744Y295460D01*
X388843Y295472D01*
X388942Y295475D01*
X389000Y295492D01*
X389060Y295500D01*
X389152Y295536D01*
X389247Y295564D01*
X389299Y295594D01*
X389356Y295617D01*
X389436Y295675D01*
X389521Y295725D01*
X389597Y295791D01*
X389613Y295803D01*
X389621Y295813D01*
X389642Y295831D01*
X390423Y296613D01*
X390484Y296691D01*
X390552Y296763D01*
X390581Y296816D01*
X390618Y296864D01*
X390657Y296955D01*
X390705Y297041D01*
X390720Y297100D01*
X390744Y297156D01*
X390760Y297254D01*
X390785Y297349D01*
X390791Y297449D01*
X390794Y297470D01*
X390793Y297482D01*
X390795Y297510D01*
X390795Y310461D01*
X395249Y314915D01*
X395310Y314994D01*
X395378Y315066D01*
X395407Y315119D01*
X395444Y315167D01*
X395483Y315258D01*
X395531Y315344D01*
X395546Y315403D01*
X395570Y315459D01*
X395586Y315557D01*
X395611Y315652D01*
X395617Y315752D01*
X395620Y315773D01*
X395619Y315785D01*
X395621Y315813D01*
X395621Y320700D01*
X396960Y322039D01*
X400749Y322039D01*
X400867Y322054D01*
X400985Y322062D01*
X401024Y322074D01*
X401064Y322079D01*
X401175Y322123D01*
X401288Y322160D01*
X401322Y322181D01*
X401360Y322196D01*
X401456Y322266D01*
X401557Y322330D01*
X401584Y322359D01*
X401617Y322383D01*
X401693Y322475D01*
X401775Y322561D01*
X401794Y322597D01*
X401820Y322628D01*
X401871Y322736D01*
X401928Y322840D01*
X401938Y322879D01*
X401955Y322916D01*
X401978Y323032D01*
X402008Y323148D01*
X402011Y323208D01*
X402015Y323228D01*
X402014Y323248D01*
X402018Y323308D01*
X402018Y341124D01*
X402003Y341242D01*
X401995Y341361D01*
X401983Y341399D01*
X401978Y341440D01*
X401934Y341550D01*
X401897Y341663D01*
X401876Y341698D01*
X401861Y341735D01*
X401791Y341831D01*
X401727Y341932D01*
X401698Y341960D01*
X401674Y341993D01*
X401582Y342069D01*
X401496Y342150D01*
X401460Y342170D01*
X401429Y342195D01*
X401321Y342246D01*
X401217Y342304D01*
X401178Y342314D01*
X401141Y342331D01*
X401025Y342353D01*
X400909Y342383D01*
X400849Y342387D01*
X400829Y342391D01*
X400809Y342389D01*
X400749Y342393D01*
X397635Y342393D01*
X396296Y343733D01*
X396296Y358627D01*
X397451Y359782D01*
X397524Y359877D01*
X397603Y359966D01*
X397621Y360002D01*
X397646Y360034D01*
X397693Y360143D01*
X397747Y360249D01*
X397756Y360288D01*
X397772Y360326D01*
X397791Y360443D01*
X397817Y360559D01*
X397816Y360600D01*
X397822Y360640D01*
X397811Y360758D01*
X397807Y360877D01*
X397796Y360916D01*
X397792Y360956D01*
X397752Y361069D01*
X397719Y361183D01*
X397698Y361217D01*
X397685Y361256D01*
X397618Y361354D01*
X397557Y361457D01*
X397518Y361502D01*
X397506Y361519D01*
X397491Y361532D01*
X397451Y361577D01*
X396296Y362733D01*
X396296Y377627D01*
X397635Y378967D01*
X414530Y378967D01*
X415869Y377627D01*
X415869Y375768D01*
X415884Y375650D01*
X415892Y375531D01*
X415904Y375493D01*
X415909Y375452D01*
X415953Y375342D01*
X415990Y375229D01*
X416011Y375194D01*
X416026Y375157D01*
X416096Y375061D01*
X416160Y374960D01*
X416189Y374932D01*
X416213Y374899D01*
X416305Y374823D01*
X416391Y374742D01*
X416427Y374722D01*
X416458Y374697D01*
X416566Y374646D01*
X416670Y374588D01*
X416709Y374578D01*
X416746Y374561D01*
X416862Y374539D01*
X416978Y374509D01*
X417038Y374505D01*
X417058Y374501D01*
X417078Y374503D01*
X417138Y374499D01*
X426034Y374499D01*
X426132Y374511D01*
X426231Y374514D01*
X426290Y374531D01*
X426350Y374539D01*
X426442Y374575D01*
X426537Y374603D01*
X426589Y374633D01*
X426645Y374656D01*
X426725Y374714D01*
X426811Y374764D01*
X426886Y374830D01*
X426903Y374842D01*
X426911Y374852D01*
X426932Y374871D01*
X427758Y375697D01*
X439652Y375697D01*
X440992Y374357D01*
X440992Y368630D01*
X441004Y368532D01*
X441007Y368433D01*
X441024Y368374D01*
X441032Y368314D01*
X441068Y368222D01*
X441096Y368127D01*
X441126Y368075D01*
X441149Y368019D01*
X441207Y367939D01*
X441257Y367853D01*
X441323Y367778D01*
X441335Y367761D01*
X441345Y367754D01*
X441363Y367732D01*
X447975Y361120D01*
X448054Y361060D01*
X448126Y360992D01*
X448179Y360963D01*
X448227Y360926D01*
X448318Y360886D01*
X448404Y360838D01*
X448463Y360823D01*
X448519Y360799D01*
X448616Y360784D01*
X448691Y360765D01*
X450584Y358871D01*
X450679Y358797D01*
X450769Y358718D01*
X450804Y358700D01*
X450836Y358676D01*
X450946Y358628D01*
X451052Y358574D01*
X451091Y358565D01*
X451127Y358549D01*
X451246Y358531D01*
X451363Y358505D01*
X451402Y358506D01*
X451442Y358500D01*
X451561Y358511D01*
X451667Y358514D01*
X464917Y358514D01*
X466257Y357175D01*
X466257Y345280D01*
X464917Y343941D01*
X452505Y343941D01*
X452387Y343926D01*
X452269Y343918D01*
X452230Y343906D01*
X452190Y343901D01*
X452079Y343857D01*
X451966Y343820D01*
X451932Y343799D01*
X451894Y343784D01*
X451798Y343714D01*
X451697Y343650D01*
X451670Y343621D01*
X451637Y343597D01*
X451561Y343505D01*
X451479Y343419D01*
X451460Y343383D01*
X451434Y343352D01*
X451383Y343244D01*
X451326Y343140D01*
X451316Y343101D01*
X451299Y343064D01*
X451276Y342948D01*
X451246Y342832D01*
X451243Y342772D01*
X451239Y342752D01*
X451240Y342732D01*
X451236Y342672D01*
X451236Y317365D01*
X441972Y308100D01*
X441946Y308091D01*
X441905Y308086D01*
X441795Y308043D01*
X441682Y308006D01*
X441647Y307984D01*
X441610Y307969D01*
X441514Y307900D01*
X441413Y307836D01*
X441385Y307806D01*
X441352Y307783D01*
X441276Y307691D01*
X441195Y307604D01*
X441175Y307569D01*
X441150Y307538D01*
X441099Y307430D01*
X441041Y307326D01*
X441031Y307286D01*
X441014Y307250D01*
X440992Y307133D01*
X440962Y307018D01*
X440958Y306958D01*
X440954Y306938D01*
X440956Y306917D01*
X440952Y306857D01*
X440952Y304998D01*
X439612Y303658D01*
X422718Y303658D01*
X421378Y304998D01*
X421378Y306551D01*
X421361Y306689D01*
X421348Y306828D01*
X421341Y306847D01*
X421338Y306867D01*
X421287Y306996D01*
X421240Y307127D01*
X421229Y307144D01*
X421221Y307163D01*
X421140Y307275D01*
X421062Y307390D01*
X421046Y307404D01*
X421035Y307420D01*
X420927Y307509D01*
X420823Y307601D01*
X420805Y307610D01*
X420790Y307623D01*
X420664Y307682D01*
X420540Y307745D01*
X420520Y307750D01*
X420502Y307758D01*
X420366Y307784D01*
X420230Y307815D01*
X420209Y307814D01*
X420190Y307818D01*
X420051Y307809D01*
X419912Y307805D01*
X419892Y307800D01*
X419872Y307798D01*
X419740Y307756D01*
X419606Y307717D01*
X419589Y307707D01*
X419570Y307700D01*
X419452Y307626D01*
X419332Y307555D01*
X419311Y307537D01*
X419301Y307530D01*
X419287Y307515D01*
X419212Y307449D01*
X410566Y298803D01*
X410505Y298725D01*
X410437Y298653D01*
X410408Y298600D01*
X410371Y298552D01*
X410332Y298461D01*
X410284Y298374D01*
X410269Y298316D01*
X410245Y298260D01*
X410229Y298162D01*
X410204Y298067D01*
X410198Y297967D01*
X410195Y297946D01*
X410196Y297934D01*
X410194Y297906D01*
X410194Y290805D01*
X408855Y289466D01*
X406146Y289466D01*
X406048Y289453D01*
X405949Y289450D01*
X405891Y289434D01*
X405831Y289426D01*
X405739Y289389D01*
X405644Y289362D01*
X405592Y289331D01*
X405535Y289309D01*
X405455Y289251D01*
X405370Y289200D01*
X405294Y289134D01*
X405278Y289122D01*
X405270Y289113D01*
X405249Y289094D01*
X403848Y287693D01*
X403763Y287584D01*
X403675Y287477D01*
X403666Y287458D01*
X403653Y287442D01*
X403598Y287315D01*
X403539Y287189D01*
X403535Y287169D01*
X403527Y287150D01*
X403505Y287012D01*
X403479Y286876D01*
X403480Y286856D01*
X403477Y286836D01*
X403490Y286697D01*
X403499Y286559D01*
X403505Y286540D01*
X403507Y286520D01*
X403554Y286388D01*
X403597Y286257D01*
X403608Y286239D01*
X403615Y286220D01*
X403693Y286105D01*
X403767Y285988D01*
X403782Y285974D01*
X403793Y285957D01*
X403898Y285865D01*
X403999Y285770D01*
X404016Y285760D01*
X404032Y285747D01*
X404156Y285683D01*
X404277Y285616D01*
X404297Y285611D01*
X404315Y285602D01*
X404451Y285572D01*
X404585Y285537D01*
X404613Y285535D01*
X404625Y285532D01*
X404646Y285533D01*
X404746Y285527D01*
X416887Y285527D01*
X418227Y284187D01*
X418227Y278293D01*
X416887Y276953D01*
X405263Y276953D01*
X405165Y276941D01*
X405066Y276938D01*
X405008Y276921D01*
X404948Y276913D01*
X404856Y276877D01*
X404761Y276849D01*
X404709Y276819D01*
X404652Y276796D01*
X404572Y276738D01*
X404487Y276688D01*
X404411Y276622D01*
X404395Y276610D01*
X404387Y276600D01*
X404366Y276581D01*
X397505Y269720D01*
X397432Y269626D01*
X397353Y269537D01*
X397335Y269501D01*
X397310Y269469D01*
X397262Y269359D01*
X397208Y269254D01*
X397200Y269214D01*
X397183Y269177D01*
X397165Y269059D01*
X397139Y268943D01*
X397140Y268903D01*
X397134Y268863D01*
X397145Y268744D01*
X397148Y268626D01*
X397160Y268587D01*
X397163Y268546D01*
X397204Y268434D01*
X397237Y268320D01*
X397257Y268285D01*
X397271Y268247D01*
X397338Y268148D01*
X397398Y268046D01*
X397438Y268001D01*
X397450Y267984D01*
X397465Y267970D01*
X397505Y267925D01*
X403531Y261899D01*
X403610Y261838D01*
X403682Y261770D01*
X403735Y261741D01*
X403783Y261704D01*
X403874Y261664D01*
X403960Y261616D01*
X404019Y261601D01*
X404075Y261577D01*
X404173Y261562D01*
X404268Y261537D01*
X404368Y261531D01*
X404389Y261527D01*
X404401Y261529D01*
X404429Y261527D01*
X416887Y261527D01*
X418227Y260187D01*
X418227Y259993D01*
X418244Y259855D01*
X418257Y259716D01*
X418264Y259697D01*
X418267Y259677D01*
X418318Y259548D01*
X418365Y259417D01*
X418376Y259400D01*
X418384Y259381D01*
X418465Y259269D01*
X418543Y259154D01*
X418559Y259140D01*
X418570Y259124D01*
X418678Y259035D01*
X418782Y258943D01*
X418800Y258934D01*
X418815Y258921D01*
X418941Y258862D01*
X419065Y258799D01*
X419085Y258794D01*
X419103Y258786D01*
X419239Y258760D01*
X419375Y258729D01*
X419396Y258730D01*
X419415Y258726D01*
X419554Y258735D01*
X419693Y258739D01*
X419713Y258744D01*
X419733Y258746D01*
X419865Y258788D01*
X419999Y258827D01*
X420016Y258837D01*
X420035Y258844D01*
X420153Y258918D01*
X420273Y258989D01*
X420294Y259007D01*
X420304Y259014D01*
X420318Y259029D01*
X420393Y259095D01*
X424443Y263144D01*
X424503Y263222D01*
X424571Y263295D01*
X424600Y263348D01*
X424637Y263395D01*
X424677Y263486D01*
X424725Y263573D01*
X424740Y263632D01*
X424764Y263687D01*
X424779Y263785D01*
X424804Y263881D01*
X424810Y263981D01*
X424814Y264001D01*
X424812Y264014D01*
X424814Y264042D01*
X424814Y284153D01*
X468893Y328232D01*
X468953Y328310D01*
X469021Y328382D01*
X469050Y328435D01*
X469087Y328483D01*
X469127Y328574D01*
X469175Y328661D01*
X469190Y328719D01*
X469214Y328775D01*
X469229Y328873D01*
X469254Y328969D01*
X469260Y329069D01*
X469264Y329089D01*
X469262Y329101D01*
X469264Y329129D01*
X469264Y367783D01*
X469252Y367881D01*
X469249Y367981D01*
X469232Y368039D01*
X469224Y368099D01*
X469188Y368191D01*
X469160Y368286D01*
X469130Y368338D01*
X469107Y368395D01*
X469049Y368475D01*
X468999Y368560D01*
X468933Y368635D01*
X468921Y368652D01*
X468911Y368660D01*
X468893Y368681D01*
X450151Y387422D01*
X450073Y387483D01*
X450001Y387551D01*
X449948Y387580D01*
X449900Y387617D01*
X449809Y387656D01*
X449722Y387704D01*
X449664Y387719D01*
X449608Y387743D01*
X449510Y387759D01*
X449414Y387784D01*
X449314Y387790D01*
X449294Y387793D01*
X449282Y387792D01*
X449254Y387794D01*
X448367Y387794D01*
X448269Y387781D01*
X448170Y387778D01*
X448112Y387762D01*
X448052Y387754D01*
X447960Y387717D01*
X447865Y387690D01*
X447812Y387659D01*
X447756Y387637D01*
X447676Y387579D01*
X447591Y387528D01*
X447515Y387462D01*
X447499Y387450D01*
X447491Y387441D01*
X447470Y387422D01*
X442253Y382206D01*
X434047Y382206D01*
X428243Y388009D01*
X428243Y396216D01*
X433460Y401432D01*
X433520Y401510D01*
X433588Y401583D01*
X433617Y401636D01*
X433654Y401683D01*
X433694Y401774D01*
X433742Y401861D01*
X433757Y401920D01*
X433781Y401975D01*
X433796Y402073D01*
X433821Y402169D01*
X433827Y402269D01*
X433831Y402289D01*
X433829Y402302D01*
X433831Y402330D01*
X433831Y416395D01*
X433819Y416494D01*
X433816Y416593D01*
X433799Y416651D01*
X433791Y416711D01*
X433755Y416803D01*
X433727Y416898D01*
X433697Y416950D01*
X433674Y417007D01*
X433616Y417087D01*
X433566Y417172D01*
X433500Y417247D01*
X433488Y417264D01*
X433478Y417272D01*
X433460Y417293D01*
X419293Y431459D01*
X419199Y431532D01*
X419110Y431611D01*
X419074Y431629D01*
X419042Y431654D01*
X418932Y431702D01*
X418827Y431756D01*
X418787Y431764D01*
X418750Y431781D01*
X418632Y431799D01*
X418516Y431825D01*
X418476Y431824D01*
X418436Y431830D01*
X418317Y431819D01*
X418198Y431816D01*
X418160Y431804D01*
X418119Y431801D01*
X418007Y431760D01*
X417893Y431727D01*
X417858Y431707D01*
X417820Y431693D01*
X417721Y431626D01*
X417619Y431566D01*
X417574Y431526D01*
X417557Y431514D01*
X417543Y431499D01*
X417498Y431459D01*
X416267Y430228D01*
X403373Y430228D01*
X402033Y431568D01*
X402033Y443462D01*
X403373Y444802D01*
X416267Y444802D01*
X417607Y443462D01*
X417607Y443103D01*
X417622Y442985D01*
X417629Y442866D01*
X417642Y442828D01*
X417647Y442787D01*
X417690Y442677D01*
X417727Y442564D01*
X417749Y442529D01*
X417764Y442492D01*
X417833Y442396D01*
X417897Y442295D01*
X417927Y442267D01*
X417950Y442234D01*
X418042Y442158D01*
X418129Y442077D01*
X418164Y442057D01*
X418195Y442032D01*
X418303Y441981D01*
X418407Y441923D01*
X418447Y441913D01*
X418483Y441896D01*
X418600Y441874D01*
X418715Y441844D01*
X418775Y441840D01*
X418795Y441836D01*
X418816Y441838D01*
X418876Y441834D01*
X421134Y441834D01*
X442469Y420499D01*
X442469Y402330D01*
X442481Y402232D01*
X442484Y402132D01*
X442501Y402074D01*
X442509Y402014D01*
X442545Y401922D01*
X442573Y401827D01*
X442603Y401775D01*
X442626Y401718D01*
X442684Y401638D01*
X442734Y401553D01*
X442800Y401478D01*
X442812Y401461D01*
X442822Y401453D01*
X442840Y401432D01*
X447470Y396803D01*
X447548Y396742D01*
X447620Y396674D01*
X447673Y396645D01*
X447721Y396608D01*
X447812Y396569D01*
X447899Y396521D01*
X447957Y396506D01*
X448013Y396482D01*
X448111Y396466D01*
X448207Y396441D01*
X448307Y396435D01*
X448327Y396432D01*
X448339Y396433D01*
X448367Y396431D01*
X452639Y396431D01*
X455169Y393901D01*
X455169Y393709D01*
X455181Y393611D01*
X455184Y393511D01*
X455201Y393453D01*
X455209Y393393D01*
X455245Y393301D01*
X455273Y393206D01*
X455303Y393154D01*
X455326Y393097D01*
X455384Y393017D01*
X455434Y392932D01*
X455500Y392857D01*
X455512Y392840D01*
X455522Y392832D01*
X455540Y392811D01*
X474282Y374070D01*
X474689Y373662D01*
X474799Y373577D01*
X474906Y373488D01*
X474925Y373480D01*
X474941Y373467D01*
X475068Y373412D01*
X475194Y373353D01*
X475214Y373349D01*
X475233Y373341D01*
X475370Y373319D01*
X475507Y373293D01*
X475527Y373294D01*
X475547Y373291D01*
X475686Y373304D01*
X475824Y373313D01*
X475843Y373319D01*
X475863Y373321D01*
X475995Y373368D01*
X476126Y373411D01*
X476143Y373422D01*
X476163Y373428D01*
X476278Y373507D01*
X476395Y373581D01*
X476409Y373596D01*
X476426Y373607D01*
X476518Y373711D01*
X476613Y373813D01*
X476623Y373830D01*
X476636Y373845D01*
X476700Y373970D01*
X476767Y374091D01*
X476772Y374111D01*
X476781Y374129D01*
X476811Y374265D01*
X476846Y374399D01*
X476848Y374427D01*
X476851Y374439D01*
X476850Y374459D01*
X476856Y374560D01*
X476856Y389247D01*
X476853Y389271D01*
X476855Y389295D01*
X476833Y389429D01*
X476816Y389563D01*
X476808Y389585D01*
X476804Y389609D01*
X476749Y389733D01*
X476699Y389859D01*
X476685Y389878D01*
X476675Y389900D01*
X476592Y390007D01*
X476513Y390116D01*
X476494Y390131D01*
X476479Y390150D01*
X476372Y390232D01*
X476268Y390319D01*
X476246Y390329D01*
X476227Y390344D01*
X476102Y390397D01*
X475980Y390454D01*
X475956Y390459D01*
X475934Y390468D01*
X475777Y390502D01*
X474467Y390700D01*
X474453Y390701D01*
X474438Y390704D01*
X474278Y390715D01*
X473390Y390715D01*
X473304Y390782D01*
X473300Y390784D01*
X473297Y390786D01*
X473154Y390847D01*
X473012Y390909D01*
X473008Y390909D01*
X473004Y390911D01*
X472847Y390945D01*
X471494Y391149D01*
X471490Y391150D01*
X471486Y391151D01*
X471330Y391153D01*
X471176Y391157D01*
X471172Y391156D01*
X471168Y391156D01*
X471015Y391120D01*
X470897Y391093D01*
X470058Y391352D01*
X470044Y391354D01*
X470031Y391360D01*
X469873Y391394D01*
X468996Y391527D01*
X468920Y391606D01*
X468917Y391608D01*
X468914Y391611D01*
X468781Y391693D01*
X468651Y391775D01*
X468647Y391776D01*
X468643Y391778D01*
X468493Y391835D01*
X467185Y392239D01*
X467181Y392240D01*
X467177Y392242D01*
X467026Y392267D01*
X466872Y392294D01*
X466868Y392294D01*
X466864Y392295D01*
X466713Y392282D01*
X466587Y392272D01*
X465796Y392653D01*
X465782Y392658D01*
X465770Y392666D01*
X465620Y392723D01*
X464772Y392984D01*
X464709Y393074D01*
X464706Y393077D01*
X464703Y393081D01*
X464582Y393183D01*
X464467Y393281D01*
X464464Y393283D01*
X464460Y393286D01*
X464320Y393365D01*
X463087Y393959D01*
X463084Y393960D01*
X463080Y393962D01*
X462933Y394011D01*
X462786Y394060D01*
X462782Y394060D01*
X462778Y394061D01*
X462622Y394072D01*
X462501Y394081D01*
X461776Y394575D01*
X461763Y394582D01*
X461752Y394591D01*
X461611Y394670D01*
X460812Y395055D01*
X460763Y395154D01*
X460760Y395157D01*
X460759Y395161D01*
X460657Y395277D01*
X460555Y395394D01*
X460552Y395397D01*
X460549Y395400D01*
X460422Y395499D01*
X459292Y396270D01*
X459288Y396272D01*
X459285Y396275D01*
X459146Y396345D01*
X459009Y396415D01*
X459005Y396416D01*
X459001Y396418D01*
X458849Y396451D01*
X458730Y396478D01*
X458086Y397075D01*
X458075Y397084D01*
X458065Y397095D01*
X457938Y397194D01*
X457205Y397694D01*
X457171Y397798D01*
X457169Y397802D01*
X457168Y397806D01*
X457084Y397937D01*
X457001Y398067D01*
X456999Y398070D01*
X456996Y398073D01*
X456885Y398190D01*
X455883Y399121D01*
X455879Y399123D01*
X455877Y399127D01*
X455749Y399217D01*
X455624Y399307D01*
X455621Y399308D01*
X455617Y399310D01*
X455473Y399365D01*
X455358Y399410D01*
X454811Y400097D01*
X454800Y400107D01*
X454793Y400119D01*
X454682Y400236D01*
X454032Y400840D01*
X454014Y400948D01*
X454012Y400952D01*
X454012Y400956D01*
X453948Y401099D01*
X453886Y401239D01*
X453883Y401243D01*
X453882Y401246D01*
X453790Y401378D01*
X452937Y402449D01*
X452934Y402451D01*
X452932Y402455D01*
X452822Y402560D01*
X452709Y402670D01*
X452705Y402673D01*
X452702Y402675D01*
X452567Y402752D01*
X452461Y402813D01*
X452022Y403573D01*
X452014Y403585D01*
X452008Y403598D01*
X451916Y403730D01*
X451363Y404424D01*
X451361Y404534D01*
X451360Y404538D01*
X451360Y404542D01*
X451351Y404573D01*
X451350Y404589D01*
X451327Y404659D01*
X451319Y404689D01*
X451278Y404841D01*
X451276Y404844D01*
X451275Y404848D01*
X451204Y404993D01*
X450520Y406178D01*
X450517Y406181D01*
X450516Y406185D01*
X450421Y406308D01*
X450328Y406431D01*
X450324Y406434D01*
X450322Y406437D01*
X450198Y406534D01*
X450104Y406609D01*
X449783Y407426D01*
X449776Y407439D01*
X449772Y407453D01*
X449701Y407597D01*
X449258Y408366D01*
X449272Y408475D01*
X449272Y408479D01*
X449273Y408483D01*
X449254Y408638D01*
X449236Y408790D01*
X449235Y408794D01*
X449234Y408798D01*
X449185Y408952D01*
X448685Y410226D01*
X448683Y410229D01*
X448682Y410233D01*
X448607Y410369D01*
X448533Y410505D01*
X448530Y410508D01*
X448528Y410511D01*
X448421Y410625D01*
X448338Y410714D01*
X448143Y411570D01*
X448138Y411584D01*
X448136Y411598D01*
X448087Y411751D01*
X447763Y412577D01*
X447794Y412683D01*
X447795Y412687D01*
X447796Y412691D01*
X447800Y412844D01*
X447806Y413000D01*
X447805Y413004D01*
X447805Y413009D01*
X447779Y413167D01*
X447475Y414502D01*
X447474Y414506D01*
X447473Y414510D01*
X447419Y414654D01*
X447366Y414800D01*
X447364Y414804D01*
X447362Y414808D01*
X447273Y414936D01*
X447204Y415036D01*
X447139Y415912D01*
X447136Y415926D01*
X447137Y415940D01*
X447111Y416099D01*
X446914Y416964D01*
X446960Y417064D01*
X446961Y417068D01*
X446963Y417072D01*
X446990Y417222D01*
X447018Y417377D01*
X447018Y417381D01*
X447019Y417385D01*
X447017Y417546D01*
X446915Y418910D01*
X446914Y418914D01*
X446915Y418919D01*
X446883Y419071D01*
X446852Y419222D01*
X446850Y419226D01*
X446849Y419230D01*
X446781Y419369D01*
X446727Y419479D01*
X446793Y420355D01*
X446793Y420369D01*
X446795Y420383D01*
X446793Y420544D01*
X446727Y421429D01*
X446788Y421521D01*
X446789Y421525D01*
X446792Y421528D01*
X446842Y421677D01*
X446860Y421727D01*
X446860Y421728D01*
X446861Y421730D01*
X446892Y421821D01*
X446893Y421825D01*
X446894Y421829D01*
X446916Y421989D01*
X447019Y423353D01*
X447019Y423357D01*
X447020Y423361D01*
X447011Y423516D01*
X447003Y423671D01*
X447002Y423675D01*
X447001Y423679D01*
X446956Y423822D01*
X446918Y423944D01*
X447114Y424800D01*
X447115Y424814D01*
X447120Y424828D01*
X447142Y424987D01*
X447209Y425872D01*
X447282Y425953D01*
X447284Y425957D01*
X447287Y425960D01*
X447358Y426098D01*
X447430Y426235D01*
X447431Y426239D01*
X447433Y426243D01*
X447479Y426397D01*
X447784Y427731D01*
X447784Y427735D01*
X447785Y427739D01*
X447800Y427890D01*
X447815Y428047D01*
X447815Y428052D01*
X447815Y428056D01*
X447791Y428207D01*
X447772Y428330D01*
X448093Y429147D01*
X448096Y429161D01*
X448103Y429174D01*
X448149Y429328D01*
X448347Y430193D01*
X448432Y430263D01*
X448434Y430266D01*
X448437Y430269D01*
X448530Y430397D01*
X448620Y430519D01*
X448621Y430523D01*
X448624Y430526D01*
X448692Y430672D01*
X449192Y431946D01*
X449193Y431950D01*
X449195Y431953D01*
X449232Y432102D01*
X449271Y432254D01*
X449271Y432258D01*
X449272Y432262D01*
X449270Y432415D01*
X449270Y432540D01*
X449709Y433300D01*
X449715Y433314D01*
X449723Y433325D01*
X449791Y433471D01*
X450116Y434297D01*
X450210Y434353D01*
X450213Y434356D01*
X450217Y434358D01*
X450326Y434469D01*
X450435Y434578D01*
X450437Y434582D01*
X450440Y434585D01*
X450529Y434719D01*
X451213Y435904D01*
X451215Y435908D01*
X451217Y435911D01*
X451278Y436057D01*
X451337Y436197D01*
X451337Y436201D01*
X451339Y436205D01*
X451361Y436358D01*
X451379Y436480D01*
X451926Y437166D01*
X451934Y437178D01*
X451944Y437189D01*
X452033Y437323D01*
X452477Y438091D01*
X452579Y438132D01*
X452582Y438135D01*
X452586Y438136D01*
X452708Y438228D01*
X452834Y438322D01*
X452837Y438325D01*
X452840Y438327D01*
X452948Y438447D01*
X453802Y439516D01*
X453804Y439520D01*
X453807Y439523D01*
X453887Y439656D01*
X453968Y439788D01*
X453969Y439792D01*
X453971Y439795D01*
X454015Y439942D01*
X454051Y440061D01*
X454695Y440658D01*
X454704Y440669D01*
X454716Y440678D01*
X454824Y440797D01*
X455377Y441490D01*
X455484Y441516D01*
X455488Y441518D01*
X455492Y441519D01*
X455626Y441592D01*
X455765Y441666D01*
X455768Y441668D01*
X455772Y441670D01*
X455896Y441772D01*
X456900Y442703D01*
X456902Y442706D01*
X456906Y442708D01*
X457005Y442828D01*
X457104Y442946D01*
X457106Y442950D01*
X457108Y442953D01*
X457174Y443093D01*
X457227Y443204D01*
X457953Y443698D01*
X457964Y443708D01*
X457977Y443715D01*
X458101Y443817D01*
X458752Y444420D01*
X458861Y444430D01*
X458865Y444431D01*
X458869Y444431D01*
X459016Y444484D01*
X459161Y444535D01*
X459165Y444538D01*
X459169Y444539D01*
X459307Y444621D01*
X460107Y445166D01*
X460161Y445214D01*
X460221Y445253D01*
X460280Y445319D01*
X460345Y445377D01*
X460386Y445436D01*
X460434Y445490D01*
X460475Y445567D01*
X460524Y445640D01*
X460548Y445708D01*
X460581Y445771D01*
X460602Y445857D01*
X460631Y445939D01*
X460638Y446011D01*
X460654Y446081D01*
X460653Y446168D01*
X460661Y446256D01*
X460650Y446327D01*
X460648Y446399D01*
X460625Y446483D01*
X460611Y446570D01*
X460582Y446636D01*
X460563Y446705D01*
X460530Y446772D01*
X460528Y446776D01*
X460525Y446781D01*
X460491Y446850D01*
X433241Y494051D01*
X433177Y494135D01*
X433120Y494224D01*
X433081Y494261D01*
X433048Y494304D01*
X432966Y494370D01*
X432889Y494442D01*
X432841Y494468D01*
X432799Y494502D01*
X432703Y494545D01*
X432610Y494596D01*
X432558Y494609D01*
X432509Y494631D01*
X432404Y494649D01*
X432302Y494675D01*
X432217Y494680D01*
X432195Y494684D01*
X432180Y494683D01*
X432141Y494685D01*
X261279Y494685D01*
X261174Y494672D01*
X261068Y494668D01*
X261016Y494652D01*
X260963Y494645D01*
X260865Y494607D01*
X260764Y494576D01*
X260717Y494548D01*
X260667Y494528D01*
X260582Y494466D01*
X260491Y494412D01*
X260454Y494373D01*
X260410Y494342D01*
X260343Y494260D01*
X260269Y494185D01*
X260221Y494113D01*
X260207Y494097D01*
X260201Y494083D01*
X260179Y494051D01*
X232929Y446850D01*
X232901Y446783D01*
X232864Y446721D01*
X232843Y446650D01*
X232834Y446630D01*
X232831Y446619D01*
X232805Y446556D01*
X232795Y446485D01*
X232775Y446416D01*
X232772Y446328D01*
X232759Y446242D01*
X232766Y446170D01*
X232764Y446098D01*
X232783Y446013D01*
X232792Y445925D01*
X232817Y445858D01*
X232833Y445788D01*
X232872Y445710D01*
X232903Y445627D01*
X232944Y445568D01*
X232976Y445504D01*
X233034Y445438D01*
X233084Y445366D01*
X233139Y445319D01*
X233186Y445265D01*
X233313Y445166D01*
X234113Y444621D01*
X234117Y444619D01*
X234120Y444616D01*
X234257Y444548D01*
X234396Y444476D01*
X234400Y444475D01*
X234404Y444474D01*
X234557Y444440D01*
X234675Y444414D01*
X235319Y443817D01*
X235330Y443808D01*
X235340Y443797D01*
X235467Y443698D01*
X236200Y443199D01*
X236234Y443094D01*
X236236Y443091D01*
X236238Y443087D01*
X236321Y442957D01*
X236404Y442826D01*
X236407Y442823D01*
X236409Y442819D01*
X236520Y442703D01*
X237524Y441772D01*
X237527Y441770D01*
X237530Y441767D01*
X237656Y441677D01*
X237782Y441587D01*
X237786Y441585D01*
X237789Y441583D01*
X237932Y441529D01*
X238049Y441483D01*
X238596Y440797D01*
X238606Y440787D01*
X238614Y440775D01*
X238725Y440658D01*
X239376Y440055D01*
X239394Y439946D01*
X239395Y439943D01*
X239396Y439938D01*
X239460Y439795D01*
X239522Y439655D01*
X239524Y439652D01*
X239526Y439648D01*
X239618Y439516D01*
X240472Y438447D01*
X240475Y438444D01*
X240477Y438440D01*
X240591Y438331D01*
X240700Y438225D01*
X240703Y438223D01*
X240706Y438220D01*
X240840Y438144D01*
X240948Y438083D01*
X241387Y437323D01*
X241396Y437311D01*
X241402Y437298D01*
X241494Y437166D01*
X242047Y436472D01*
X242049Y436362D01*
X242050Y436358D01*
X242050Y436354D01*
X242092Y436203D01*
X242132Y436056D01*
X242134Y436052D01*
X242135Y436048D01*
X242207Y435904D01*
X242891Y434719D01*
X242894Y434716D01*
X242895Y434712D01*
X242989Y434589D01*
X243083Y434466D01*
X243087Y434463D01*
X243089Y434460D01*
X243213Y434363D01*
X243307Y434288D01*
X243629Y433471D01*
X243636Y433458D01*
X243639Y433444D01*
X243711Y433300D01*
X244155Y432532D01*
X244140Y432423D01*
X244140Y432419D01*
X244140Y432415D01*
X244159Y432260D01*
X244176Y432107D01*
X244178Y432103D01*
X244178Y432099D01*
X244228Y431946D01*
X244728Y430672D01*
X244730Y430669D01*
X244731Y430665D01*
X244806Y430530D01*
X244880Y430393D01*
X244883Y430390D01*
X244885Y430387D01*
X244992Y430274D01*
X245076Y430184D01*
X245271Y429328D01*
X245276Y429315D01*
X245278Y429300D01*
X245327Y429147D01*
X245652Y428321D01*
X245621Y428216D01*
X245620Y428212D01*
X245619Y428208D01*
X245615Y428053D01*
X245610Y427898D01*
X245611Y427894D01*
X245610Y427890D01*
X245636Y427731D01*
X245941Y426397D01*
X245943Y426393D01*
X245943Y426389D01*
X245998Y426243D01*
X246050Y426098D01*
X246053Y426095D01*
X246054Y426091D01*
X246145Y425960D01*
X246212Y425863D01*
X246278Y424987D01*
X246281Y424973D01*
X246281Y424958D01*
X246306Y424800D01*
X246512Y423898D01*
X246535Y423836D01*
X246549Y423771D01*
X246590Y423687D01*
X246621Y423600D01*
X246659Y423545D01*
X246688Y423485D01*
X246749Y423414D01*
X246801Y423338D01*
X246851Y423294D01*
X246895Y423243D01*
X246971Y423190D01*
X247041Y423128D01*
X247100Y423098D01*
X247155Y423060D01*
X247242Y423027D01*
X247325Y422985D01*
X247390Y422971D01*
X247452Y422947D01*
X247545Y422937D01*
X247636Y422917D01*
X247702Y422919D01*
X247768Y422912D01*
X247860Y422925D01*
X247953Y422928D01*
X248017Y422947D01*
X248083Y422957D01*
X248235Y423009D01*
X249618Y423581D01*
X252032Y423581D01*
X254263Y422657D01*
X255225Y421695D01*
X255303Y421634D01*
X255375Y421566D01*
X255429Y421537D01*
X255476Y421500D01*
X255567Y421461D01*
X255654Y421413D01*
X255712Y421398D01*
X255768Y421374D01*
X255866Y421358D01*
X255962Y421333D01*
X256062Y421327D01*
X256082Y421324D01*
X256094Y421325D01*
X256122Y421323D01*
X260341Y421323D01*
X262945Y418719D01*
X297959Y383705D01*
X298069Y383620D01*
X298176Y383531D01*
X298194Y383523D01*
X298210Y383510D01*
X298338Y383455D01*
X298464Y383396D01*
X298483Y383392D01*
X298502Y383384D01*
X298640Y383362D01*
X298776Y383336D01*
X298796Y383337D01*
X298816Y383334D01*
X298955Y383347D01*
X299093Y383356D01*
X299113Y383362D01*
X299133Y383364D01*
X299264Y383411D01*
X299396Y383454D01*
X299413Y383465D01*
X299432Y383471D01*
X299547Y383550D01*
X299665Y383624D01*
X299679Y383639D01*
X299695Y383650D01*
X299787Y383754D01*
X299883Y383856D01*
X299892Y383873D01*
X299906Y383888D01*
X299969Y384012D01*
X300036Y384134D01*
X300041Y384154D01*
X300050Y384172D01*
X300081Y384308D01*
X300116Y384442D01*
X300117Y384470D01*
X300120Y384482D01*
X300119Y384502D01*
X300126Y384603D01*
X300126Y391575D01*
X301465Y392914D01*
X301825Y392914D01*
X301943Y392929D01*
X302061Y392937D01*
X302100Y392949D01*
X302140Y392954D01*
X302251Y392998D01*
X302364Y393035D01*
X302398Y393056D01*
X302436Y393071D01*
X302532Y393141D01*
X302633Y393205D01*
X302660Y393234D01*
X302693Y393258D01*
X302769Y393350D01*
X302851Y393436D01*
X302870Y393472D01*
X302896Y393503D01*
X302947Y393611D01*
X303004Y393715D01*
X303014Y393754D01*
X303031Y393791D01*
X303054Y393907D01*
X303084Y394023D01*
X303087Y394083D01*
X303091Y394103D01*
X303091Y394114D01*
X303091Y394117D01*
X303090Y394130D01*
X303094Y394183D01*
X303094Y405014D01*
X308009Y409929D01*
X308070Y410007D01*
X308138Y410080D01*
X308167Y410133D01*
X308204Y410180D01*
X308243Y410271D01*
X308291Y410358D01*
X308306Y410417D01*
X308330Y410472D01*
X308346Y410570D01*
X308371Y410666D01*
X308377Y410766D01*
X308380Y410786D01*
X308379Y410799D01*
X308381Y410827D01*
X308381Y417927D01*
X309720Y419267D01*
X312621Y419267D01*
X312719Y419279D01*
X312818Y419282D01*
X312876Y419299D01*
X312936Y419307D01*
X313028Y419343D01*
X313124Y419371D01*
X313176Y419401D01*
X313232Y419424D01*
X313312Y419482D01*
X313398Y419532D01*
X313473Y419598D01*
X313489Y419610D01*
X313497Y419620D01*
X313518Y419638D01*
X331586Y437706D01*
X342394Y437706D01*
X342512Y437721D01*
X342631Y437729D01*
X342669Y437741D01*
X342710Y437746D01*
X342820Y437790D01*
X342933Y437827D01*
X342968Y437848D01*
X343005Y437863D01*
X343101Y437933D01*
X343202Y437997D01*
X343230Y438026D01*
X343263Y438050D01*
X343339Y438142D01*
X343420Y438228D01*
X343440Y438264D01*
X343465Y438295D01*
X343516Y438403D01*
X343574Y438507D01*
X343584Y438546D01*
X343601Y438583D01*
X343623Y438699D01*
X343653Y438815D01*
X343657Y438875D01*
X343661Y438895D01*
X343659Y438915D01*
X343663Y438975D01*
X343663Y441835D01*
X345003Y443174D01*
X346275Y443174D01*
X346393Y443189D01*
X346511Y443197D01*
X346550Y443209D01*
X346590Y443214D01*
X346701Y443258D01*
X346814Y443295D01*
X346848Y443316D01*
X346886Y443331D01*
X346982Y443401D01*
X347083Y443465D01*
X347110Y443494D01*
X347143Y443518D01*
X347219Y443610D01*
X347301Y443696D01*
X347320Y443732D01*
X347346Y443763D01*
X347397Y443871D01*
X347454Y443975D01*
X347464Y444014D01*
X347481Y444051D01*
X347504Y444167D01*
X347534Y444283D01*
X347537Y444343D01*
X347541Y444363D01*
X347540Y444383D01*
X347544Y444443D01*
X347544Y462932D01*
X347529Y463050D01*
X347521Y463168D01*
X347509Y463207D01*
X347504Y463247D01*
X347460Y463358D01*
X347423Y463471D01*
X347402Y463505D01*
X347387Y463543D01*
X347317Y463639D01*
X347253Y463740D01*
X347224Y463767D01*
X347200Y463800D01*
X347108Y463876D01*
X347022Y463958D01*
X346986Y463977D01*
X346955Y464003D01*
X346847Y464054D01*
X346743Y464111D01*
X346704Y464121D01*
X346667Y464138D01*
X346551Y464161D01*
X346435Y464191D01*
X346375Y464194D01*
X346355Y464198D01*
X346335Y464197D01*
X346275Y464201D01*
X345415Y464201D01*
X344076Y465540D01*
X344076Y466154D01*
X344061Y466272D01*
X344053Y466390D01*
X344041Y466429D01*
X344036Y466469D01*
X343992Y466580D01*
X343955Y466693D01*
X343934Y466727D01*
X343919Y466765D01*
X343849Y466861D01*
X343785Y466962D01*
X343756Y466989D01*
X343732Y467022D01*
X343640Y467098D01*
X343554Y467180D01*
X343518Y467199D01*
X343487Y467225D01*
X343379Y467276D01*
X343275Y467333D01*
X343236Y467343D01*
X343199Y467360D01*
X343083Y467383D01*
X342967Y467413D01*
X342907Y467416D01*
X342887Y467420D01*
X342867Y467419D01*
X342807Y467423D01*
X341594Y467423D01*
X341495Y467410D01*
X341396Y467407D01*
X341338Y467391D01*
X341278Y467383D01*
X341186Y467346D01*
X341091Y467319D01*
X341039Y467288D01*
X340982Y467266D01*
X340902Y467208D01*
X340817Y467157D01*
X340741Y467091D01*
X340725Y467079D01*
X340717Y467070D01*
X340696Y467051D01*
X339988Y466343D01*
X337757Y465419D01*
X335343Y465419D01*
X333112Y466343D01*
X331405Y468050D01*
X330481Y470280D01*
X330481Y472695D01*
X331405Y474925D01*
X333112Y476632D01*
X335343Y477556D01*
X337757Y477556D01*
X339988Y476632D01*
X340696Y475924D01*
X340774Y475863D01*
X340846Y475795D01*
X340899Y475766D01*
X340947Y475729D01*
X341038Y475690D01*
X341125Y475642D01*
X341183Y475627D01*
X341239Y475603D01*
X341337Y475587D01*
X341433Y475562D01*
X341533Y475556D01*
X341553Y475553D01*
X341566Y475554D01*
X341594Y475552D01*
X342807Y475552D01*
X342925Y475567D01*
X343043Y475575D01*
X343082Y475587D01*
X343122Y475592D01*
X343233Y475636D01*
X343346Y475673D01*
X343380Y475694D01*
X343418Y475709D01*
X343514Y475779D01*
X343615Y475843D01*
X343642Y475872D01*
X343675Y475896D01*
X343751Y475988D01*
X343833Y476074D01*
X343852Y476110D01*
X343878Y476141D01*
X343929Y476249D01*
X343986Y476353D01*
X343996Y476392D01*
X344013Y476429D01*
X344036Y476545D01*
X344066Y476661D01*
X344069Y476721D01*
X344073Y476741D01*
X344072Y476761D01*
X344076Y476821D01*
X344076Y477435D01*
X345415Y478774D01*
X358310Y478774D01*
X359649Y477435D01*
X359649Y465540D01*
X358310Y464201D01*
X357450Y464201D01*
X357332Y464186D01*
X357214Y464178D01*
X357175Y464166D01*
X357135Y464161D01*
X357024Y464117D01*
X356911Y464080D01*
X356877Y464059D01*
X356839Y464044D01*
X356743Y463974D01*
X356642Y463910D01*
X356615Y463881D01*
X356582Y463857D01*
X356506Y463765D01*
X356424Y463679D01*
X356405Y463643D01*
X356379Y463612D01*
X356328Y463504D01*
X356271Y463400D01*
X356261Y463361D01*
X356244Y463324D01*
X356221Y463208D01*
X356191Y463092D01*
X356188Y463032D01*
X356184Y463012D01*
X356185Y462992D01*
X356181Y462932D01*
X356181Y444443D01*
X356196Y444325D01*
X356204Y444207D01*
X356216Y444168D01*
X356221Y444128D01*
X356265Y444017D01*
X356302Y443904D01*
X356323Y443870D01*
X356338Y443832D01*
X356408Y443736D01*
X356472Y443635D01*
X356501Y443608D01*
X356525Y443575D01*
X356617Y443499D01*
X356703Y443417D01*
X356739Y443398D01*
X356770Y443372D01*
X356878Y443321D01*
X356982Y443264D01*
X357021Y443254D01*
X357058Y443237D01*
X357174Y443214D01*
X357290Y443184D01*
X357350Y443181D01*
X357370Y443177D01*
X357390Y443178D01*
X357450Y443174D01*
X359897Y443174D01*
X361237Y441835D01*
X361237Y430875D01*
X361249Y430777D01*
X361252Y430678D01*
X361269Y430619D01*
X361277Y430559D01*
X361313Y430467D01*
X361341Y430372D01*
X361371Y430320D01*
X361394Y430264D01*
X361452Y430184D01*
X361502Y430098D01*
X361568Y430023D01*
X361580Y430006D01*
X361590Y429999D01*
X361608Y429977D01*
X362840Y428746D01*
X362840Y413613D01*
X362855Y413495D01*
X362862Y413377D01*
X362875Y413338D01*
X362880Y413298D01*
X362923Y413187D01*
X362960Y413074D01*
X362982Y413040D01*
X362997Y413002D01*
X363066Y412906D01*
X363130Y412805D01*
X363160Y412778D01*
X363183Y412745D01*
X363275Y412669D01*
X363362Y412587D01*
X363397Y412568D01*
X363428Y412542D01*
X363536Y412491D01*
X363640Y412434D01*
X363680Y412424D01*
X363716Y412407D01*
X363833Y412384D01*
X363948Y412354D01*
X364008Y412351D01*
X364028Y412347D01*
X364049Y412348D01*
X364109Y412344D01*
X366175Y412344D01*
X367514Y411005D01*
X367514Y410645D01*
X367529Y410527D01*
X367537Y410409D01*
X367549Y410370D01*
X367554Y410330D01*
X367598Y410219D01*
X367635Y410106D01*
X367656Y410072D01*
X367671Y410034D01*
X367741Y409938D01*
X367805Y409837D01*
X367834Y409810D01*
X367858Y409777D01*
X367950Y409701D01*
X368036Y409619D01*
X368072Y409600D01*
X368103Y409574D01*
X368211Y409523D01*
X368315Y409466D01*
X368354Y409456D01*
X368391Y409439D01*
X368507Y409416D01*
X368623Y409386D01*
X368683Y409383D01*
X368703Y409379D01*
X368723Y409380D01*
X368783Y409376D01*
X377024Y409376D01*
X377142Y409391D01*
X377261Y409399D01*
X377299Y409411D01*
X377340Y409416D01*
X377450Y409460D01*
X377563Y409497D01*
X377598Y409518D01*
X377635Y409533D01*
X377731Y409603D01*
X377832Y409667D01*
X377860Y409696D01*
X377893Y409720D01*
X377969Y409812D01*
X378050Y409898D01*
X378070Y409934D01*
X378095Y409965D01*
X378146Y410073D01*
X378204Y410177D01*
X378214Y410216D01*
X378231Y410253D01*
X378253Y410369D01*
X378283Y410485D01*
X378287Y410545D01*
X378291Y410565D01*
X378289Y410585D01*
X378293Y410645D01*
X378293Y412910D01*
X379633Y414249D01*
X392532Y414249D01*
X392589Y414205D01*
X392661Y414137D01*
X392714Y414108D01*
X392762Y414071D01*
X392853Y414031D01*
X392940Y413983D01*
X392998Y413968D01*
X393054Y413944D01*
X393152Y413929D01*
X393248Y413904D01*
X393348Y413898D01*
X393368Y413894D01*
X393380Y413896D01*
X393408Y413894D01*
X419073Y413894D01*
X419171Y413906D01*
X419270Y413909D01*
X419328Y413926D01*
X419389Y413934D01*
X419481Y413970D01*
X419576Y413998D01*
X419628Y414028D01*
X419684Y414051D01*
X419764Y414109D01*
X419850Y414159D01*
X419925Y414225D01*
X419942Y414237D01*
X419949Y414247D01*
X419970Y414265D01*
X420425Y414720D01*
X422655Y415644D01*
X425070Y415644D01*
X427300Y414720D01*
X429007Y413013D01*
X429931Y410782D01*
X429931Y408368D01*
X429007Y406137D01*
X427300Y404430D01*
X425070Y403506D01*
X422655Y403506D01*
X420425Y404430D01*
X419970Y404885D01*
X419892Y404945D01*
X419820Y405013D01*
X419767Y405042D01*
X419719Y405079D01*
X419628Y405119D01*
X419542Y405167D01*
X419483Y405182D01*
X419427Y405206D01*
X419329Y405221D01*
X419234Y405246D01*
X419134Y405252D01*
X419113Y405256D01*
X419101Y405254D01*
X419073Y405256D01*
X395136Y405256D01*
X395018Y405241D01*
X394899Y405234D01*
X394861Y405221D01*
X394820Y405216D01*
X394710Y405173D01*
X394597Y405136D01*
X394562Y405114D01*
X394525Y405099D01*
X394429Y405030D01*
X394328Y404966D01*
X394300Y404936D01*
X394267Y404913D01*
X394191Y404821D01*
X394110Y404734D01*
X394090Y404699D01*
X394065Y404668D01*
X394014Y404560D01*
X393956Y404456D01*
X393946Y404416D01*
X393929Y404380D01*
X393907Y404263D01*
X393877Y404148D01*
X393873Y404088D01*
X393869Y404068D01*
X393871Y404047D01*
X393867Y403987D01*
X393867Y401015D01*
X392211Y399360D01*
X392138Y399266D01*
X392060Y399177D01*
X392041Y399141D01*
X392016Y399109D01*
X391969Y398999D01*
X391915Y398893D01*
X391906Y398854D01*
X391890Y398817D01*
X391871Y398699D01*
X391845Y398583D01*
X391847Y398543D01*
X391840Y398503D01*
X391851Y398384D01*
X391855Y398265D01*
X391866Y398226D01*
X391870Y398186D01*
X391910Y398074D01*
X391943Y397960D01*
X391964Y397925D01*
X391978Y397887D01*
X392045Y397788D01*
X392105Y397686D01*
X392145Y397641D01*
X392156Y397624D01*
X392172Y397610D01*
X392211Y397565D01*
X393867Y395910D01*
X393867Y384015D01*
X392527Y382676D01*
X386651Y382676D01*
X386533Y382661D01*
X386415Y382653D01*
X386376Y382641D01*
X386336Y382636D01*
X386225Y382592D01*
X386112Y382555D01*
X386078Y382534D01*
X386040Y382519D01*
X385944Y382449D01*
X385843Y382385D01*
X385816Y382356D01*
X385783Y382332D01*
X385707Y382240D01*
X385625Y382154D01*
X385606Y382118D01*
X385580Y382087D01*
X385529Y381979D01*
X385472Y381875D01*
X385462Y381836D01*
X385445Y381799D01*
X385422Y381683D01*
X385392Y381567D01*
X385389Y381507D01*
X385385Y381487D01*
X385386Y381467D01*
X385382Y381407D01*
X385382Y361859D01*
X385386Y361830D01*
X385384Y361800D01*
X385406Y361673D01*
X385422Y361544D01*
X385433Y361516D01*
X385438Y361487D01*
X385491Y361369D01*
X385539Y361248D01*
X385556Y361224D01*
X385569Y361197D01*
X385650Y361096D01*
X385726Y360991D01*
X385749Y360972D01*
X385767Y360949D01*
X385871Y360871D01*
X385971Y360788D01*
X385992Y360778D01*
X387732Y359038D01*
X388656Y356807D01*
X388656Y354393D01*
X387732Y352162D01*
X386025Y350455D01*
X383795Y349531D01*
X382074Y349531D01*
X381976Y349519D01*
X381877Y349516D01*
X381819Y349499D01*
X381759Y349491D01*
X381667Y349455D01*
X381572Y349427D01*
X381520Y349397D01*
X381463Y349374D01*
X381383Y349316D01*
X381298Y349266D01*
X381222Y349200D01*
X381206Y349188D01*
X381198Y349178D01*
X381177Y349160D01*
X377843Y345826D01*
X377783Y345748D01*
X377715Y345676D01*
X377686Y345623D01*
X377649Y345575D01*
X377609Y345484D01*
X377561Y345397D01*
X377546Y345339D01*
X377522Y345283D01*
X377507Y345185D01*
X377482Y345089D01*
X377476Y344989D01*
X377472Y344969D01*
X377474Y344957D01*
X377472Y344929D01*
X377472Y334167D01*
X377450Y334138D01*
X377382Y334066D01*
X377353Y334013D01*
X377316Y333965D01*
X377276Y333874D01*
X377228Y333788D01*
X377213Y333729D01*
X377189Y333673D01*
X377174Y333575D01*
X377149Y333480D01*
X377143Y333380D01*
X377139Y333359D01*
X377141Y333347D01*
X377139Y333319D01*
X377139Y308933D01*
X375799Y307593D01*
X319151Y307593D01*
X319033Y307578D01*
X318914Y307571D01*
X318876Y307558D01*
X318835Y307553D01*
X318725Y307510D01*
X318612Y307473D01*
X318577Y307451D01*
X318540Y307436D01*
X318444Y307367D01*
X318343Y307303D01*
X318315Y307273D01*
X318282Y307250D01*
X318206Y307158D01*
X318125Y307071D01*
X318105Y307036D01*
X318080Y307005D01*
X318029Y306897D01*
X317971Y306793D01*
X317961Y306753D01*
X317944Y306717D01*
X317922Y306600D01*
X317892Y306485D01*
X317888Y306425D01*
X317884Y306405D01*
X317886Y306384D01*
X317882Y306324D01*
X317882Y279684D01*
X316542Y278344D01*
X295211Y278344D01*
X290979Y282577D01*
X290900Y282637D01*
X290828Y282705D01*
X290775Y282734D01*
X290727Y282771D01*
X290636Y282811D01*
X290550Y282859D01*
X290491Y282874D01*
X290435Y282898D01*
X290337Y282913D01*
X290242Y282938D01*
X290142Y282944D01*
X290121Y282948D01*
X290109Y282946D01*
X290081Y282948D01*
X284915Y282948D01*
X284797Y282933D01*
X284679Y282926D01*
X284640Y282913D01*
X284600Y282908D01*
X284489Y282865D01*
X284376Y282828D01*
X284342Y282806D01*
X284304Y282791D01*
X284208Y282722D01*
X284107Y282658D01*
X284080Y282628D01*
X284047Y282605D01*
X283971Y282513D01*
X283889Y282426D01*
X283870Y282391D01*
X283844Y282360D01*
X283793Y282252D01*
X283736Y282148D01*
X283726Y282108D01*
X283709Y282072D01*
X283686Y281955D01*
X283656Y281840D01*
X283653Y281780D01*
X283649Y281760D01*
X283650Y281739D01*
X283646Y281679D01*
X283646Y271763D01*
X283661Y271645D01*
X283669Y271527D01*
X283681Y271488D01*
X283686Y271448D01*
X283730Y271337D01*
X283767Y271224D01*
X283788Y271190D01*
X283803Y271152D01*
X283873Y271056D01*
X283937Y270955D01*
X283966Y270928D01*
X283990Y270895D01*
X284082Y270819D01*
X284168Y270737D01*
X284204Y270718D01*
X284235Y270692D01*
X284343Y270641D01*
X284447Y270584D01*
X284486Y270574D01*
X284523Y270557D01*
X284639Y270534D01*
X284755Y270504D01*
X284815Y270501D01*
X284835Y270497D01*
X284855Y270498D01*
X284915Y270494D01*
X285775Y270494D01*
X287114Y269155D01*
X287114Y257260D01*
X285775Y255921D01*
X284670Y255921D01*
X284552Y255906D01*
X284434Y255898D01*
X284395Y255886D01*
X284355Y255881D01*
X284244Y255837D01*
X284131Y255800D01*
X284097Y255779D01*
X284059Y255764D01*
X283963Y255694D01*
X283862Y255630D01*
X283835Y255601D01*
X283802Y255577D01*
X283726Y255485D01*
X283644Y255399D01*
X283625Y255363D01*
X283599Y255332D01*
X283548Y255224D01*
X283491Y255120D01*
X283481Y255081D01*
X283464Y255044D01*
X283441Y254928D01*
X283411Y254812D01*
X283408Y254752D01*
X283404Y254732D01*
X283405Y254712D01*
X283401Y254652D01*
X283401Y248719D01*
X279601Y244919D01*
X261965Y244919D01*
X261866Y244906D01*
X261767Y244903D01*
X261709Y244887D01*
X261649Y244879D01*
X261557Y244842D01*
X261462Y244815D01*
X261410Y244784D01*
X261353Y244762D01*
X261273Y244704D01*
X261188Y244653D01*
X261112Y244587D01*
X261096Y244575D01*
X261088Y244566D01*
X261067Y244547D01*
X260613Y244093D01*
X258382Y243169D01*
X255968Y243169D01*
X253737Y244093D01*
X252030Y245800D01*
X251106Y248030D01*
X251106Y250445D01*
X252030Y252675D01*
X253737Y254382D01*
X255968Y255306D01*
X258382Y255306D01*
X260613Y254382D01*
X261067Y253928D01*
X261145Y253867D01*
X261217Y253799D01*
X261270Y253770D01*
X261318Y253733D01*
X261409Y253694D01*
X261496Y253646D01*
X261554Y253631D01*
X261610Y253607D01*
X261708Y253591D01*
X261804Y253566D01*
X261904Y253560D01*
X261924Y253557D01*
X261937Y253558D01*
X261965Y253556D01*
X272181Y253556D01*
X272318Y253574D01*
X272457Y253587D01*
X272476Y253594D01*
X272496Y253596D01*
X272625Y253647D01*
X272756Y253694D01*
X272773Y253706D01*
X272792Y253713D01*
X272904Y253795D01*
X273019Y253873D01*
X273033Y253888D01*
X273049Y253900D01*
X273138Y254007D01*
X273230Y254111D01*
X273239Y254129D01*
X273252Y254145D01*
X273311Y254271D01*
X273374Y254395D01*
X273379Y254414D01*
X273388Y254433D01*
X273414Y254569D01*
X273444Y254705D01*
X273443Y254725D01*
X273447Y254745D01*
X273439Y254883D01*
X273434Y255023D01*
X273429Y255042D01*
X273428Y255062D01*
X273385Y255194D01*
X273346Y255328D01*
X273336Y255346D01*
X273330Y255365D01*
X273255Y255483D01*
X273184Y255602D01*
X273166Y255623D01*
X273159Y255634D01*
X273144Y255648D01*
X273078Y255723D01*
X271541Y257260D01*
X271541Y269155D01*
X272880Y270494D01*
X273740Y270494D01*
X273858Y270509D01*
X273976Y270517D01*
X274015Y270529D01*
X274055Y270534D01*
X274166Y270578D01*
X274279Y270615D01*
X274313Y270636D01*
X274351Y270651D01*
X274447Y270721D01*
X274548Y270785D01*
X274575Y270814D01*
X274608Y270838D01*
X274684Y270930D01*
X274766Y271016D01*
X274785Y271052D01*
X274811Y271083D01*
X274862Y271191D01*
X274919Y271295D01*
X274929Y271334D01*
X274946Y271371D01*
X274969Y271487D01*
X274999Y271603D01*
X275002Y271663D01*
X275006Y271683D01*
X275005Y271703D01*
X275009Y271763D01*
X275009Y282834D01*
X274996Y282932D01*
X274993Y283031D01*
X274977Y283090D01*
X274969Y283150D01*
X274933Y283242D01*
X274905Y283337D01*
X274874Y283389D01*
X274852Y283445D01*
X274794Y283525D01*
X274743Y283611D01*
X274677Y283686D01*
X274665Y283703D01*
X274656Y283711D01*
X274637Y283732D01*
X274081Y284288D01*
X274081Y299791D01*
X274066Y299909D01*
X274058Y300027D01*
X274046Y300066D01*
X274041Y300106D01*
X273997Y300217D01*
X273960Y300330D01*
X273939Y300364D01*
X273924Y300402D01*
X273854Y300498D01*
X273790Y300599D01*
X273761Y300626D01*
X273737Y300659D01*
X273645Y300735D01*
X273559Y300817D01*
X273523Y300836D01*
X273492Y300862D01*
X273384Y300913D01*
X273280Y300970D01*
X273241Y300980D01*
X273204Y300997D01*
X273088Y301020D01*
X272972Y301050D01*
X272912Y301053D01*
X272892Y301057D01*
X272872Y301056D01*
X272812Y301060D01*
X256622Y301060D01*
X256524Y301047D01*
X256424Y301044D01*
X256366Y301028D01*
X256306Y301020D01*
X256214Y300983D01*
X256119Y300956D01*
X256067Y300925D01*
X256010Y300903D01*
X255930Y300845D01*
X255845Y300794D01*
X255770Y300728D01*
X255753Y300716D01*
X255745Y300707D01*
X255724Y300688D01*
X252152Y297116D01*
X252091Y297038D01*
X252023Y296965D01*
X251994Y296912D01*
X251957Y296865D01*
X251918Y296774D01*
X251870Y296687D01*
X251855Y296628D01*
X251831Y296573D01*
X251821Y296514D01*
X242531Y287224D01*
X242462Y287135D01*
X242387Y287052D01*
X242365Y287010D01*
X242336Y286972D01*
X242292Y286869D01*
X242240Y286770D01*
X242229Y286724D01*
X242210Y286681D01*
X242192Y286570D01*
X242167Y286461D01*
X242168Y286413D01*
X242160Y286366D01*
X242171Y286255D01*
X242173Y286143D01*
X242185Y286097D01*
X242190Y286050D01*
X242228Y285944D01*
X242258Y285836D01*
X242286Y285780D01*
X242288Y285772D01*
X242292Y285767D01*
X242298Y285751D01*
X242308Y285735D01*
X242329Y285692D01*
X242900Y284702D01*
X242903Y284699D01*
X242904Y284695D01*
X243000Y284571D01*
X243092Y284449D01*
X243096Y284446D01*
X243098Y284443D01*
X243222Y284346D01*
X243316Y284271D01*
X243637Y283454D01*
X243644Y283441D01*
X243648Y283427D01*
X243719Y283283D01*
X244163Y282514D01*
X244148Y282405D01*
X244148Y282401D01*
X244147Y282397D01*
X244166Y282242D01*
X244184Y282089D01*
X244185Y282086D01*
X244186Y282082D01*
X244235Y281928D01*
X244735Y280654D01*
X244737Y280651D01*
X244738Y280647D01*
X244812Y280512D01*
X244887Y280375D01*
X244890Y280372D01*
X244892Y280369D01*
X244998Y280256D01*
X245082Y280166D01*
X245277Y279310D01*
X245282Y279296D01*
X245284Y279282D01*
X245333Y279129D01*
X245657Y278303D01*
X245626Y278197D01*
X245625Y278193D01*
X245624Y278189D01*
X245620Y278036D01*
X245614Y277880D01*
X245615Y277876D01*
X245615Y277871D01*
X245641Y277713D01*
X245945Y276378D01*
X245946Y276374D01*
X245947Y276370D01*
X246001Y276224D01*
X246054Y276080D01*
X246056Y276076D01*
X246058Y276072D01*
X246147Y275944D01*
X246216Y275844D01*
X246281Y274968D01*
X246284Y274954D01*
X246283Y274940D01*
X246309Y274781D01*
X246506Y273916D01*
X246460Y273816D01*
X246459Y273812D01*
X246457Y273808D01*
X246430Y273658D01*
X246402Y273503D01*
X246402Y273499D01*
X246401Y273495D01*
X246403Y273334D01*
X246505Y271970D01*
X246506Y271966D01*
X246505Y271961D01*
X246537Y271809D01*
X246568Y271658D01*
X246570Y271654D01*
X246571Y271650D01*
X246640Y271509D01*
X246693Y271401D01*
X246627Y270525D01*
X246627Y270511D01*
X246625Y270497D01*
X246627Y270336D01*
X246693Y269451D01*
X246632Y269359D01*
X246631Y269355D01*
X246628Y269352D01*
X246578Y269203D01*
X246528Y269059D01*
X246527Y269055D01*
X246526Y269051D01*
X246504Y268891D01*
X246401Y267527D01*
X246401Y267523D01*
X246400Y267519D01*
X246409Y267364D01*
X246417Y267209D01*
X246418Y267205D01*
X246419Y267201D01*
X246466Y267053D01*
X246502Y266936D01*
X246306Y266080D01*
X246305Y266066D01*
X246300Y266052D01*
X246278Y265893D01*
X246211Y265008D01*
X246138Y264927D01*
X246136Y264923D01*
X246133Y264920D01*
X246061Y264781D01*
X245990Y264645D01*
X245989Y264641D01*
X245987Y264637D01*
X245941Y264483D01*
X245636Y263149D01*
X245636Y263145D01*
X245635Y263141D01*
X245620Y262989D01*
X245605Y262833D01*
X245605Y262828D01*
X245605Y262824D01*
X245629Y262672D01*
X245648Y262550D01*
X245327Y261733D01*
X245324Y261719D01*
X245317Y261706D01*
X245271Y261552D01*
X245073Y260687D01*
X244988Y260617D01*
X244986Y260614D01*
X244983Y260611D01*
X244890Y260483D01*
X244800Y260361D01*
X244799Y260357D01*
X244796Y260354D01*
X244728Y260208D01*
X244228Y258934D01*
X244227Y258930D01*
X244225Y258927D01*
X244188Y258778D01*
X244149Y258626D01*
X244149Y258622D01*
X244148Y258618D01*
X244150Y258463D01*
X244150Y258340D01*
X243711Y257580D01*
X243705Y257566D01*
X243697Y257555D01*
X243629Y257409D01*
X243304Y256583D01*
X243210Y256527D01*
X243207Y256524D01*
X243203Y256522D01*
X243094Y256411D01*
X242985Y256302D01*
X242983Y256298D01*
X242980Y256295D01*
X242891Y256161D01*
X242207Y254976D01*
X242205Y254972D01*
X242203Y254969D01*
X242142Y254823D01*
X242083Y254683D01*
X242083Y254679D01*
X242081Y254675D01*
X242059Y254520D01*
X242041Y254400D01*
X241494Y253714D01*
X241486Y253702D01*
X241476Y253691D01*
X241387Y253557D01*
X240943Y252789D01*
X240841Y252748D01*
X240838Y252745D01*
X240834Y252744D01*
X240710Y252650D01*
X240586Y252558D01*
X240583Y252555D01*
X240580Y252553D01*
X240472Y252433D01*
X239618Y251364D01*
X239616Y251360D01*
X239613Y251357D01*
X239534Y251226D01*
X239453Y251092D01*
X239451Y251088D01*
X239449Y251085D01*
X239404Y250935D01*
X239369Y250819D01*
X238725Y250222D01*
X238716Y250211D01*
X238704Y250202D01*
X238596Y250083D01*
X238043Y249390D01*
X237936Y249364D01*
X237932Y249362D01*
X237928Y249361D01*
X237793Y249288D01*
X237655Y249214D01*
X237652Y249212D01*
X237648Y249210D01*
X237524Y249108D01*
X236520Y248177D01*
X236518Y248174D01*
X236514Y248172D01*
X236414Y248050D01*
X236316Y247934D01*
X236314Y247930D01*
X236312Y247927D01*
X236246Y247787D01*
X236193Y247676D01*
X235467Y247182D01*
X235456Y247172D01*
X235443Y247165D01*
X235319Y247063D01*
X234668Y246460D01*
X234559Y246450D01*
X234555Y246449D01*
X234551Y246449D01*
X234404Y246396D01*
X234259Y246345D01*
X234255Y246342D01*
X234251Y246341D01*
X234113Y246259D01*
X233313Y245714D01*
X233259Y245666D01*
X233199Y245627D01*
X233140Y245561D01*
X233075Y245503D01*
X233034Y245444D01*
X232986Y245390D01*
X232945Y245313D01*
X232896Y245240D01*
X232872Y245172D01*
X232839Y245109D01*
X232818Y245023D01*
X232789Y244941D01*
X232782Y244869D01*
X232766Y244799D01*
X232767Y244712D01*
X232759Y244624D01*
X232770Y244553D01*
X232772Y244481D01*
X232795Y244397D01*
X232809Y244310D01*
X232838Y244244D01*
X232857Y244175D01*
X232929Y244030D01*
X251024Y212688D01*
X250397Y212391D01*
X250374Y212374D01*
X250347Y212364D01*
X250295Y212315D01*
X250237Y212272D01*
X250223Y212247D01*
X250202Y212228D01*
X250173Y212162D01*
X250137Y212100D01*
X250134Y212072D01*
X250122Y212046D01*
X250121Y211974D01*
X250112Y211903D01*
X250120Y211876D01*
X250120Y211847D01*
X250155Y211752D01*
X250166Y211712D01*
X250173Y211703D01*
X250177Y211691D01*
X259677Y195191D01*
X259729Y195133D01*
X259775Y195070D01*
X259794Y195059D01*
X259809Y195042D01*
X259879Y195008D01*
X259946Y194968D01*
X259971Y194964D01*
X259988Y194956D01*
X260033Y194954D01*
X260110Y194941D01*
X279110Y194941D01*
X279138Y194946D01*
G37*
G36*
X236213Y293558D02*
X236213Y293558D01*
X236309Y293561D01*
X236370Y293578D01*
X236434Y293587D01*
X236523Y293622D01*
X236614Y293649D01*
X236670Y293681D01*
X236729Y293705D01*
X236806Y293762D01*
X236888Y293810D01*
X236970Y293882D01*
X236985Y293894D01*
X236992Y293902D01*
X237009Y293917D01*
X242771Y299679D01*
X242832Y299757D01*
X242900Y299829D01*
X242929Y299882D01*
X242966Y299930D01*
X243005Y300021D01*
X243053Y300108D01*
X243068Y300166D01*
X243092Y300222D01*
X243102Y300281D01*
X252518Y309697D01*
X279769Y309697D01*
X279907Y309715D01*
X280045Y309728D01*
X280065Y309735D01*
X280085Y309737D01*
X280214Y309788D01*
X280345Y309835D01*
X280362Y309847D01*
X280380Y309854D01*
X280492Y309936D01*
X280608Y310014D01*
X280621Y310029D01*
X280638Y310041D01*
X280726Y310148D01*
X280818Y310252D01*
X280828Y310270D01*
X280840Y310286D01*
X280900Y310412D01*
X280963Y310536D01*
X280967Y310555D01*
X280976Y310574D01*
X281002Y310710D01*
X281033Y310846D01*
X281032Y310866D01*
X281036Y310886D01*
X281027Y311024D01*
X281023Y311164D01*
X281017Y311183D01*
X281016Y311203D01*
X280973Y311336D01*
X280935Y311469D01*
X280924Y311487D01*
X280918Y311506D01*
X280843Y311624D01*
X280773Y311743D01*
X280754Y311764D01*
X280748Y311775D01*
X280733Y311789D01*
X280667Y311864D01*
X272800Y319731D01*
X272721Y319792D01*
X272649Y319860D01*
X272596Y319889D01*
X272548Y319926D01*
X272457Y319965D01*
X272371Y320013D01*
X272312Y320028D01*
X272256Y320052D01*
X272158Y320068D01*
X272063Y320093D01*
X271963Y320099D01*
X271942Y320102D01*
X271930Y320101D01*
X271902Y320103D01*
X248914Y320103D01*
X248816Y320090D01*
X248716Y320087D01*
X248658Y320071D01*
X248598Y320063D01*
X248506Y320026D01*
X248411Y319999D01*
X248359Y319968D01*
X248303Y319946D01*
X248222Y319888D01*
X248137Y319837D01*
X248062Y319771D01*
X248045Y319759D01*
X248037Y319750D01*
X248016Y319731D01*
X245324Y317039D01*
X241683Y315531D01*
X237742Y315531D01*
X234101Y317039D01*
X231314Y319826D01*
X229806Y323467D01*
X229806Y327408D01*
X231314Y331049D01*
X234101Y333836D01*
X237742Y335344D01*
X241683Y335344D01*
X245324Y333836D01*
X248016Y331144D01*
X248095Y331083D01*
X248167Y331015D01*
X248220Y330986D01*
X248268Y330949D01*
X248358Y330910D01*
X248445Y330862D01*
X248504Y330847D01*
X248559Y330823D01*
X248657Y330807D01*
X248753Y330782D01*
X248853Y330776D01*
X248873Y330773D01*
X248886Y330774D01*
X248914Y330772D01*
X275522Y330772D01*
X275659Y330790D01*
X275798Y330803D01*
X275817Y330810D01*
X275837Y330812D01*
X275966Y330863D01*
X276097Y330910D01*
X276114Y330922D01*
X276133Y330929D01*
X276245Y331011D01*
X276360Y331089D01*
X276374Y331104D01*
X276390Y331116D01*
X276479Y331223D01*
X276571Y331327D01*
X276580Y331345D01*
X276593Y331361D01*
X276652Y331487D01*
X276715Y331611D01*
X276720Y331630D01*
X276729Y331649D01*
X276755Y331785D01*
X276785Y331921D01*
X276784Y331941D01*
X276788Y331961D01*
X276780Y332099D01*
X276775Y332239D01*
X276770Y332258D01*
X276769Y332278D01*
X276726Y332411D01*
X276687Y332544D01*
X276677Y332562D01*
X276671Y332581D01*
X276596Y332698D01*
X276526Y332818D01*
X276507Y332839D01*
X276500Y332850D01*
X276485Y332864D01*
X276419Y332939D01*
X255337Y354021D01*
X255259Y354082D01*
X255187Y354150D01*
X255134Y354179D01*
X255086Y354216D01*
X254995Y354255D01*
X254908Y354303D01*
X254850Y354318D01*
X254794Y354342D01*
X254696Y354358D01*
X254600Y354383D01*
X254500Y354389D01*
X254480Y354392D01*
X254468Y354391D01*
X254440Y354393D01*
X250862Y354393D01*
X250813Y354387D01*
X250763Y354389D01*
X250656Y354367D01*
X250547Y354353D01*
X250501Y354335D01*
X250452Y354325D01*
X250353Y354276D01*
X250251Y354236D01*
X250211Y354207D01*
X250166Y354185D01*
X250083Y354114D01*
X249994Y354049D01*
X249962Y354011D01*
X249924Y353978D01*
X249861Y353889D01*
X249791Y353804D01*
X249770Y353759D01*
X249741Y353718D01*
X249702Y353616D01*
X249655Y353516D01*
X249646Y353468D01*
X249628Y353421D01*
X249616Y353312D01*
X249596Y353204D01*
X249599Y353154D01*
X249593Y353105D01*
X249609Y352996D01*
X249615Y352887D01*
X249619Y352875D01*
X249619Y348867D01*
X248111Y345226D01*
X245324Y342439D01*
X241683Y340931D01*
X237742Y340931D01*
X234101Y342439D01*
X231314Y345226D01*
X229806Y348867D01*
X229806Y352808D01*
X231314Y356449D01*
X234006Y359141D01*
X234067Y359220D01*
X234135Y359292D01*
X234164Y359345D01*
X234201Y359393D01*
X234240Y359483D01*
X234288Y359570D01*
X234303Y359629D01*
X234327Y359684D01*
X234343Y359782D01*
X234368Y359878D01*
X234374Y359978D01*
X234377Y359998D01*
X234376Y360011D01*
X234378Y360039D01*
X234378Y367036D01*
X234365Y367134D01*
X234362Y367234D01*
X234346Y367292D01*
X234338Y367352D01*
X234301Y367444D01*
X234274Y367539D01*
X234243Y367591D01*
X234221Y367647D01*
X234163Y367728D01*
X234112Y367813D01*
X234046Y367888D01*
X234034Y367905D01*
X234025Y367913D01*
X234006Y367934D01*
X231314Y370626D01*
X229806Y374267D01*
X229806Y378208D01*
X231314Y381849D01*
X234101Y384636D01*
X237742Y386144D01*
X241683Y386144D01*
X245324Y384636D01*
X248111Y381849D01*
X249619Y378208D01*
X249619Y374267D01*
X248111Y370626D01*
X245419Y367934D01*
X245358Y367855D01*
X245290Y367783D01*
X245261Y367730D01*
X245224Y367682D01*
X245185Y367592D01*
X245137Y367505D01*
X245122Y367446D01*
X245098Y367391D01*
X245082Y367293D01*
X245057Y367197D01*
X245051Y367097D01*
X245048Y367077D01*
X245049Y367064D01*
X245047Y367036D01*
X245047Y366331D01*
X245062Y366213D01*
X245070Y366095D01*
X245082Y366056D01*
X245087Y366016D01*
X245131Y365905D01*
X245168Y365792D01*
X245189Y365758D01*
X245204Y365720D01*
X245274Y365624D01*
X245338Y365523D01*
X245367Y365496D01*
X245391Y365463D01*
X245483Y365387D01*
X245569Y365305D01*
X245605Y365286D01*
X245636Y365260D01*
X245744Y365209D01*
X245848Y365152D01*
X245887Y365142D01*
X245924Y365125D01*
X246040Y365102D01*
X246156Y365072D01*
X246216Y365069D01*
X246236Y365065D01*
X246256Y365066D01*
X246316Y365062D01*
X259487Y365062D01*
X259605Y365077D01*
X259723Y365085D01*
X259762Y365097D01*
X259802Y365102D01*
X259913Y365146D01*
X260026Y365183D01*
X260060Y365204D01*
X260098Y365219D01*
X260194Y365289D01*
X260295Y365353D01*
X260322Y365382D01*
X260355Y365406D01*
X260431Y365498D01*
X260513Y365584D01*
X260532Y365620D01*
X260558Y365651D01*
X260609Y365759D01*
X260666Y365863D01*
X260676Y365902D01*
X260693Y365939D01*
X260716Y366055D01*
X260743Y366162D01*
X262095Y367514D01*
X273990Y367514D01*
X275329Y366175D01*
X275329Y353280D01*
X274145Y352096D01*
X274072Y352002D01*
X273994Y351913D01*
X273975Y351877D01*
X273950Y351845D01*
X273903Y351736D01*
X273849Y351630D01*
X273840Y351591D01*
X273824Y351553D01*
X273805Y351436D01*
X273779Y351320D01*
X273781Y351279D01*
X273774Y351239D01*
X273785Y351121D01*
X273789Y351002D01*
X273800Y350963D01*
X273804Y350923D01*
X273844Y350810D01*
X273877Y350696D01*
X273898Y350661D01*
X273912Y350623D01*
X273979Y350525D01*
X274039Y350422D01*
X274079Y350377D01*
X274090Y350360D01*
X274106Y350347D01*
X274145Y350301D01*
X303384Y321063D01*
X303392Y321057D01*
X303397Y321050D01*
X303517Y320960D01*
X303636Y320868D01*
X303644Y320864D01*
X303652Y320858D01*
X303796Y320787D01*
X304647Y320435D01*
X306148Y318934D01*
X306971Y316947D01*
X306972Y316936D01*
X306975Y316837D01*
X306992Y316779D01*
X307000Y316718D01*
X307036Y316626D01*
X307064Y316531D01*
X307094Y316479D01*
X307117Y316423D01*
X307175Y316343D01*
X307225Y316257D01*
X307291Y316182D01*
X307303Y316165D01*
X307313Y316158D01*
X307331Y316136D01*
X312632Y310835D01*
X312711Y310775D01*
X312783Y310707D01*
X312836Y310678D01*
X312884Y310641D01*
X312975Y310601D01*
X313061Y310553D01*
X313120Y310538D01*
X313176Y310514D01*
X313274Y310499D01*
X313369Y310474D01*
X313469Y310468D01*
X313490Y310464D01*
X313502Y310466D01*
X313530Y310464D01*
X313742Y310464D01*
X313860Y310479D01*
X313979Y310486D01*
X314017Y310499D01*
X314058Y310504D01*
X314168Y310547D01*
X314281Y310584D01*
X314316Y310606D01*
X314353Y310621D01*
X314449Y310690D01*
X314550Y310754D01*
X314578Y310784D01*
X314611Y310807D01*
X314687Y310899D01*
X314768Y310986D01*
X314788Y311021D01*
X314813Y311052D01*
X314864Y311160D01*
X314922Y311264D01*
X314932Y311304D01*
X314949Y311340D01*
X314971Y311457D01*
X315001Y311572D01*
X315005Y311632D01*
X315009Y311652D01*
X315007Y311673D01*
X315011Y311733D01*
X315011Y317464D01*
X315008Y317493D01*
X315010Y317523D01*
X314988Y317651D01*
X314971Y317780D01*
X314961Y317807D01*
X314956Y317836D01*
X314902Y317955D01*
X314854Y318075D01*
X314837Y318099D01*
X314825Y318126D01*
X314744Y318227D01*
X314668Y318333D01*
X314645Y318351D01*
X314626Y318374D01*
X314523Y318453D01*
X314423Y318535D01*
X314396Y318548D01*
X314372Y318566D01*
X314228Y318637D01*
X314062Y318705D01*
X312355Y320412D01*
X311431Y322643D01*
X311431Y325057D01*
X312355Y327288D01*
X314062Y328995D01*
X316293Y329919D01*
X318707Y329919D01*
X320938Y328995D01*
X322645Y327288D01*
X323569Y325057D01*
X323569Y322643D01*
X323323Y322050D01*
X323310Y322002D01*
X323289Y321957D01*
X323268Y321849D01*
X323239Y321743D01*
X323238Y321693D01*
X323229Y321644D01*
X323236Y321535D01*
X323234Y321425D01*
X323246Y321377D01*
X323249Y321327D01*
X323283Y321223D01*
X323308Y321116D01*
X323331Y321072D01*
X323347Y321025D01*
X323406Y320932D01*
X323457Y320835D01*
X323490Y320798D01*
X323517Y320756D01*
X323597Y320681D01*
X323671Y320599D01*
X323712Y320572D01*
X323749Y320538D01*
X323845Y320485D01*
X323937Y320425D01*
X323984Y320408D01*
X324027Y320384D01*
X324133Y320357D01*
X324237Y320321D01*
X324287Y320317D01*
X324335Y320305D01*
X324496Y320295D01*
X328746Y320295D01*
X328864Y320310D01*
X328983Y320317D01*
X329021Y320330D01*
X329062Y320335D01*
X329172Y320378D01*
X329285Y320415D01*
X329320Y320437D01*
X329357Y320452D01*
X329453Y320521D01*
X329554Y320585D01*
X329582Y320615D01*
X329615Y320638D01*
X329691Y320730D01*
X329772Y320817D01*
X329792Y320852D01*
X329817Y320883D01*
X329868Y320991D01*
X329926Y321095D01*
X329936Y321135D01*
X329953Y321171D01*
X329975Y321288D01*
X330005Y321403D01*
X330009Y321463D01*
X330013Y321483D01*
X330011Y321504D01*
X330015Y321564D01*
X330015Y332583D01*
X330003Y332681D01*
X330000Y332780D01*
X329983Y332838D01*
X329975Y332898D01*
X329939Y332990D01*
X329911Y333085D01*
X329881Y333137D01*
X329858Y333194D01*
X329800Y333274D01*
X329750Y333359D01*
X329684Y333435D01*
X329672Y333451D01*
X329662Y333459D01*
X329644Y333480D01*
X327962Y335162D01*
X327884Y335222D01*
X327812Y335290D01*
X327759Y335319D01*
X327711Y335356D01*
X327620Y335396D01*
X327533Y335444D01*
X327475Y335459D01*
X327419Y335483D01*
X327321Y335498D01*
X327225Y335523D01*
X327125Y335529D01*
X327105Y335533D01*
X327093Y335531D01*
X327065Y335533D01*
X324056Y335533D01*
X269565Y390025D01*
X269487Y390085D01*
X269414Y390153D01*
X269361Y390182D01*
X269314Y390219D01*
X269223Y390259D01*
X269136Y390307D01*
X269077Y390322D01*
X269022Y390346D01*
X268924Y390361D01*
X268828Y390386D01*
X268728Y390392D01*
X268708Y390396D01*
X268695Y390394D01*
X268667Y390396D01*
X243246Y390396D01*
X240716Y392926D01*
X240716Y393119D01*
X240704Y393217D01*
X240701Y393316D01*
X240684Y393374D01*
X240676Y393434D01*
X240640Y393526D01*
X240612Y393622D01*
X240582Y393674D01*
X240559Y393730D01*
X240501Y393810D01*
X240451Y393895D01*
X240385Y393971D01*
X240373Y393987D01*
X240363Y393995D01*
X240345Y394016D01*
X237228Y397133D01*
X237227Y397134D01*
X237107Y397227D01*
X236976Y397328D01*
X236975Y397329D01*
X236842Y397386D01*
X236685Y397454D01*
X236684Y397455D01*
X236683Y397455D01*
X236539Y397478D01*
X236370Y397504D01*
X236369Y397504D01*
X236226Y397491D01*
X236054Y397474D01*
X236053Y397474D01*
X235911Y397423D01*
X235755Y397367D01*
X235754Y397367D01*
X235753Y397366D01*
X235615Y397284D01*
X235482Y397194D01*
X235471Y397184D01*
X235458Y397177D01*
X235334Y397075D01*
X234684Y396472D01*
X234574Y396462D01*
X234570Y396460D01*
X234566Y396460D01*
X234417Y396406D01*
X234274Y396356D01*
X234271Y396354D01*
X234267Y396352D01*
X234128Y396270D01*
X232998Y395499D01*
X232995Y395496D01*
X232991Y395494D01*
X232876Y395391D01*
X232760Y395288D01*
X232758Y395285D01*
X232755Y395282D01*
X232669Y395154D01*
X232600Y395051D01*
X231809Y394670D01*
X231797Y394662D01*
X231783Y394657D01*
X231644Y394575D01*
X230912Y394075D01*
X230802Y394082D01*
X230798Y394081D01*
X230794Y394082D01*
X230644Y394052D01*
X230490Y394022D01*
X230486Y394020D01*
X230482Y394019D01*
X230333Y393959D01*
X229100Y393365D01*
X229096Y393362D01*
X229093Y393361D01*
X228962Y393276D01*
X228833Y393192D01*
X228830Y393189D01*
X228827Y393187D01*
X228722Y393071D01*
X228639Y392982D01*
X227800Y392723D01*
X227787Y392717D01*
X227773Y392714D01*
X227624Y392653D01*
X226825Y392268D01*
X226717Y392291D01*
X226713Y392291D01*
X226709Y392292D01*
X226550Y392284D01*
X226399Y392278D01*
X226395Y392277D01*
X226391Y392277D01*
X226235Y392239D01*
X224927Y391835D01*
X224924Y391834D01*
X224920Y391833D01*
X224777Y391767D01*
X224638Y391704D01*
X224635Y391702D01*
X224631Y391700D01*
X224510Y391602D01*
X224415Y391525D01*
X223547Y391394D01*
X223533Y391390D01*
X223518Y391390D01*
X223362Y391352D01*
X222514Y391090D01*
X222411Y391129D01*
X222407Y391129D01*
X222403Y391131D01*
X222249Y391147D01*
X222095Y391163D01*
X222091Y391163D01*
X222087Y391163D01*
X221926Y391149D01*
X220573Y390945D01*
X220570Y390944D01*
X220565Y390944D01*
X220415Y390900D01*
X220267Y390859D01*
X220264Y390856D01*
X220260Y390855D01*
X220127Y390777D01*
X220020Y390715D01*
X219142Y390715D01*
X219128Y390713D01*
X219114Y390714D01*
X218953Y390700D01*
X218076Y390568D01*
X217980Y390621D01*
X217976Y390623D01*
X217972Y390625D01*
X217823Y390663D01*
X217672Y390703D01*
X217668Y390703D01*
X217664Y390704D01*
X217504Y390714D01*
X216135Y390714D01*
X216131Y390713D01*
X216127Y390714D01*
X215974Y390693D01*
X215820Y390674D01*
X215816Y390672D01*
X215812Y390672D01*
X215668Y390613D01*
X215554Y390568D01*
X214686Y390699D01*
X214672Y390699D01*
X214657Y390703D01*
X214497Y390713D01*
X213610Y390713D01*
X213523Y390780D01*
X213519Y390782D01*
X213516Y390784D01*
X213374Y390845D01*
X213231Y390906D01*
X213227Y390907D01*
X213223Y390909D01*
X213066Y390943D01*
X211712Y391146D01*
X211708Y391146D01*
X211704Y391147D01*
X211548Y391150D01*
X211394Y391154D01*
X211390Y391153D01*
X211386Y391153D01*
X211234Y391117D01*
X211116Y391089D01*
X210277Y391348D01*
X210263Y391350D01*
X210249Y391356D01*
X210092Y391390D01*
X209215Y391522D01*
X209139Y391601D01*
X209135Y391604D01*
X209132Y391607D01*
X209000Y391688D01*
X208869Y391770D01*
X208865Y391771D01*
X208862Y391773D01*
X208711Y391830D01*
X207403Y392233D01*
X207399Y392234D01*
X207395Y392236D01*
X207240Y392262D01*
X207090Y392288D01*
X207086Y392288D01*
X207082Y392288D01*
X206925Y392275D01*
X206805Y392266D01*
X206014Y392646D01*
X206000Y392651D01*
X205988Y392659D01*
X205837Y392716D01*
X204990Y392977D01*
X204926Y393067D01*
X204923Y393070D01*
X204921Y393073D01*
X204805Y393170D01*
X204685Y393273D01*
X204681Y393275D01*
X204678Y393278D01*
X204537Y393357D01*
X203648Y393785D01*
X203580Y393807D01*
X203516Y393839D01*
X203430Y393858D01*
X203347Y393886D01*
X203275Y393891D01*
X203205Y393906D01*
X203117Y393902D01*
X203029Y393908D01*
X202959Y393896D01*
X202887Y393893D01*
X202803Y393867D01*
X202716Y393852D01*
X202651Y393822D01*
X202583Y393801D01*
X202507Y393756D01*
X202427Y393719D01*
X202372Y393674D01*
X202311Y393637D01*
X202249Y393574D01*
X202181Y393518D01*
X202138Y393461D01*
X202088Y393410D01*
X201999Y393276D01*
X183902Y361931D01*
X183294Y362351D01*
X183267Y362362D01*
X183245Y362381D01*
X183176Y362401D01*
X183111Y362429D01*
X183082Y362429D01*
X183054Y362437D01*
X182983Y362429D01*
X182912Y362430D01*
X182885Y362418D01*
X182856Y362415D01*
X182794Y362380D01*
X182729Y362352D01*
X182708Y362332D01*
X182683Y362317D01*
X182620Y362240D01*
X182590Y362210D01*
X182586Y362200D01*
X182577Y362189D01*
X173077Y345689D01*
X173053Y345616D01*
X173022Y345546D01*
X173022Y345522D01*
X173014Y345500D01*
X173021Y345424D01*
X173020Y345347D01*
X173029Y345323D01*
X173030Y345302D01*
X173051Y345263D01*
X173070Y345211D01*
X173071Y345205D01*
X173073Y345203D01*
X173077Y345191D01*
X182577Y328691D01*
X182596Y328669D01*
X182609Y328643D01*
X182662Y328595D01*
X182709Y328542D01*
X182735Y328529D01*
X182757Y328510D01*
X182824Y328487D01*
X182888Y328456D01*
X182917Y328455D01*
X182944Y328445D01*
X183016Y328450D01*
X183087Y328447D01*
X183114Y328457D01*
X183143Y328459D01*
X183233Y328501D01*
X183273Y328516D01*
X183281Y328523D01*
X183294Y328529D01*
X183902Y328949D01*
X201999Y297604D01*
X202042Y297547D01*
X202077Y297485D01*
X202138Y297421D01*
X202191Y297351D01*
X202247Y297307D01*
X202296Y297255D01*
X202371Y297208D01*
X202440Y297153D01*
X202505Y297124D01*
X202566Y297086D01*
X202650Y297060D01*
X202731Y297024D01*
X202801Y297012D01*
X202869Y296990D01*
X202957Y296986D01*
X203044Y296971D01*
X203115Y296977D01*
X203187Y296973D01*
X203273Y296990D01*
X203361Y296997D01*
X203429Y297021D01*
X203499Y297035D01*
X203648Y297095D01*
X204537Y297523D01*
X204541Y297525D01*
X204545Y297527D01*
X204675Y297612D01*
X204804Y297696D01*
X204807Y297699D01*
X204811Y297701D01*
X204916Y297817D01*
X204998Y297906D01*
X205837Y298164D01*
X205851Y298170D01*
X205865Y298173D01*
X206014Y298234D01*
X206813Y298618D01*
X206921Y298595D01*
X206925Y298595D01*
X206929Y298595D01*
X207082Y298602D01*
X207239Y298608D01*
X207243Y298609D01*
X207247Y298609D01*
X207403Y298647D01*
X208711Y299050D01*
X208715Y299051D01*
X208719Y299052D01*
X208861Y299118D01*
X209001Y299181D01*
X209004Y299183D01*
X209008Y299185D01*
X209126Y299281D01*
X209166Y299313D01*
X209214Y299348D01*
X209223Y299359D01*
X209224Y299360D01*
X210092Y299490D01*
X210106Y299494D01*
X210120Y299495D01*
X210277Y299532D01*
X211125Y299794D01*
X211228Y299755D01*
X211232Y299754D01*
X211236Y299753D01*
X211391Y299737D01*
X211544Y299720D01*
X211548Y299720D01*
X211552Y299720D01*
X211712Y299734D01*
X213066Y299937D01*
X213070Y299938D01*
X213074Y299939D01*
X213222Y299982D01*
X213372Y300024D01*
X213375Y300026D01*
X213379Y300027D01*
X213512Y300105D01*
X213619Y300167D01*
X214497Y300167D01*
X214511Y300169D01*
X214526Y300167D01*
X214686Y300181D01*
X215563Y300313D01*
X215659Y300259D01*
X215663Y300258D01*
X215667Y300256D01*
X215820Y300217D01*
X215967Y300178D01*
X215971Y300178D01*
X215975Y300177D01*
X216135Y300166D01*
X217504Y300166D01*
X217508Y300166D01*
X217512Y300166D01*
X217665Y300186D01*
X217819Y300206D01*
X217823Y300207D01*
X217827Y300208D01*
X217971Y300266D01*
X218085Y300311D01*
X218953Y300180D01*
X218967Y300179D01*
X218982Y300176D01*
X219142Y300165D01*
X220029Y300165D01*
X220116Y300098D01*
X220120Y300096D01*
X220123Y300094D01*
X220264Y300034D01*
X220408Y299971D01*
X220412Y299971D01*
X220416Y299969D01*
X220573Y299935D01*
X221926Y299731D01*
X221931Y299730D01*
X221935Y299729D01*
X222089Y299727D01*
X222244Y299723D01*
X222248Y299724D01*
X222253Y299724D01*
X222401Y299759D01*
X222523Y299787D01*
X223362Y299528D01*
X223376Y299526D01*
X223389Y299520D01*
X223547Y299486D01*
X224424Y299353D01*
X224500Y299274D01*
X224503Y299271D01*
X224506Y299268D01*
X224639Y299187D01*
X224769Y299105D01*
X224773Y299104D01*
X224777Y299102D01*
X224927Y299045D01*
X226235Y298641D01*
X226239Y298640D01*
X226243Y298638D01*
X226394Y298613D01*
X226548Y298586D01*
X226552Y298586D01*
X226556Y298585D01*
X226707Y298598D01*
X226833Y298608D01*
X227624Y298227D01*
X227638Y298222D01*
X227650Y298214D01*
X227800Y298157D01*
X228648Y297896D01*
X228711Y297806D01*
X228714Y297803D01*
X228717Y297799D01*
X228836Y297699D01*
X228953Y297599D01*
X228956Y297597D01*
X228960Y297594D01*
X229100Y297515D01*
X230333Y296921D01*
X230336Y296920D01*
X230340Y296918D01*
X230489Y296869D01*
X230634Y296820D01*
X230638Y296820D01*
X230642Y296818D01*
X230797Y296808D01*
X230919Y296799D01*
X231644Y296305D01*
X231657Y296298D01*
X231668Y296289D01*
X231809Y296210D01*
X232608Y295825D01*
X232657Y295726D01*
X232660Y295723D01*
X232661Y295719D01*
X232764Y295603D01*
X232865Y295486D01*
X232868Y295483D01*
X232871Y295480D01*
X232998Y295381D01*
X234128Y294610D01*
X234132Y294608D01*
X234135Y294605D01*
X234274Y294535D01*
X234411Y294465D01*
X234415Y294464D01*
X234419Y294462D01*
X234571Y294429D01*
X234690Y294402D01*
X235248Y293884D01*
X235326Y293828D01*
X235398Y293765D01*
X235455Y293736D01*
X235506Y293699D01*
X235596Y293664D01*
X235681Y293621D01*
X235743Y293607D01*
X235803Y293583D01*
X235898Y293572D01*
X235991Y293551D01*
X236055Y293553D01*
X236119Y293545D01*
X236213Y293558D01*
G37*
G36*
X420269Y227661D02*
X420269Y227661D01*
X420368Y227664D01*
X420426Y227680D01*
X420486Y227688D01*
X420578Y227725D01*
X420674Y227752D01*
X420726Y227783D01*
X420782Y227805D01*
X420862Y227863D01*
X420947Y227914D01*
X421023Y227980D01*
X421039Y227992D01*
X421047Y228001D01*
X421068Y228020D01*
X441317Y248269D01*
X441335Y248292D01*
X441358Y248311D01*
X441432Y248417D01*
X441512Y248520D01*
X441524Y248547D01*
X441541Y248571D01*
X441587Y248692D01*
X441638Y248812D01*
X441643Y248841D01*
X441653Y248869D01*
X441668Y248998D01*
X441688Y249126D01*
X441685Y249155D01*
X441689Y249185D01*
X441671Y249313D01*
X441658Y249443D01*
X441648Y249470D01*
X441644Y249500D01*
X441606Y249611D01*
X441606Y252032D01*
X442530Y254263D01*
X444237Y255970D01*
X446468Y256894D01*
X447929Y256894D01*
X448040Y256908D01*
X448153Y256914D01*
X448198Y256928D01*
X448244Y256934D01*
X448349Y256975D01*
X448456Y257009D01*
X448496Y257033D01*
X448540Y257051D01*
X448631Y257117D01*
X448727Y257176D01*
X448759Y257210D01*
X448797Y257237D01*
X448869Y257324D01*
X448947Y257405D01*
X448970Y257446D01*
X449000Y257482D01*
X449048Y257584D01*
X449103Y257682D01*
X449127Y257751D01*
X449136Y257770D01*
X449139Y257788D01*
X449155Y257835D01*
X449237Y258142D01*
X449238Y258146D01*
X449239Y258150D01*
X449259Y258303D01*
X449280Y258457D01*
X449280Y258461D01*
X449280Y258465D01*
X449262Y258618D01*
X449244Y258773D01*
X449242Y258777D01*
X449242Y258781D01*
X449192Y258934D01*
X448692Y260208D01*
X448690Y260211D01*
X448689Y260215D01*
X448614Y260350D01*
X448540Y260487D01*
X448537Y260490D01*
X448535Y260493D01*
X448428Y260606D01*
X448344Y260696D01*
X448149Y261552D01*
X448144Y261565D01*
X448142Y261580D01*
X448093Y261733D01*
X447768Y262559D01*
X447799Y262664D01*
X447800Y262668D01*
X447801Y262672D01*
X447805Y262824D01*
X447810Y262982D01*
X447809Y262986D01*
X447810Y262990D01*
X447784Y263149D01*
X447479Y264483D01*
X447477Y264487D01*
X447477Y264491D01*
X447423Y264637D01*
X447370Y264782D01*
X447367Y264785D01*
X447366Y264789D01*
X447276Y264918D01*
X447208Y265017D01*
X447142Y265893D01*
X447139Y265907D01*
X447139Y265922D01*
X447114Y266080D01*
X446916Y266945D01*
X446962Y267045D01*
X446963Y267049D01*
X446965Y267053D01*
X446992Y267204D01*
X447020Y267358D01*
X447020Y267362D01*
X447021Y267366D01*
X447019Y267527D01*
X446916Y268891D01*
X446915Y268895D01*
X446916Y268899D01*
X446884Y269051D01*
X446853Y269203D01*
X446851Y269207D01*
X446850Y269211D01*
X446782Y269349D01*
X446728Y269460D01*
X446793Y270336D01*
X446793Y270350D01*
X446795Y270364D01*
X446793Y270525D01*
X446727Y271410D01*
X446787Y271502D01*
X446789Y271506D01*
X446791Y271509D01*
X446841Y271656D01*
X446891Y271802D01*
X446892Y271806D01*
X446893Y271810D01*
X446915Y271970D01*
X447017Y273334D01*
X447017Y273338D01*
X447018Y273342D01*
X447009Y273498D01*
X447001Y273652D01*
X447000Y273656D01*
X446999Y273660D01*
X446953Y273806D01*
X446916Y273925D01*
X447111Y274781D01*
X447112Y274795D01*
X447117Y274809D01*
X447139Y274968D01*
X447205Y275853D01*
X447279Y275935D01*
X447281Y275938D01*
X447283Y275941D01*
X447354Y276078D01*
X447426Y276216D01*
X447427Y276220D01*
X447429Y276224D01*
X447475Y276378D01*
X447779Y277713D01*
X447779Y277717D01*
X447781Y277721D01*
X447795Y277873D01*
X447810Y278029D01*
X447810Y278033D01*
X447810Y278037D01*
X447786Y278187D01*
X447767Y278311D01*
X448087Y279129D01*
X448091Y279143D01*
X448097Y279156D01*
X448143Y279310D01*
X448340Y280175D01*
X448425Y280245D01*
X448428Y280248D01*
X448431Y280251D01*
X448523Y280379D01*
X448613Y280501D01*
X448615Y280505D01*
X448617Y280509D01*
X448685Y280654D01*
X449185Y281928D01*
X449186Y281932D01*
X449188Y281936D01*
X449225Y282086D01*
X449263Y282237D01*
X449263Y282241D01*
X449264Y282245D01*
X449263Y282397D01*
X449262Y282522D01*
X449701Y283283D01*
X449707Y283296D01*
X449715Y283308D01*
X449783Y283454D01*
X450107Y284280D01*
X450201Y284336D01*
X450204Y284339D01*
X450208Y284341D01*
X450317Y284453D01*
X450426Y284562D01*
X450428Y284565D01*
X450431Y284568D01*
X450520Y284702D01*
X451203Y285887D01*
X451205Y285891D01*
X451208Y285895D01*
X451267Y286040D01*
X451327Y286181D01*
X451327Y286185D01*
X451329Y286189D01*
X451351Y286343D01*
X451368Y286463D01*
X451916Y287150D01*
X451923Y287163D01*
X451933Y287173D01*
X452022Y287307D01*
X452466Y288075D01*
X452567Y288117D01*
X452571Y288119D01*
X452575Y288121D01*
X452699Y288214D01*
X452823Y288306D01*
X452825Y288310D01*
X452829Y288312D01*
X452937Y288431D01*
X453790Y289502D01*
X453792Y289505D01*
X453795Y289508D01*
X453876Y289643D01*
X453955Y289773D01*
X453956Y289777D01*
X453958Y289781D01*
X454003Y289931D01*
X454038Y290047D01*
X454682Y290644D01*
X454691Y290655D01*
X454703Y290664D01*
X454811Y290783D01*
X455364Y291477D01*
X455471Y291503D01*
X455474Y291505D01*
X455478Y291506D01*
X455614Y291579D01*
X455751Y291652D01*
X455754Y291655D01*
X455758Y291657D01*
X455883Y291759D01*
X456885Y292690D01*
X456888Y292693D01*
X456891Y292695D01*
X456991Y292816D01*
X457090Y292934D01*
X457091Y292937D01*
X457094Y292941D01*
X457159Y293080D01*
X457213Y293192D01*
X457938Y293686D01*
X457949Y293696D01*
X457962Y293703D01*
X458086Y293805D01*
X458588Y294271D01*
X458736Y294408D01*
X458846Y294418D01*
X458850Y294420D01*
X458854Y294420D01*
X459003Y294474D01*
X459146Y294524D01*
X459149Y294526D01*
X459153Y294528D01*
X459292Y294610D01*
X460422Y295381D01*
X460425Y295384D01*
X460429Y295386D01*
X460543Y295488D01*
X460660Y295592D01*
X460662Y295595D01*
X460665Y295598D01*
X460750Y295725D01*
X460820Y295829D01*
X461611Y296210D01*
X461623Y296218D01*
X461637Y296223D01*
X461776Y296305D01*
X462508Y296805D01*
X462618Y296798D01*
X462622Y296799D01*
X462626Y296798D01*
X462776Y296828D01*
X462930Y296858D01*
X462934Y296860D01*
X462938Y296861D01*
X463087Y296921D01*
X464320Y297515D01*
X464324Y297518D01*
X464327Y297519D01*
X464457Y297604D01*
X464587Y297688D01*
X464590Y297691D01*
X464593Y297693D01*
X464697Y297807D01*
X464781Y297898D01*
X465620Y298157D01*
X465633Y298163D01*
X465647Y298166D01*
X465796Y298227D01*
X466595Y298612D01*
X466703Y298589D01*
X466707Y298589D01*
X466711Y298588D01*
X466870Y298596D01*
X467021Y298602D01*
X467025Y298603D01*
X467029Y298603D01*
X467185Y298641D01*
X468493Y299045D01*
X468496Y299046D01*
X468500Y299047D01*
X468643Y299113D01*
X468782Y299176D01*
X468785Y299178D01*
X468789Y299180D01*
X468910Y299278D01*
X468979Y299334D01*
X468998Y299348D01*
X469002Y299352D01*
X469005Y299355D01*
X469873Y299486D01*
X469887Y299490D01*
X469902Y299490D01*
X470058Y299528D01*
X470906Y299790D01*
X471009Y299751D01*
X471013Y299751D01*
X471017Y299749D01*
X471172Y299733D01*
X471325Y299717D01*
X471329Y299717D01*
X471333Y299717D01*
X471494Y299731D01*
X472847Y299935D01*
X472850Y299936D01*
X472855Y299936D01*
X473005Y299980D01*
X473153Y300021D01*
X473156Y300024D01*
X473160Y300025D01*
X473292Y300103D01*
X473400Y300165D01*
X474278Y300165D01*
X474292Y300167D01*
X474306Y300166D01*
X474467Y300180D01*
X475344Y300312D01*
X475440Y300259D01*
X475444Y300257D01*
X475448Y300255D01*
X475597Y300217D01*
X475748Y300177D01*
X475752Y300177D01*
X475756Y300176D01*
X475916Y300166D01*
X477285Y300166D01*
X477289Y300167D01*
X477293Y300166D01*
X477446Y300187D01*
X477600Y300206D01*
X477604Y300208D01*
X477608Y300208D01*
X477752Y300266D01*
X477866Y300312D01*
X478734Y300181D01*
X478748Y300181D01*
X478763Y300177D01*
X478923Y300167D01*
X479810Y300167D01*
X479897Y300100D01*
X479901Y300098D01*
X479904Y300096D01*
X480048Y300035D01*
X480189Y299974D01*
X480193Y299973D01*
X480197Y299971D01*
X480354Y299937D01*
X481708Y299734D01*
X481712Y299734D01*
X481716Y299733D01*
X481872Y299730D01*
X482026Y299726D01*
X482030Y299727D01*
X482034Y299727D01*
X482184Y299763D01*
X482304Y299791D01*
X483143Y299532D01*
X483157Y299530D01*
X483171Y299524D01*
X483328Y299490D01*
X484205Y299358D01*
X484281Y299279D01*
X484285Y299276D01*
X484288Y299273D01*
X484323Y299251D01*
X484328Y299247D01*
X484351Y299234D01*
X484421Y299192D01*
X484551Y299110D01*
X484555Y299109D01*
X484558Y299107D01*
X484709Y299050D01*
X486017Y298647D01*
X486021Y298646D01*
X486025Y298644D01*
X486180Y298618D01*
X486330Y298592D01*
X486334Y298592D01*
X486338Y298592D01*
X486495Y298605D01*
X486615Y298614D01*
X487406Y298234D01*
X487420Y298229D01*
X487432Y298221D01*
X487583Y298164D01*
X488430Y297903D01*
X488494Y297813D01*
X488497Y297810D01*
X488499Y297807D01*
X488615Y297710D01*
X488735Y297607D01*
X488739Y297605D01*
X488742Y297602D01*
X488883Y297523D01*
X489772Y297095D01*
X489840Y297073D01*
X489904Y297041D01*
X489990Y297022D01*
X490073Y296994D01*
X490145Y296989D01*
X490215Y296974D01*
X490303Y296978D01*
X490391Y296972D01*
X490461Y296984D01*
X490533Y296987D01*
X490617Y297013D01*
X490704Y297028D01*
X490769Y297058D01*
X490837Y297079D01*
X490913Y297124D01*
X490993Y297161D01*
X491048Y297206D01*
X491109Y297243D01*
X491171Y297306D01*
X491239Y297362D01*
X491282Y297419D01*
X491332Y297470D01*
X491421Y297604D01*
X509518Y328949D01*
X510126Y328529D01*
X510153Y328518D01*
X510175Y328499D01*
X510244Y328479D01*
X510309Y328451D01*
X510338Y328451D01*
X510366Y328443D01*
X510437Y328451D01*
X510508Y328451D01*
X510535Y328462D01*
X510564Y328465D01*
X510626Y328500D01*
X510691Y328528D01*
X510712Y328548D01*
X510737Y328563D01*
X510800Y328640D01*
X510830Y328670D01*
X510834Y328680D01*
X510843Y328691D01*
X520343Y345191D01*
X520353Y345223D01*
X520362Y345236D01*
X520366Y345260D01*
X520367Y345264D01*
X520398Y345334D01*
X520398Y345358D01*
X520406Y345380D01*
X520400Y345456D01*
X520401Y345533D01*
X520391Y345557D01*
X520390Y345578D01*
X520369Y345617D01*
X520343Y345689D01*
X510843Y362189D01*
X510824Y362211D01*
X510811Y362237D01*
X510758Y362285D01*
X510711Y362338D01*
X510685Y362351D01*
X510664Y362370D01*
X510596Y362393D01*
X510532Y362424D01*
X510503Y362426D01*
X510476Y362435D01*
X510404Y362430D01*
X510333Y362433D01*
X510306Y362423D01*
X510277Y362421D01*
X510187Y362379D01*
X510147Y362364D01*
X510139Y362357D01*
X510126Y362351D01*
X509518Y361931D01*
X491421Y393276D01*
X491378Y393333D01*
X491343Y393395D01*
X491282Y393459D01*
X491229Y393529D01*
X491173Y393573D01*
X491124Y393625D01*
X491049Y393672D01*
X490980Y393727D01*
X490915Y393756D01*
X490854Y393794D01*
X490770Y393820D01*
X490689Y393856D01*
X490619Y393868D01*
X490551Y393890D01*
X490463Y393894D01*
X490376Y393909D01*
X490305Y393903D01*
X490233Y393907D01*
X490147Y393890D01*
X490059Y393883D01*
X489991Y393859D01*
X489921Y393845D01*
X489772Y393785D01*
X488883Y393357D01*
X488879Y393355D01*
X488875Y393353D01*
X488745Y393268D01*
X488616Y393184D01*
X488613Y393181D01*
X488609Y393179D01*
X488504Y393063D01*
X488422Y392974D01*
X487583Y392716D01*
X487569Y392710D01*
X487555Y392707D01*
X487406Y392646D01*
X486607Y392262D01*
X486499Y392285D01*
X486495Y392285D01*
X486491Y392285D01*
X486338Y392278D01*
X486181Y392272D01*
X486177Y392271D01*
X486173Y392271D01*
X486017Y392233D01*
X485373Y392035D01*
X485292Y391998D01*
X485208Y391971D01*
X485148Y391933D01*
X485083Y391904D01*
X485014Y391848D01*
X484939Y391801D01*
X484890Y391749D01*
X484835Y391705D01*
X484782Y391634D01*
X484721Y391569D01*
X484687Y391507D01*
X484644Y391451D01*
X484610Y391368D01*
X484567Y391291D01*
X484550Y391222D01*
X484523Y391157D01*
X484510Y391069D01*
X484488Y390983D01*
X484480Y390856D01*
X484478Y390842D01*
X484479Y390836D01*
X484478Y390822D01*
X484478Y325101D01*
X438487Y279110D01*
X438426Y279032D01*
X438358Y278960D01*
X438329Y278907D01*
X438292Y278859D01*
X438253Y278768D01*
X438205Y278681D01*
X438190Y278623D01*
X438166Y278567D01*
X438150Y278469D01*
X438125Y278373D01*
X438119Y278273D01*
X438116Y278253D01*
X438117Y278241D01*
X438115Y278213D01*
X438115Y257302D01*
X411953Y231139D01*
X394396Y231139D01*
X379305Y246230D01*
X379196Y246315D01*
X379089Y246404D01*
X379070Y246412D01*
X379054Y246425D01*
X378926Y246480D01*
X378801Y246539D01*
X378781Y246543D01*
X378762Y246551D01*
X378624Y246573D01*
X378488Y246599D01*
X378468Y246598D01*
X378448Y246601D01*
X378309Y246588D01*
X378171Y246579D01*
X378152Y246573D01*
X378132Y246571D01*
X378000Y246524D01*
X377869Y246481D01*
X377851Y246470D01*
X377832Y246464D01*
X377717Y246385D01*
X377600Y246311D01*
X377586Y246296D01*
X377569Y246285D01*
X377477Y246181D01*
X377382Y246079D01*
X377372Y246062D01*
X377359Y246047D01*
X377295Y245923D01*
X377228Y245801D01*
X377223Y245781D01*
X377214Y245763D01*
X377184Y245627D01*
X377149Y245493D01*
X377147Y245465D01*
X377144Y245453D01*
X377145Y245433D01*
X377139Y245332D01*
X377139Y242092D01*
X377151Y241994D01*
X377154Y241895D01*
X377171Y241837D01*
X377179Y241777D01*
X377215Y241685D01*
X377243Y241590D01*
X377273Y241538D01*
X377296Y241481D01*
X377354Y241401D01*
X377404Y241316D01*
X377470Y241240D01*
X377482Y241224D01*
X377492Y241216D01*
X377510Y241195D01*
X390685Y228020D01*
X390764Y227959D01*
X390836Y227891D01*
X390889Y227862D01*
X390937Y227825D01*
X391028Y227786D01*
X391114Y227738D01*
X391173Y227723D01*
X391229Y227699D01*
X391327Y227683D01*
X391422Y227658D01*
X391522Y227652D01*
X391543Y227649D01*
X391555Y227650D01*
X391583Y227648D01*
X420171Y227648D01*
X420269Y227661D01*
G37*
G36*
X433386Y194956D02*
X433386Y194956D01*
X433464Y194965D01*
X433483Y194976D01*
X433505Y194980D01*
X433569Y195024D01*
X433637Y195063D01*
X433653Y195082D01*
X433669Y195093D01*
X433693Y195131D01*
X433743Y195191D01*
X443243Y211691D01*
X443252Y211718D01*
X443268Y211742D01*
X443283Y211812D01*
X443306Y211880D01*
X443303Y211908D01*
X443309Y211936D01*
X443296Y212007D01*
X443290Y212078D01*
X443277Y212103D01*
X443271Y212131D01*
X443231Y212191D01*
X443198Y212254D01*
X443176Y212272D01*
X443160Y212296D01*
X443077Y212354D01*
X443045Y212381D01*
X443034Y212384D01*
X443024Y212391D01*
X442396Y212688D01*
X459918Y243038D01*
X459977Y243178D01*
X460038Y243318D01*
X460039Y243325D01*
X460042Y243331D01*
X460064Y243481D01*
X460088Y243632D01*
X460087Y243639D01*
X460088Y243646D01*
X460072Y243797D01*
X460058Y243949D01*
X460056Y243955D01*
X460055Y243962D01*
X460002Y244105D01*
X459950Y244248D01*
X459947Y244254D01*
X459944Y244260D01*
X459858Y244385D01*
X459772Y244511D01*
X459767Y244516D01*
X459763Y244521D01*
X459647Y244621D01*
X459533Y244722D01*
X459527Y244725D01*
X459522Y244729D01*
X459386Y244797D01*
X459250Y244866D01*
X459243Y244868D01*
X459237Y244871D01*
X459088Y244903D01*
X458940Y244936D01*
X458933Y244936D01*
X458926Y244937D01*
X458773Y244931D01*
X458622Y244926D01*
X458615Y244924D01*
X458609Y244924D01*
X458462Y244880D01*
X458316Y244838D01*
X458311Y244835D01*
X458304Y244833D01*
X458173Y244753D01*
X458042Y244676D01*
X458036Y244670D01*
X458032Y244668D01*
X458024Y244660D01*
X457922Y244570D01*
X427355Y214003D01*
X426497Y213677D01*
X384184Y213677D01*
X381937Y215924D01*
X381936Y215940D01*
X381920Y215998D01*
X381912Y216058D01*
X381875Y216150D01*
X381848Y216245D01*
X381817Y216297D01*
X381795Y216354D01*
X381737Y216434D01*
X381686Y216519D01*
X381620Y216595D01*
X381608Y216611D01*
X381599Y216619D01*
X381580Y216640D01*
X365024Y233196D01*
X365024Y237236D01*
X365009Y237354D01*
X365002Y237473D01*
X364989Y237511D01*
X364984Y237552D01*
X364941Y237662D01*
X364904Y237775D01*
X364882Y237810D01*
X364867Y237847D01*
X364798Y237943D01*
X364734Y238044D01*
X364704Y238072D01*
X364681Y238105D01*
X364589Y238181D01*
X364502Y238262D01*
X364467Y238282D01*
X364436Y238307D01*
X364328Y238358D01*
X364224Y238416D01*
X364184Y238426D01*
X364148Y238443D01*
X364031Y238465D01*
X363916Y238495D01*
X363856Y238499D01*
X363836Y238503D01*
X363815Y238501D01*
X363755Y238505D01*
X333946Y238505D01*
X333877Y238497D01*
X333807Y238498D01*
X333720Y238477D01*
X333630Y238465D01*
X333565Y238440D01*
X333498Y238423D01*
X333418Y238381D01*
X333335Y238348D01*
X333278Y238307D01*
X333217Y238275D01*
X333150Y238214D01*
X333077Y238162D01*
X333033Y238108D01*
X332981Y238061D01*
X332932Y237986D01*
X332875Y237917D01*
X332845Y237853D01*
X332806Y237795D01*
X332777Y237710D01*
X332739Y237629D01*
X332726Y237560D01*
X332703Y237494D01*
X332696Y237405D01*
X332679Y237317D01*
X332684Y237247D01*
X332678Y237177D01*
X332693Y237089D01*
X332699Y236999D01*
X332720Y236933D01*
X332732Y236864D01*
X332769Y236782D01*
X332797Y236697D01*
X332834Y236638D01*
X332863Y236574D01*
X332919Y236504D01*
X332967Y236428D01*
X333018Y236380D01*
X333062Y236326D01*
X333133Y236271D01*
X333199Y236210D01*
X333260Y236176D01*
X333316Y236134D01*
X333460Y236063D01*
X335225Y235332D01*
X336932Y233625D01*
X337856Y231395D01*
X337856Y228980D01*
X336932Y226750D01*
X335950Y225768D01*
X335898Y225700D01*
X335838Y225639D01*
X335801Y225575D01*
X335755Y225516D01*
X335721Y225438D01*
X335679Y225364D01*
X335658Y225293D01*
X335629Y225224D01*
X335615Y225140D01*
X335592Y225058D01*
X335591Y224984D01*
X335579Y224910D01*
X335587Y224825D01*
X335585Y224740D01*
X335602Y224668D01*
X335609Y224594D01*
X335638Y224514D01*
X335657Y224431D01*
X335691Y224364D01*
X335716Y224294D01*
X335764Y224224D01*
X335804Y224148D01*
X335853Y224093D01*
X335895Y224031D01*
X335959Y223975D01*
X336016Y223911D01*
X336078Y223870D01*
X336133Y223821D01*
X336209Y223782D01*
X336280Y223735D01*
X336407Y223681D01*
X336417Y223676D01*
X336421Y223675D01*
X336428Y223672D01*
X336506Y223645D01*
X336510Y223644D01*
X336514Y223642D01*
X336666Y223611D01*
X336817Y223578D01*
X336822Y223578D01*
X336826Y223577D01*
X336979Y223585D01*
X337135Y223591D01*
X337139Y223592D01*
X337143Y223592D01*
X337300Y223630D01*
X338605Y224033D01*
X338609Y224034D01*
X338613Y224035D01*
X338753Y224099D01*
X338895Y224164D01*
X338898Y224166D01*
X338902Y224168D01*
X339023Y224266D01*
X339118Y224343D01*
X339986Y224473D01*
X340000Y224477D01*
X340014Y224478D01*
X340171Y224516D01*
X341019Y224777D01*
X341122Y224738D01*
X341126Y224738D01*
X341130Y224736D01*
X341285Y224720D01*
X341438Y224704D01*
X341442Y224704D01*
X341446Y224704D01*
X341606Y224718D01*
X342957Y224921D01*
X342961Y224922D01*
X342965Y224922D01*
X343113Y224965D01*
X343263Y225008D01*
X343267Y225010D01*
X343271Y225011D01*
X343403Y225089D01*
X343510Y225151D01*
X344388Y225151D01*
X344403Y225153D01*
X344417Y225152D01*
X344577Y225165D01*
X345455Y225298D01*
X345551Y225244D01*
X345555Y225243D01*
X345558Y225241D01*
X345707Y225203D01*
X345858Y225163D01*
X345862Y225162D01*
X345866Y225161D01*
X346027Y225151D01*
X347393Y225151D01*
X347397Y225152D01*
X347401Y225151D01*
X347554Y225172D01*
X347709Y225191D01*
X347712Y225193D01*
X347716Y225193D01*
X347860Y225251D01*
X347974Y225296D01*
X348843Y225165D01*
X348857Y225165D01*
X348871Y225161D01*
X349032Y225151D01*
X349919Y225151D01*
X350006Y225084D01*
X350009Y225082D01*
X350013Y225080D01*
X350157Y225018D01*
X350298Y224958D01*
X350302Y224957D01*
X350305Y224955D01*
X350463Y224921D01*
X351814Y224718D01*
X351818Y224717D01*
X351822Y224716D01*
X351979Y224714D01*
X352132Y224710D01*
X352136Y224711D01*
X352140Y224711D01*
X352293Y224747D01*
X352410Y224774D01*
X353249Y224516D01*
X353263Y224513D01*
X353277Y224507D01*
X353434Y224473D01*
X354311Y224341D01*
X354387Y224262D01*
X354391Y224259D01*
X354393Y224256D01*
X354524Y224176D01*
X354657Y224093D01*
X354661Y224092D01*
X354664Y224090D01*
X354815Y224033D01*
X356120Y223630D01*
X356124Y223629D01*
X356128Y223628D01*
X356280Y223602D01*
X356433Y223575D01*
X356438Y223575D01*
X356442Y223575D01*
X356596Y223588D01*
X356719Y223597D01*
X357510Y223216D01*
X357523Y223212D01*
X357536Y223204D01*
X357686Y223147D01*
X358534Y222885D01*
X358597Y222795D01*
X358600Y222793D01*
X358603Y222789D01*
X358720Y222690D01*
X358839Y222589D01*
X358842Y222587D01*
X358845Y222584D01*
X358986Y222505D01*
X360217Y221913D01*
X360221Y221911D01*
X360224Y221909D01*
X360370Y221861D01*
X360518Y221812D01*
X360522Y221811D01*
X360526Y221810D01*
X360680Y221800D01*
X360803Y221791D01*
X361529Y221296D01*
X361542Y221290D01*
X361553Y221280D01*
X361693Y221201D01*
X362492Y220817D01*
X362541Y220718D01*
X362544Y220715D01*
X362546Y220711D01*
X362649Y220594D01*
X362749Y220478D01*
X362753Y220475D01*
X362756Y220472D01*
X362883Y220373D01*
X364011Y219604D01*
X364015Y219602D01*
X364018Y219599D01*
X364156Y219529D01*
X364294Y219459D01*
X364298Y219458D01*
X364302Y219456D01*
X364454Y219423D01*
X364573Y219396D01*
X365217Y218799D01*
X365229Y218791D01*
X365238Y218780D01*
X365365Y218681D01*
X366098Y218181D01*
X366132Y218076D01*
X366134Y218073D01*
X366136Y218069D01*
X366221Y217936D01*
X366302Y217808D01*
X366305Y217805D01*
X366307Y217801D01*
X366418Y217684D01*
X367419Y216755D01*
X367423Y216753D01*
X367426Y216750D01*
X367552Y216660D01*
X367678Y216570D01*
X367682Y216568D01*
X367685Y216566D01*
X367830Y216511D01*
X367944Y216466D01*
X368492Y215780D01*
X368502Y215770D01*
X368510Y215758D01*
X368621Y215641D01*
X369271Y215037D01*
X369289Y214929D01*
X369291Y214925D01*
X369291Y214921D01*
X369355Y214778D01*
X369417Y214638D01*
X369419Y214635D01*
X369421Y214631D01*
X369513Y214499D01*
X370365Y213431D01*
X370368Y213428D01*
X370370Y213424D01*
X370484Y213315D01*
X370593Y213209D01*
X370596Y213207D01*
X370599Y213204D01*
X370734Y213128D01*
X370841Y213067D01*
X371280Y212306D01*
X371289Y212295D01*
X371295Y212281D01*
X371387Y212149D01*
X371940Y211456D01*
X371941Y211346D01*
X371942Y211342D01*
X371942Y211338D01*
X371984Y211187D01*
X372024Y211039D01*
X372026Y211036D01*
X372028Y211031D01*
X372099Y210887D01*
X372782Y209704D01*
X372785Y209701D01*
X372786Y209697D01*
X372880Y209575D01*
X372974Y209451D01*
X372978Y209448D01*
X372980Y209445D01*
X373104Y209348D01*
X373198Y209273D01*
X373519Y208456D01*
X373526Y208443D01*
X373530Y208429D01*
X373602Y208285D01*
X374045Y207517D01*
X374030Y207408D01*
X374031Y207404D01*
X374030Y207400D01*
X374049Y207245D01*
X374067Y207092D01*
X374068Y207088D01*
X374069Y207084D01*
X374118Y206931D01*
X374617Y205659D01*
X374619Y205655D01*
X374620Y205651D01*
X374697Y205513D01*
X374769Y205380D01*
X374772Y205377D01*
X374774Y205373D01*
X374880Y205261D01*
X374964Y205171D01*
X375160Y204315D01*
X375165Y204301D01*
X375166Y204287D01*
X375216Y204133D01*
X375540Y203308D01*
X375509Y203202D01*
X375509Y203198D01*
X375507Y203194D01*
X375503Y203040D01*
X375498Y202884D01*
X375499Y202880D01*
X375499Y202876D01*
X375524Y202717D01*
X375828Y201385D01*
X375830Y201381D01*
X375830Y201377D01*
X375884Y201232D01*
X375937Y201087D01*
X375940Y201083D01*
X375941Y201079D01*
X376030Y200952D01*
X376099Y200851D01*
X376165Y199975D01*
X376168Y199961D01*
X376167Y199947D01*
X376193Y199788D01*
X376390Y198923D01*
X376344Y198823D01*
X376343Y198819D01*
X376342Y198816D01*
X376313Y198659D01*
X376286Y198511D01*
X376286Y198507D01*
X376285Y198502D01*
X376287Y198342D01*
X376360Y197369D01*
X376374Y197299D01*
X376379Y197227D01*
X376406Y197144D01*
X376423Y197058D01*
X376455Y196993D01*
X376477Y196925D01*
X376524Y196850D01*
X376562Y196771D01*
X376608Y196717D01*
X376647Y196656D01*
X376711Y196596D01*
X376768Y196529D01*
X376826Y196487D01*
X376879Y196438D01*
X376955Y196396D01*
X377027Y196345D01*
X377094Y196319D01*
X377157Y196284D01*
X377242Y196263D01*
X377324Y196231D01*
X377396Y196223D01*
X377465Y196205D01*
X377626Y196195D01*
X413869Y196195D01*
X413812Y195480D01*
X413816Y195451D01*
X413811Y195423D01*
X413828Y195354D01*
X413836Y195282D01*
X413851Y195258D01*
X413857Y195230D01*
X413900Y195172D01*
X413936Y195110D01*
X413958Y195093D01*
X413975Y195070D01*
X414037Y195033D01*
X414094Y194990D01*
X414122Y194983D01*
X414146Y194968D01*
X414246Y194952D01*
X414287Y194941D01*
X414297Y194943D01*
X414310Y194941D01*
X433310Y194941D01*
X433386Y194956D01*
G37*
G36*
X478651Y393007D02*
X478651Y393007D01*
X478694Y393006D01*
X482687Y393607D01*
X482717Y393618D01*
X482760Y393623D01*
X486619Y394812D01*
X486647Y394827D01*
X486688Y394839D01*
X490326Y396590D01*
X490348Y396607D01*
X490374Y396616D01*
X490427Y396666D01*
X490485Y396710D01*
X490498Y396734D01*
X490518Y396753D01*
X490548Y396819D01*
X490584Y396883D01*
X490587Y396910D01*
X490598Y396935D01*
X490599Y397008D01*
X490608Y397080D01*
X490600Y397106D01*
X490600Y397134D01*
X490564Y397232D01*
X490552Y397271D01*
X490546Y397279D01*
X490542Y397290D01*
X463542Y444090D01*
X463524Y444110D01*
X463513Y444135D01*
X463459Y444184D01*
X463411Y444239D01*
X463386Y444250D01*
X463366Y444269D01*
X463297Y444293D01*
X463231Y444324D01*
X463204Y444326D01*
X463179Y444335D01*
X463106Y444330D01*
X463033Y444333D01*
X463007Y444324D01*
X462980Y444322D01*
X462884Y444278D01*
X462846Y444264D01*
X462839Y444257D01*
X462829Y444253D01*
X459492Y441979D01*
X459470Y441956D01*
X459434Y441933D01*
X456473Y439187D01*
X456454Y439161D01*
X456422Y439133D01*
X453904Y435977D01*
X453889Y435948D01*
X453862Y435915D01*
X451842Y432419D01*
X451832Y432389D01*
X451809Y432352D01*
X450333Y428594D01*
X450328Y428562D01*
X450311Y428522D01*
X449411Y424586D01*
X449411Y424554D01*
X449400Y424512D01*
X449097Y420486D01*
X449100Y420463D01*
X449097Y420443D01*
X449099Y420433D01*
X449097Y420412D01*
X449398Y416385D01*
X449406Y416354D01*
X449409Y416311D01*
X450306Y412375D01*
X450319Y412346D01*
X450328Y412303D01*
X451802Y408544D01*
X451819Y408517D01*
X451834Y408477D01*
X453852Y404980D01*
X453873Y404956D01*
X453894Y404918D01*
X456410Y401760D01*
X456435Y401740D01*
X456461Y401706D01*
X459420Y398958D01*
X459447Y398942D01*
X459478Y398912D01*
X462814Y396636D01*
X462843Y396624D01*
X462878Y396599D01*
X466516Y394846D01*
X466546Y394838D01*
X466585Y394819D01*
X470443Y393627D01*
X470475Y393624D01*
X470516Y393611D01*
X474508Y393008D01*
X474540Y393009D01*
X474582Y393002D01*
X478620Y393001D01*
X478651Y393007D01*
G37*
G36*
X218838Y393002D02*
X218838Y393002D01*
X218869Y393008D01*
X218912Y393008D01*
X222904Y393611D01*
X222934Y393622D01*
X222977Y393627D01*
X226835Y394819D01*
X226863Y394834D01*
X226905Y394846D01*
X230542Y396599D01*
X230567Y396618D01*
X230606Y396636D01*
X233942Y398912D01*
X233964Y398935D01*
X234000Y398958D01*
X236959Y401706D01*
X236978Y401731D01*
X237010Y401760D01*
X239526Y404918D01*
X239541Y404946D01*
X239568Y404980D01*
X241586Y408477D01*
X241596Y408507D01*
X241618Y408544D01*
X243092Y412303D01*
X243098Y412335D01*
X243114Y412375D01*
X244011Y416311D01*
X244012Y416343D01*
X244022Y416385D01*
X244323Y420412D01*
X244319Y420443D01*
X244320Y420459D01*
X244323Y420476D01*
X244322Y420480D01*
X244323Y420486D01*
X244020Y424512D01*
X244011Y424543D01*
X244009Y424586D01*
X243109Y428522D01*
X243096Y428551D01*
X243087Y428594D01*
X241611Y432352D01*
X241593Y432379D01*
X241578Y432419D01*
X239558Y435915D01*
X239537Y435939D01*
X239516Y435977D01*
X236998Y439133D01*
X236973Y439153D01*
X236947Y439187D01*
X233986Y441933D01*
X233959Y441949D01*
X233928Y441979D01*
X230591Y444253D01*
X230566Y444263D01*
X230545Y444280D01*
X230475Y444301D01*
X230408Y444330D01*
X230380Y444330D01*
X230354Y444337D01*
X230282Y444329D01*
X230209Y444329D01*
X230184Y444318D01*
X230157Y444315D01*
X230093Y444279D01*
X230026Y444251D01*
X230007Y444231D01*
X229984Y444218D01*
X229917Y444137D01*
X229888Y444107D01*
X229885Y444098D01*
X229878Y444090D01*
X202878Y397290D01*
X202869Y397264D01*
X202853Y397241D01*
X202838Y397170D01*
X202814Y397101D01*
X202817Y397074D01*
X202811Y397047D01*
X202824Y396976D01*
X202830Y396903D01*
X202843Y396878D01*
X202848Y396852D01*
X202888Y396791D01*
X202922Y396726D01*
X202943Y396709D01*
X202958Y396686D01*
X203044Y396625D01*
X203075Y396600D01*
X203084Y396597D01*
X203094Y396590D01*
X206732Y394839D01*
X206763Y394832D01*
X206801Y394812D01*
X210660Y393623D01*
X210692Y393620D01*
X210733Y393607D01*
X214726Y393006D01*
X214757Y393008D01*
X214800Y393001D01*
X218838Y393002D01*
G37*
G36*
X463138Y246551D02*
X463138Y246551D01*
X463211Y246551D01*
X463236Y246562D01*
X463263Y246565D01*
X463327Y246601D01*
X463394Y246629D01*
X463413Y246649D01*
X463436Y246662D01*
X463504Y246743D01*
X463532Y246773D01*
X463535Y246782D01*
X463542Y246791D01*
X490542Y293591D01*
X490551Y293616D01*
X490567Y293639D01*
X490582Y293710D01*
X490606Y293779D01*
X490603Y293806D01*
X490609Y293833D01*
X490596Y293904D01*
X490590Y293977D01*
X490577Y294002D01*
X490572Y294028D01*
X490532Y294089D01*
X490498Y294154D01*
X490477Y294171D01*
X490462Y294194D01*
X490376Y294255D01*
X490345Y294280D01*
X490336Y294283D01*
X490326Y294290D01*
X486688Y296041D01*
X486657Y296048D01*
X486619Y296068D01*
X482760Y297257D01*
X482728Y297260D01*
X482687Y297273D01*
X478694Y297874D01*
X478663Y297872D01*
X478620Y297879D01*
X474582Y297878D01*
X474551Y297872D01*
X474508Y297872D01*
X470516Y297269D01*
X470486Y297258D01*
X470443Y297253D01*
X466585Y296061D01*
X466557Y296046D01*
X466516Y296034D01*
X462878Y294281D01*
X462853Y294262D01*
X462814Y294244D01*
X459478Y291968D01*
X459456Y291945D01*
X459420Y291922D01*
X456461Y289174D01*
X456442Y289149D01*
X456410Y289120D01*
X453894Y285962D01*
X453879Y285934D01*
X453852Y285900D01*
X451834Y282403D01*
X451824Y282373D01*
X451802Y282336D01*
X450328Y278577D01*
X450322Y278545D01*
X450306Y278505D01*
X449409Y274569D01*
X449408Y274537D01*
X449398Y274495D01*
X449097Y270469D01*
X449101Y270437D01*
X449097Y270394D01*
X449400Y266368D01*
X449409Y266337D01*
X449411Y266294D01*
X450311Y262358D01*
X450324Y262329D01*
X450333Y262286D01*
X451809Y258528D01*
X451827Y258501D01*
X451842Y258461D01*
X453862Y254965D01*
X453883Y254941D01*
X453904Y254903D01*
X456422Y251747D01*
X456447Y251727D01*
X456473Y251693D01*
X459434Y248947D01*
X459461Y248931D01*
X459492Y248901D01*
X462829Y246627D01*
X462854Y246617D01*
X462875Y246600D01*
X462945Y246579D01*
X463012Y246550D01*
X463040Y246551D01*
X463066Y246543D01*
X463138Y246551D01*
G37*
G36*
X230314Y246550D02*
X230314Y246550D01*
X230387Y246547D01*
X230413Y246556D01*
X230440Y246558D01*
X230536Y246602D01*
X230574Y246616D01*
X230581Y246623D01*
X230591Y246627D01*
X233928Y248901D01*
X233950Y248924D01*
X233986Y248947D01*
X236947Y251693D01*
X236966Y251719D01*
X236998Y251747D01*
X239516Y254903D01*
X239531Y254932D01*
X239558Y254965D01*
X241578Y258461D01*
X241588Y258491D01*
X241611Y258528D01*
X243087Y262286D01*
X243092Y262318D01*
X243109Y262358D01*
X244009Y266294D01*
X244009Y266326D01*
X244020Y266368D01*
X244323Y270394D01*
X244319Y270425D01*
X244323Y270469D01*
X244022Y274495D01*
X244014Y274526D01*
X244011Y274569D01*
X243114Y278505D01*
X243101Y278534D01*
X243092Y278577D01*
X241618Y282336D01*
X241601Y282363D01*
X241586Y282403D01*
X239568Y285900D01*
X239547Y285924D01*
X239526Y285962D01*
X237010Y289120D01*
X236985Y289140D01*
X236959Y289174D01*
X234000Y291922D01*
X233973Y291938D01*
X233942Y291968D01*
X230606Y294244D01*
X230577Y294256D01*
X230542Y294281D01*
X226905Y296034D01*
X226874Y296042D01*
X226835Y296061D01*
X222977Y297253D01*
X222945Y297256D01*
X222904Y297269D01*
X218912Y297872D01*
X218880Y297871D01*
X218838Y297878D01*
X214800Y297879D01*
X214769Y297873D01*
X214726Y297874D01*
X210733Y297273D01*
X210703Y297262D01*
X210660Y297257D01*
X206801Y296068D01*
X206773Y296053D01*
X206732Y296041D01*
X203094Y294290D01*
X203072Y294273D01*
X203046Y294264D01*
X202993Y294214D01*
X202935Y294170D01*
X202922Y294146D01*
X202902Y294127D01*
X202872Y294061D01*
X202836Y293997D01*
X202833Y293970D01*
X202822Y293945D01*
X202821Y293872D01*
X202812Y293800D01*
X202820Y293774D01*
X202820Y293746D01*
X202856Y293648D01*
X202868Y293609D01*
X202874Y293601D01*
X202878Y293591D01*
X229878Y246791D01*
X229896Y246770D01*
X229907Y246745D01*
X229961Y246696D01*
X230009Y246642D01*
X230034Y246630D01*
X230054Y246611D01*
X230123Y246587D01*
X230189Y246556D01*
X230216Y246555D01*
X230241Y246545D01*
X230314Y246550D01*
G37*
G36*
X373737Y194946D02*
X373737Y194946D01*
X373764Y194944D01*
X373833Y194966D01*
X373905Y194980D01*
X373927Y194996D01*
X373953Y195004D01*
X374009Y195052D01*
X374069Y195093D01*
X374083Y195116D01*
X374104Y195134D01*
X374137Y195199D01*
X374176Y195260D01*
X374180Y195287D01*
X374192Y195312D01*
X374202Y195416D01*
X374209Y195457D01*
X374207Y195466D01*
X374208Y195477D01*
X373906Y199501D01*
X373898Y199532D01*
X373895Y199575D01*
X372997Y203509D01*
X372984Y203538D01*
X372975Y203581D01*
X371501Y207337D01*
X371484Y207364D01*
X371469Y207405D01*
X369451Y210899D01*
X369430Y210923D01*
X369409Y210961D01*
X366893Y214116D01*
X366868Y214136D01*
X366842Y214171D01*
X363884Y216915D01*
X363857Y216932D01*
X363825Y216962D01*
X360491Y219235D01*
X360462Y219248D01*
X360427Y219273D01*
X356791Y221023D01*
X356760Y221031D01*
X356721Y221051D01*
X352865Y222240D01*
X352834Y222243D01*
X352792Y222257D01*
X348802Y222858D01*
X348770Y222857D01*
X348728Y222864D01*
X344692Y222864D01*
X344661Y222857D01*
X344618Y222858D01*
X340628Y222257D01*
X340598Y222246D01*
X340555Y222240D01*
X336699Y221051D01*
X336671Y221035D01*
X336629Y221023D01*
X332993Y219273D01*
X332968Y219253D01*
X332929Y219235D01*
X329595Y216962D01*
X329572Y216939D01*
X329536Y216915D01*
X326578Y214171D01*
X326560Y214145D01*
X326527Y214116D01*
X324011Y210961D01*
X323997Y210933D01*
X323969Y210899D01*
X321951Y207405D01*
X321941Y207374D01*
X321919Y207337D01*
X320445Y203581D01*
X320439Y203549D01*
X320423Y203509D01*
X319525Y199575D01*
X319524Y199543D01*
X319514Y199501D01*
X319212Y195477D01*
X319216Y195450D01*
X319211Y195423D01*
X319228Y195353D01*
X319237Y195280D01*
X319251Y195256D01*
X319257Y195230D01*
X319300Y195171D01*
X319337Y195108D01*
X319359Y195092D01*
X319375Y195070D01*
X319438Y195033D01*
X319496Y194989D01*
X319523Y194982D01*
X319546Y194968D01*
X319650Y194951D01*
X319689Y194941D01*
X319699Y194943D01*
X319710Y194941D01*
X373710Y194941D01*
X373737Y194946D01*
G37*
%LPC*%
G36*
X298830Y251106D02*
X298830Y251106D01*
X296600Y252030D01*
X294893Y253737D01*
X293969Y255968D01*
X293969Y258382D01*
X294893Y260613D01*
X294908Y260628D01*
X294939Y260668D01*
X294976Y260701D01*
X295036Y260793D01*
X295103Y260880D01*
X295123Y260925D01*
X295151Y260967D01*
X295186Y261071D01*
X295230Y261172D01*
X295238Y261221D01*
X295254Y261268D01*
X295262Y261377D01*
X295280Y261486D01*
X295275Y261535D01*
X295279Y261585D01*
X295260Y261693D01*
X295250Y261802D01*
X295233Y261849D01*
X295225Y261898D01*
X295179Y261998D01*
X295142Y262102D01*
X295114Y262143D01*
X295094Y262188D01*
X295025Y262274D01*
X294964Y262365D01*
X294926Y262398D01*
X294895Y262436D01*
X294808Y262503D01*
X294725Y262575D01*
X294681Y262598D01*
X294641Y262628D01*
X294497Y262699D01*
X293425Y263143D01*
X291718Y264850D01*
X290794Y267080D01*
X290794Y269495D01*
X291718Y271725D01*
X293425Y273432D01*
X295655Y274356D01*
X297376Y274356D01*
X297474Y274369D01*
X297573Y274372D01*
X297631Y274388D01*
X297691Y274396D01*
X297783Y274433D01*
X297878Y274460D01*
X297930Y274491D01*
X297987Y274513D01*
X298067Y274571D01*
X298152Y274622D01*
X298228Y274688D01*
X298244Y274700D01*
X298252Y274709D01*
X298273Y274728D01*
X299000Y275455D01*
X316542Y275455D01*
X317882Y274115D01*
X317882Y254677D01*
X316542Y253337D01*
X305308Y253337D01*
X305210Y253325D01*
X305111Y253322D01*
X305053Y253305D01*
X304992Y253297D01*
X304900Y253261D01*
X304805Y253233D01*
X304753Y253203D01*
X304697Y253180D01*
X304617Y253122D01*
X304531Y253072D01*
X304456Y253006D01*
X304439Y252994D01*
X304432Y252984D01*
X304411Y252966D01*
X303475Y252030D01*
X301245Y251106D01*
X298830Y251106D01*
G37*
%LPD*%
D10*
X433705Y367910D03*
X433705Y350910D03*
D11*
X406083Y351180D03*
X406083Y370180D03*
D12*
X408940Y257240D03*
X408940Y269240D03*
X408940Y281240D03*
D13*
X386080Y406963D03*
X386080Y389963D03*
X392820Y437515D03*
X409820Y437515D03*
D10*
X402908Y297253D03*
X402908Y314253D03*
D13*
X262328Y263208D03*
X279328Y263208D03*
D14*
X282868Y292735D03*
X263868Y292735D03*
D10*
X285043Y359728D03*
X268043Y359728D03*
D11*
X431165Y331445D03*
X431165Y312445D03*
D13*
X458470Y368228D03*
X458470Y351228D03*
D10*
X315668Y411480D03*
X332668Y411480D03*
D13*
X359728Y405058D03*
X359728Y388058D03*
D10*
X307413Y385128D03*
X324413Y385128D03*
D15*
X511910Y345440D03*
X429310Y202340D03*
X264110Y202340D03*
X181510Y345440D03*
X470610Y416940D03*
X470610Y273940D03*
X346710Y202340D03*
X222810Y273940D03*
X222810Y416940D03*
D13*
X368863Y471488D03*
X351863Y471488D03*
D14*
X352450Y433388D03*
X371450Y433388D03*
D16*
X380619Y306907D03*
X380619Y301906D03*
X380619Y296904D03*
X380619Y291903D03*
X380619Y286902D03*
X380619Y281901D03*
X380619Y276899D03*
X380619Y271898D03*
X380619Y266897D03*
X380619Y261896D03*
X380619Y256894D03*
X380619Y251893D03*
D17*
X373582Y244856D03*
X368581Y244856D03*
X363579Y244856D03*
X358578Y244856D03*
X353577Y244856D03*
X348576Y244856D03*
X343574Y244856D03*
X338573Y244856D03*
X333572Y244856D03*
X328571Y244856D03*
X323569Y244856D03*
X318568Y244856D03*
D16*
X311531Y251893D03*
X311531Y256894D03*
X311531Y261896D03*
X311531Y266897D03*
X311531Y271898D03*
X311531Y276899D03*
X311531Y281901D03*
X311531Y286902D03*
X311531Y291903D03*
X311531Y296904D03*
X311531Y301906D03*
X311531Y306907D03*
D17*
X318568Y313944D03*
X323569Y313944D03*
X328571Y313944D03*
X333572Y313944D03*
X338573Y313944D03*
X343574Y313944D03*
X348576Y313944D03*
X353577Y313944D03*
X358578Y313944D03*
X363579Y313944D03*
X368581Y313944D03*
X373582Y313944D03*
D18*
X346075Y279400D03*
D19*
X438150Y392113D03*
D20*
X239713Y376238D03*
X239713Y350838D03*
X239713Y325438D03*
D21*
X323850Y260350D03*
D22*
X371450Y433388D02*
X371450Y468900D01*
D23*
X368863Y471488D01*
D24*
X385763Y471488D01*
D21*
X385763Y471488D03*
X465138Y336550D03*
X485775Y315913D03*
X423863Y236538D03*
X439738Y220663D03*
X300038Y346075D03*
X385763Y339725D03*
D23*
X359728Y405058D02*
X358775Y406010D01*
X352450Y433388D02*
X351863Y433975D01*
D22*
X351863Y471488D01*
D24*
X336550Y471488D01*
D21*
X336550Y471488D03*
D22*
X307413Y403225D02*
X307413Y385128D01*
X307413Y403225D02*
X315668Y411480D01*
X359728Y405058D02*
X384175Y405058D01*
D23*
X386080Y406963D01*
D24*
X358775Y427063D02*
X352450Y433388D01*
X358775Y427063D02*
X358775Y406010D01*
D22*
X352450Y433388D02*
X333375Y433388D01*
X315668Y415680D01*
D24*
X315668Y411480D01*
D23*
X386080Y406963D02*
X388693Y409575D01*
D22*
X423863Y409575D01*
D21*
X423863Y409575D03*
D22*
X279328Y289195D02*
X279328Y263208D01*
D25*
X279328Y289195D02*
X282868Y292735D01*
X289025Y292735D01*
D23*
X293334Y288426D01*
D25*
X296684Y281901D02*
X311531Y281901D01*
X296684Y281901D02*
X293334Y285251D01*
X293334Y288426D01*
D22*
X279328Y263208D02*
X279083Y262963D01*
X279083Y250508D01*
X277813Y249238D01*
X257175Y249238D01*
D21*
X257175Y249238D03*
D25*
X393503Y266897D02*
X403225Y257175D01*
X408875Y257175D02*
X408940Y257240D01*
X408875Y257175D02*
X403225Y257175D01*
X393503Y266897D02*
X380619Y266897D01*
X380619Y256894D02*
X386044Y256894D01*
X400050Y242888D01*
D21*
X400050Y242888D03*
D23*
X395975Y234950D02*
X410374Y234950D01*
D25*
X380619Y250306D02*
X380619Y251893D01*
D23*
X380619Y250306D02*
X395975Y234950D01*
X434305Y258880D02*
X434305Y280317D01*
X434305Y258880D02*
X410374Y234950D01*
X480667Y406883D02*
X470610Y416940D01*
X480667Y326680D02*
X434305Y280317D01*
X480667Y326680D02*
X480667Y406883D01*
D25*
X447675Y250825D02*
X447675Y249238D01*
D23*
X422275Y223838D01*
D21*
X447675Y250825D03*
D23*
X422275Y223838D02*
X389838Y223838D01*
D25*
X373582Y240094D02*
X373582Y244856D01*
X373582Y240094D02*
X389838Y223838D01*
D23*
X385763Y217488D02*
X425450Y217488D01*
D25*
X468632Y260670D02*
X470610Y264095D01*
X470610Y273940D01*
D23*
X468632Y260670D02*
X425450Y217488D01*
D25*
X368581Y234669D02*
X368581Y244856D01*
X368581Y234669D02*
X385763Y217488D01*
D21*
X331788Y230188D03*
D25*
X328571Y233404D02*
X328571Y244856D01*
X328571Y233404D02*
X331788Y230188D01*
D22*
X323569Y219356D02*
X341313Y201613D01*
D25*
X345983Y201613D01*
X346710Y202340D01*
X323569Y219356D02*
X323569Y244856D01*
D21*
X250825Y417513D03*
D23*
X258763Y417513D02*
X338573Y337702D01*
X258763Y417513D02*
X250825Y417513D01*
D25*
X338573Y337702D02*
X338573Y313944D01*
D22*
X270264Y394715D02*
X245035Y394715D01*
D23*
X222810Y416940D01*
D25*
X328810Y339344D02*
X333572Y334582D01*
X333572Y313944D01*
D23*
X328810Y339344D02*
X325635Y339344D01*
X270264Y394715D01*
D21*
X296863Y268288D03*
D25*
X300473Y271898D02*
X311531Y271898D01*
X300473Y271898D02*
X296863Y268288D01*
D23*
X222810Y273940D02*
X222810Y274638D01*
X223838Y274638D01*
D22*
X247462Y298533D02*
X254307Y305379D01*
D25*
X247462Y298533D02*
X247462Y298262D01*
D22*
X254307Y305379D02*
X290840Y305379D01*
X247462Y298262D02*
X223838Y274638D01*
X290840Y305379D02*
X293347Y302872D01*
D25*
X306059Y286902D02*
X311531Y286902D01*
D23*
X293347Y299614D02*
X293347Y302872D01*
D25*
X293347Y299614D02*
X306059Y286902D01*
X311531Y301906D02*
X311495Y301943D01*
D26*
X274638Y325438D02*
X239713Y325438D01*
X274638Y325438D02*
X284163Y315913D01*
D25*
X284346Y315729D01*
X288393Y315729D01*
X302179Y301943D02*
X311495Y301943D01*
X302179Y301943D02*
X288393Y315729D01*
D26*
X239713Y363538D02*
X239713Y376238D01*
X239713Y363538D02*
X239713Y350838D01*
X243523Y359728D02*
X257175Y359728D01*
X243523Y359728D02*
X239713Y363538D01*
X257175Y359728D02*
X300990Y315913D01*
X301625Y315913D01*
D25*
X302526Y315913D01*
X311531Y306907D01*
D26*
X268043Y359728D02*
X257175Y359728D01*
D21*
X300038Y257175D03*
D25*
X305081Y256894D02*
X311531Y256894D01*
X305081Y256894D02*
X304800Y257175D01*
X300038Y257175D01*
D22*
X438150Y392113D02*
X450850Y392113D01*
D23*
X473075Y369888D01*
X473075Y327025D01*
X420493Y436368D02*
X419345Y437515D01*
X473075Y327025D02*
X428625Y282575D01*
X428625Y261938D01*
X417513Y250825D01*
X400050Y250825D01*
X389058Y261817D01*
D22*
X438150Y392113D02*
X438150Y418710D01*
X420493Y436368D01*
X419345Y437515D02*
X409820Y437515D01*
D25*
X388979Y261896D02*
X389058Y261817D01*
X388979Y261896D02*
X380619Y261896D01*
X403994Y281240D02*
X408940Y281240D01*
X403994Y281240D02*
X394653Y271898D01*
X380619Y271898D01*
D24*
X381318Y385200D02*
X386080Y389963D01*
X381318Y385200D02*
X381318Y356870D01*
D21*
X382588Y355600D03*
D24*
X381318Y356870D01*
D25*
X373582Y335318D02*
X373582Y313944D01*
X373915Y346928D02*
X382588Y355600D01*
X373915Y335651D02*
X373582Y335318D01*
X373915Y335651D02*
X373915Y346928D01*
D21*
X336550Y379413D03*
D24*
X330835Y385128D02*
X324413Y385128D01*
X330835Y385128D02*
X336550Y379413D01*
X336550Y354013D02*
X355403Y335160D01*
X336550Y354013D02*
X336550Y379413D01*
D25*
X358578Y331985D02*
X358578Y313944D01*
X358578Y331985D02*
X355403Y335160D01*
D21*
X344488Y385763D03*
D24*
X344488Y358775D01*
D25*
X363579Y339684D02*
X363579Y313944D01*
D24*
X363579Y339684D02*
X344488Y358775D01*
X344488Y399660D02*
X332668Y411480D01*
X344488Y399660D02*
X344488Y385763D01*
D21*
X317500Y323850D03*
D25*
X318568Y322782D01*
X318568Y313944D01*
D21*
X361950Y376238D03*
D25*
X363449Y374739D01*
D24*
X363449Y354102D01*
X361950Y376238D02*
X361950Y385835D01*
D25*
X359728Y388058D01*
D24*
X363449Y354102D02*
X368581Y348969D01*
D25*
X368581Y337142D02*
X368581Y313944D01*
X368581Y337142D02*
X368913Y337474D01*
X368913Y348637D02*
X368581Y348969D01*
X368913Y348637D02*
X368913Y337474D01*
D22*
X406353Y350910D02*
X433705Y350910D01*
D24*
X406353Y350910D02*
X406083Y351180D01*
D25*
X402908Y314253D02*
X399616Y314253D01*
X394352Y308988D01*
X394352Y295511D02*
X390743Y291903D01*
X394352Y295511D02*
X394352Y308988D01*
D24*
X428038Y331445D02*
X431165Y331445D01*
D22*
X428038Y331445D02*
X410845Y314253D01*
D24*
X402908Y314253D01*
X406083Y317428D02*
X406083Y351180D01*
X406083Y317428D02*
X402908Y314253D01*
D25*
X381000Y291903D02*
X380619Y291903D01*
X381000Y291903D02*
X390743Y291903D01*
D24*
X407670Y319015D02*
X407915Y319015D01*
X407670Y319015D02*
X402908Y314253D01*
X409575Y320675D02*
X409575Y325438D01*
X409575Y320675D02*
X407915Y319015D01*
D21*
X409575Y325438D03*
D25*
X380619Y286902D02*
X380619Y281901D01*
X380619Y286902D02*
X380619Y291522D01*
X381000Y291903D01*
D22*
X406083Y370180D02*
X431435Y370180D01*
D24*
X433705Y367910D01*
X435438Y367910D02*
X446918Y356430D01*
X435438Y367910D02*
X433705Y367910D01*
X452120Y351228D02*
X458470Y351228D01*
X452120Y351228D02*
X446918Y356430D01*
D25*
X402908Y297253D02*
X402908Y291783D01*
D22*
X402908Y297253D02*
X418100Y312445D01*
X431165Y312445D01*
D25*
X388024Y276899D02*
X380619Y276899D01*
X388024Y276899D02*
X402908Y291783D01*
D22*
X440209Y312445D02*
X446918Y319153D01*
X440209Y312445D02*
X431165Y312445D01*
X446918Y319153D02*
X446918Y356430D01*
M02*
