G04 EAGLE Gerber RS-274X export*
G75*
%MOMM*%
%FSLAX34Y34*%
%LPD*%
%INSoldermask Top*%
%IPPOS*%
%AMOC8*
5,1,8,0,0,1.08239X$1,22.5*%
G01*
%ADD10R,0.901600X0.901600*%
%ADD11R,1.201600X1.101600*%
%ADD12R,1.101600X1.201600*%
%ADD13R,0.914400X1.600200*%
%ADD14R,1.498600X1.803400*%
%ADD15R,1.244600X1.600200*%
%ADD16R,1.600200X1.244600*%
%ADD17C,1.101600*%
%ADD18P,1.759533X8X22.500000*%
%ADD19C,1.625600*%

G36*
X363739Y194947D02*
X363739Y194947D01*
X363768Y194944D01*
X363835Y194966D01*
X363905Y194980D01*
X363929Y194997D01*
X363957Y195006D01*
X364010Y195053D01*
X364069Y195093D01*
X364085Y195117D01*
X364107Y195137D01*
X364138Y195201D01*
X364176Y195260D01*
X364181Y195289D01*
X364193Y195315D01*
X364202Y195415D01*
X364209Y195457D01*
X364206Y195467D01*
X364208Y195481D01*
X363976Y198279D01*
X363966Y198313D01*
X363962Y198361D01*
X363273Y201082D01*
X363258Y201114D01*
X363246Y201160D01*
X362118Y203732D01*
X362098Y203760D01*
X362079Y203804D01*
X360543Y206155D01*
X360519Y206179D01*
X360493Y206220D01*
X358591Y208285D01*
X358563Y208306D01*
X358530Y208341D01*
X356315Y210066D01*
X356284Y210081D01*
X356246Y210111D01*
X353776Y211447D01*
X353743Y211457D01*
X353701Y211480D01*
X352515Y211888D01*
X351061Y212387D01*
X351045Y212392D01*
X351011Y212397D01*
X350965Y212412D01*
X348196Y212874D01*
X348161Y212873D01*
X348114Y212881D01*
X345306Y212881D01*
X345272Y212874D01*
X345224Y212874D01*
X342455Y212412D01*
X342422Y212400D01*
X342375Y212392D01*
X339719Y211480D01*
X339689Y211463D01*
X339644Y211447D01*
X337174Y210111D01*
X337148Y210089D01*
X337105Y210066D01*
X334890Y208341D01*
X334867Y208315D01*
X334829Y208285D01*
X332927Y206220D01*
X332909Y206190D01*
X332877Y206155D01*
X331341Y203804D01*
X331328Y203772D01*
X331302Y203732D01*
X330174Y201160D01*
X330167Y201127D01*
X330164Y201120D01*
X330158Y201111D01*
X330157Y201105D01*
X330147Y201082D01*
X329458Y198361D01*
X329456Y198326D01*
X329444Y198279D01*
X329212Y195481D01*
X329216Y195452D01*
X329211Y195423D01*
X329228Y195354D01*
X329236Y195284D01*
X329250Y195258D01*
X329257Y195230D01*
X329299Y195173D01*
X329334Y195111D01*
X329358Y195093D01*
X329375Y195070D01*
X329436Y195034D01*
X329493Y194991D01*
X329521Y194983D01*
X329546Y194968D01*
X329644Y194952D01*
X329685Y194941D01*
X329696Y194943D01*
X329710Y194941D01*
X363710Y194941D01*
X363739Y194947D01*
G37*
G36*
X225317Y255250D02*
X225317Y255250D01*
X225388Y255247D01*
X225415Y255257D01*
X225444Y255259D01*
X225534Y255301D01*
X225574Y255316D01*
X225582Y255324D01*
X225595Y255330D01*
X227898Y256929D01*
X227922Y256955D01*
X227962Y256982D01*
X229971Y258939D01*
X229990Y258968D01*
X230025Y259001D01*
X231684Y261262D01*
X231699Y261293D01*
X231728Y261332D01*
X232992Y263835D01*
X233001Y263869D01*
X233023Y263912D01*
X233859Y266589D01*
X233862Y266623D01*
X233877Y266669D01*
X234260Y269448D01*
X234258Y269482D01*
X234264Y269530D01*
X234185Y272333D01*
X234177Y272367D01*
X234176Y272415D01*
X233637Y275167D01*
X233623Y275199D01*
X233614Y275247D01*
X232629Y277872D01*
X232614Y277897D01*
X232609Y277917D01*
X232601Y277928D01*
X232594Y277947D01*
X231190Y280375D01*
X231167Y280401D01*
X231143Y280443D01*
X229359Y282606D01*
X229332Y282628D01*
X229301Y282665D01*
X227185Y284506D01*
X227155Y284523D01*
X227119Y284555D01*
X224728Y286022D01*
X224696Y286033D01*
X224655Y286059D01*
X222056Y287112D01*
X222022Y287119D01*
X221977Y287137D01*
X219240Y287748D01*
X219205Y287749D01*
X219158Y287760D01*
X216358Y287912D01*
X216324Y287907D01*
X216276Y287910D01*
X213488Y287600D01*
X213455Y287589D01*
X213407Y287584D01*
X210709Y286819D01*
X210679Y286803D01*
X210632Y286790D01*
X208097Y285591D01*
X208073Y285574D01*
X208046Y285564D01*
X207994Y285515D01*
X207937Y285472D01*
X207923Y285447D01*
X207902Y285427D01*
X207873Y285362D01*
X207837Y285301D01*
X207834Y285272D01*
X207822Y285245D01*
X207821Y285174D01*
X207812Y285103D01*
X207820Y285075D01*
X207820Y285046D01*
X207854Y284953D01*
X207866Y284912D01*
X207873Y284903D01*
X207878Y284890D01*
X224878Y255490D01*
X224897Y255468D01*
X224910Y255442D01*
X224963Y255394D01*
X225010Y255341D01*
X225036Y255329D01*
X225058Y255309D01*
X225125Y255286D01*
X225189Y255256D01*
X225218Y255254D01*
X225246Y255245D01*
X225317Y255250D01*
G37*
G36*
X477096Y402973D02*
X477096Y402973D01*
X477144Y402970D01*
X479932Y403280D01*
X479965Y403291D01*
X480013Y403296D01*
X482711Y404061D01*
X482741Y404077D01*
X482788Y404090D01*
X485323Y405289D01*
X485347Y405306D01*
X485374Y405316D01*
X485426Y405365D01*
X485483Y405408D01*
X485497Y405433D01*
X485519Y405453D01*
X485547Y405518D01*
X485583Y405580D01*
X485586Y405608D01*
X485598Y405635D01*
X485599Y405706D01*
X485608Y405777D01*
X485600Y405805D01*
X485600Y405834D01*
X485566Y405927D01*
X485554Y405968D01*
X485547Y405977D01*
X485542Y405990D01*
X468542Y435390D01*
X468523Y435412D01*
X468510Y435438D01*
X468457Y435486D01*
X468410Y435539D01*
X468384Y435551D01*
X468362Y435571D01*
X468295Y435594D01*
X468231Y435624D01*
X468202Y435626D01*
X468174Y435635D01*
X468103Y435630D01*
X468032Y435633D01*
X468005Y435623D01*
X467976Y435621D01*
X467886Y435579D01*
X467846Y435564D01*
X467838Y435556D01*
X467825Y435550D01*
X465522Y433951D01*
X465498Y433926D01*
X465458Y433898D01*
X463449Y431941D01*
X463430Y431912D01*
X463395Y431879D01*
X461736Y429618D01*
X461721Y429587D01*
X461692Y429548D01*
X460428Y427045D01*
X460419Y427011D01*
X460397Y426968D01*
X459561Y424291D01*
X459558Y424257D01*
X459543Y424211D01*
X459160Y421432D01*
X459162Y421398D01*
X459156Y421350D01*
X459235Y418547D01*
X459243Y418513D01*
X459244Y418465D01*
X459783Y415713D01*
X459797Y415681D01*
X459806Y415633D01*
X460791Y413008D01*
X460809Y412978D01*
X460826Y412933D01*
X462230Y410505D01*
X462253Y410479D01*
X462277Y410438D01*
X464061Y408274D01*
X464088Y408252D01*
X464119Y408215D01*
X466235Y406374D01*
X466265Y406357D01*
X466301Y406326D01*
X468692Y404858D01*
X468724Y404847D01*
X468765Y404821D01*
X471364Y403768D01*
X471398Y403761D01*
X471443Y403743D01*
X474180Y403132D01*
X474215Y403131D01*
X474262Y403120D01*
X477062Y402968D01*
X477096Y402973D01*
G37*
G36*
X468136Y255251D02*
X468136Y255251D01*
X468207Y255250D01*
X468234Y255261D01*
X468263Y255265D01*
X468325Y255299D01*
X468390Y255327D01*
X468411Y255348D01*
X468436Y255362D01*
X468499Y255438D01*
X468529Y255469D01*
X468533Y255479D01*
X468542Y255490D01*
X485542Y284890D01*
X485551Y284918D01*
X485568Y284942D01*
X485583Y285011D01*
X485605Y285079D01*
X485603Y285108D01*
X485609Y285136D01*
X485596Y285206D01*
X485590Y285277D01*
X485577Y285303D01*
X485571Y285331D01*
X485531Y285390D01*
X485499Y285453D01*
X485476Y285472D01*
X485460Y285496D01*
X485378Y285553D01*
X485345Y285580D01*
X485335Y285583D01*
X485323Y285591D01*
X482788Y286790D01*
X482754Y286798D01*
X482711Y286819D01*
X480013Y287584D01*
X479978Y287586D01*
X479932Y287600D01*
X477144Y287910D01*
X477110Y287907D01*
X477062Y287912D01*
X474262Y287760D01*
X474228Y287751D01*
X474180Y287748D01*
X471443Y287137D01*
X471411Y287123D01*
X471364Y287112D01*
X468765Y286059D01*
X468736Y286040D01*
X468692Y286022D01*
X466301Y284555D01*
X466276Y284531D01*
X466235Y284506D01*
X464119Y282665D01*
X464098Y282638D01*
X464061Y282606D01*
X462277Y280443D01*
X462261Y280412D01*
X462230Y280375D01*
X460826Y277947D01*
X460815Y277914D01*
X460808Y277901D01*
X460798Y277887D01*
X460798Y277884D01*
X460791Y277872D01*
X459806Y275247D01*
X459800Y275212D01*
X459783Y275167D01*
X459244Y272415D01*
X459244Y272381D01*
X459235Y272333D01*
X459156Y269530D01*
X459162Y269496D01*
X459160Y269448D01*
X459543Y266669D01*
X459555Y266637D01*
X459561Y266589D01*
X460397Y263912D01*
X460414Y263881D01*
X460428Y263835D01*
X461692Y261332D01*
X461714Y261305D01*
X461736Y261262D01*
X463395Y259001D01*
X463421Y258978D01*
X463449Y258939D01*
X465458Y256982D01*
X465487Y256963D01*
X465522Y256929D01*
X467825Y255330D01*
X467852Y255318D01*
X467875Y255300D01*
X467943Y255279D01*
X468008Y255251D01*
X468037Y255251D01*
X468065Y255243D01*
X468136Y255251D01*
G37*
G36*
X219158Y403120D02*
X219158Y403120D01*
X219192Y403129D01*
X219240Y403132D01*
X221977Y403743D01*
X222009Y403757D01*
X222056Y403768D01*
X224655Y404821D01*
X224684Y404840D01*
X224728Y404858D01*
X227119Y406326D01*
X227144Y406349D01*
X227185Y406374D01*
X229301Y408215D01*
X229322Y408242D01*
X229359Y408274D01*
X231143Y410438D01*
X231159Y410468D01*
X231190Y410505D01*
X232594Y412933D01*
X232605Y412966D01*
X232629Y413008D01*
X233614Y415633D01*
X233620Y415668D01*
X233637Y415713D01*
X234176Y418465D01*
X234176Y418500D01*
X234185Y418547D01*
X234264Y421350D01*
X234259Y421384D01*
X234260Y421432D01*
X233877Y424211D01*
X233865Y424243D01*
X233859Y424291D01*
X233023Y426968D01*
X233006Y426999D01*
X232992Y427045D01*
X231728Y429548D01*
X231706Y429575D01*
X231684Y429618D01*
X230025Y431879D01*
X229999Y431902D01*
X229971Y431941D01*
X227962Y433898D01*
X227933Y433917D01*
X227898Y433951D01*
X225595Y435550D01*
X225568Y435562D01*
X225545Y435580D01*
X225477Y435601D01*
X225412Y435629D01*
X225383Y435629D01*
X225355Y435637D01*
X225284Y435629D01*
X225213Y435630D01*
X225186Y435619D01*
X225157Y435615D01*
X225095Y435581D01*
X225030Y435553D01*
X225009Y435532D01*
X224984Y435518D01*
X224921Y435442D01*
X224891Y435411D01*
X224887Y435401D01*
X224878Y435390D01*
X207878Y405990D01*
X207869Y405962D01*
X207852Y405938D01*
X207837Y405869D01*
X207815Y405801D01*
X207817Y405772D01*
X207811Y405744D01*
X207824Y405674D01*
X207830Y405603D01*
X207843Y405577D01*
X207849Y405549D01*
X207889Y405490D01*
X207921Y405427D01*
X207944Y405408D01*
X207960Y405384D01*
X208042Y405327D01*
X208075Y405300D01*
X208085Y405297D01*
X208097Y405289D01*
X210632Y404090D01*
X210666Y404082D01*
X210709Y404061D01*
X213407Y403296D01*
X213442Y403294D01*
X213488Y403280D01*
X216276Y402970D01*
X216310Y402973D01*
X216358Y402968D01*
X219158Y403120D01*
G37*
G36*
X510437Y328451D02*
X510437Y328451D01*
X510508Y328451D01*
X510535Y328462D01*
X510564Y328465D01*
X510626Y328500D01*
X510691Y328528D01*
X510712Y328548D01*
X510737Y328563D01*
X510800Y328640D01*
X510830Y328670D01*
X510834Y328680D01*
X510843Y328691D01*
X520343Y345191D01*
X520353Y345223D01*
X520362Y345236D01*
X520366Y345260D01*
X520367Y345264D01*
X520398Y345334D01*
X520398Y345358D01*
X520406Y345380D01*
X520400Y345456D01*
X520401Y345533D01*
X520391Y345557D01*
X520390Y345578D01*
X520369Y345617D01*
X520343Y345689D01*
X510843Y362189D01*
X510824Y362211D01*
X510811Y362237D01*
X510758Y362285D01*
X510711Y362338D01*
X510685Y362351D01*
X510664Y362370D01*
X510596Y362393D01*
X510532Y362424D01*
X510503Y362426D01*
X510476Y362435D01*
X510404Y362430D01*
X510333Y362433D01*
X510306Y362423D01*
X510277Y362421D01*
X510187Y362379D01*
X510147Y362364D01*
X510139Y362357D01*
X510126Y362351D01*
X507603Y360609D01*
X507579Y360585D01*
X507541Y360558D01*
X505329Y358434D01*
X505310Y358406D01*
X505276Y358374D01*
X503434Y355923D01*
X503420Y355892D01*
X503391Y355855D01*
X501966Y353140D01*
X501957Y353109D01*
X501941Y353084D01*
X501940Y353076D01*
X501935Y353066D01*
X500964Y350158D01*
X500960Y350124D01*
X500945Y350080D01*
X500453Y347053D01*
X500454Y347019D01*
X500446Y346973D01*
X500446Y343907D01*
X500447Y343903D01*
X500447Y343901D01*
X500453Y343874D01*
X500453Y343827D01*
X500945Y340800D01*
X500957Y340769D01*
X500964Y340722D01*
X501935Y337814D01*
X501952Y337785D01*
X501966Y337740D01*
X503391Y335025D01*
X503413Y334999D01*
X503434Y334957D01*
X505276Y332506D01*
X505301Y332483D01*
X505329Y332446D01*
X507541Y330322D01*
X507569Y330304D01*
X507603Y330271D01*
X510126Y328529D01*
X510153Y328518D01*
X510175Y328499D01*
X510244Y328479D01*
X510309Y328451D01*
X510338Y328451D01*
X510366Y328443D01*
X510437Y328451D01*
G37*
G36*
X183016Y328450D02*
X183016Y328450D01*
X183087Y328447D01*
X183114Y328457D01*
X183143Y328459D01*
X183233Y328501D01*
X183273Y328516D01*
X183281Y328523D01*
X183294Y328529D01*
X185817Y330271D01*
X185841Y330295D01*
X185879Y330322D01*
X188091Y332446D01*
X188110Y332474D01*
X188144Y332506D01*
X189986Y334957D01*
X190000Y334988D01*
X190029Y335025D01*
X191454Y337740D01*
X191463Y337773D01*
X191485Y337814D01*
X192456Y340722D01*
X192460Y340756D01*
X192475Y340800D01*
X192967Y343827D01*
X192966Y343861D01*
X192974Y343907D01*
X192974Y346973D01*
X192967Y347006D01*
X192967Y347053D01*
X192475Y350080D01*
X192463Y350111D01*
X192456Y350158D01*
X191485Y353066D01*
X191472Y353089D01*
X191466Y353114D01*
X191459Y353123D01*
X191454Y353140D01*
X190029Y355855D01*
X190007Y355881D01*
X189986Y355923D01*
X188144Y358374D01*
X188119Y358397D01*
X188091Y358434D01*
X185879Y360558D01*
X185851Y360576D01*
X185817Y360609D01*
X183294Y362351D01*
X183267Y362362D01*
X183245Y362381D01*
X183176Y362401D01*
X183111Y362429D01*
X183082Y362429D01*
X183054Y362437D01*
X182983Y362429D01*
X182912Y362430D01*
X182885Y362418D01*
X182856Y362415D01*
X182794Y362380D01*
X182729Y362352D01*
X182708Y362332D01*
X182683Y362317D01*
X182620Y362240D01*
X182590Y362210D01*
X182586Y362200D01*
X182577Y362189D01*
X173077Y345689D01*
X173053Y345616D01*
X173022Y345546D01*
X173022Y345522D01*
X173014Y345500D01*
X173021Y345424D01*
X173020Y345347D01*
X173029Y345323D01*
X173030Y345302D01*
X173051Y345263D01*
X173070Y345211D01*
X173071Y345205D01*
X173073Y345203D01*
X173077Y345191D01*
X182577Y328691D01*
X182596Y328669D01*
X182609Y328643D01*
X182662Y328595D01*
X182709Y328542D01*
X182735Y328529D01*
X182757Y328510D01*
X182824Y328487D01*
X182888Y328456D01*
X182917Y328455D01*
X182944Y328445D01*
X183016Y328450D01*
G37*
G36*
X433386Y194956D02*
X433386Y194956D01*
X433464Y194965D01*
X433483Y194976D01*
X433505Y194980D01*
X433569Y195024D01*
X433637Y195063D01*
X433653Y195082D01*
X433669Y195093D01*
X433693Y195131D01*
X433743Y195191D01*
X443243Y211691D01*
X443252Y211718D01*
X443268Y211742D01*
X443283Y211812D01*
X443306Y211880D01*
X443303Y211908D01*
X443309Y211936D01*
X443296Y212007D01*
X443290Y212078D01*
X443277Y212103D01*
X443271Y212131D01*
X443231Y212191D01*
X443198Y212254D01*
X443176Y212272D01*
X443160Y212296D01*
X443077Y212354D01*
X443045Y212381D01*
X443034Y212384D01*
X443024Y212391D01*
X440258Y213700D01*
X440225Y213708D01*
X440182Y213728D01*
X437242Y214576D01*
X437208Y214579D01*
X437164Y214592D01*
X434126Y214957D01*
X434092Y214954D01*
X434045Y214960D01*
X430988Y214833D01*
X430955Y214825D01*
X430908Y214824D01*
X427911Y214208D01*
X427880Y214195D01*
X427834Y214186D01*
X424974Y213097D01*
X424946Y213079D01*
X424902Y213063D01*
X422254Y211529D01*
X422228Y211507D01*
X422188Y211484D01*
X419820Y209546D01*
X419798Y209519D01*
X419762Y209490D01*
X417735Y207197D01*
X417719Y207168D01*
X417687Y207133D01*
X416055Y204545D01*
X416043Y204513D01*
X416018Y204474D01*
X414822Y201657D01*
X414815Y201624D01*
X414812Y201617D01*
X414808Y201611D01*
X414807Y201605D01*
X414796Y201581D01*
X414068Y198609D01*
X414066Y198575D01*
X414055Y198530D01*
X413812Y195480D01*
X413816Y195451D01*
X413811Y195423D01*
X413828Y195354D01*
X413836Y195282D01*
X413851Y195258D01*
X413857Y195230D01*
X413900Y195172D01*
X413936Y195110D01*
X413958Y195093D01*
X413975Y195070D01*
X414037Y195033D01*
X414094Y194990D01*
X414122Y194983D01*
X414146Y194968D01*
X414246Y194952D01*
X414287Y194941D01*
X414297Y194943D01*
X414310Y194941D01*
X433310Y194941D01*
X433386Y194956D01*
G37*
G36*
X279138Y194946D02*
X279138Y194946D01*
X279166Y194944D01*
X279234Y194966D01*
X279305Y194980D01*
X279328Y194996D01*
X279355Y195005D01*
X279410Y195052D01*
X279469Y195093D01*
X279484Y195117D01*
X279506Y195135D01*
X279537Y195200D01*
X279576Y195260D01*
X279581Y195288D01*
X279593Y195314D01*
X279602Y195415D01*
X279609Y195457D01*
X279607Y195467D01*
X279608Y195480D01*
X279365Y198530D01*
X279356Y198562D01*
X279352Y198609D01*
X278624Y201581D01*
X278609Y201612D01*
X278598Y201657D01*
X277402Y204474D01*
X277383Y204502D01*
X277365Y204545D01*
X275733Y207133D01*
X275709Y207157D01*
X275685Y207197D01*
X273658Y209490D01*
X273631Y209510D01*
X273600Y209546D01*
X271233Y211484D01*
X271202Y211500D01*
X271166Y211529D01*
X268518Y213063D01*
X268486Y213073D01*
X268446Y213097D01*
X265586Y214186D01*
X265553Y214191D01*
X265509Y214208D01*
X262512Y214824D01*
X262478Y214824D01*
X262432Y214833D01*
X259375Y214960D01*
X259341Y214955D01*
X259294Y214957D01*
X256256Y214592D01*
X256224Y214581D01*
X256178Y214576D01*
X253238Y213728D01*
X253208Y213712D01*
X253163Y213700D01*
X250397Y212391D01*
X250374Y212374D01*
X250347Y212364D01*
X250295Y212315D01*
X250237Y212272D01*
X250223Y212247D01*
X250202Y212228D01*
X250173Y212162D01*
X250137Y212100D01*
X250134Y212072D01*
X250122Y212046D01*
X250121Y211974D01*
X250112Y211903D01*
X250120Y211876D01*
X250120Y211847D01*
X250155Y211752D01*
X250166Y211712D01*
X250173Y211703D01*
X250177Y211691D01*
X259677Y195191D01*
X259729Y195133D01*
X259775Y195070D01*
X259794Y195059D01*
X259809Y195042D01*
X259879Y195008D01*
X259946Y194968D01*
X259971Y194964D01*
X259988Y194956D01*
X260033Y194954D01*
X260110Y194941D01*
X279110Y194941D01*
X279138Y194946D01*
G37*
D10*
X308293Y232213D03*
X308293Y247213D03*
D11*
X280670Y238833D03*
X280670Y255833D03*
D12*
X350275Y308928D03*
X367275Y308928D03*
D13*
X318440Y453966D03*
X329440Y453966D03*
X340440Y453966D03*
X351440Y453966D03*
X362440Y453966D03*
X373440Y453966D03*
X384440Y453966D03*
X395440Y453966D03*
D14*
X280940Y482966D03*
X409940Y482966D03*
D15*
X411190Y385466D03*
D16*
X316440Y338216D03*
X339440Y338216D03*
X405440Y338216D03*
D17*
X511910Y345440D03*
X429310Y202340D03*
X264110Y202340D03*
X181510Y345440D03*
X470610Y416940D03*
X470610Y273940D03*
X346710Y202340D03*
X222810Y273940D03*
X222810Y416940D03*
D18*
X438150Y392113D03*
D19*
X239713Y376238D03*
X239713Y350838D03*
X239713Y325438D03*
M02*
